<svg xmlns="http://www.w3.org/2000/svg" xmlns:xlink="http://www.w3.org/1999/xlink" width="1000" zoomAndPan="magnify" viewBox="0 0 750 749.999995" height="1000" preserveAspectRatio="xMidYMid meet" version="1.0"><defs><clipPath id="id1"><path d="M 80 35.707031 L 670 35.707031 L 670 714.457031 L 80 714.457031 Z M 80 35.707031 " clip-rule="nonzero"/></clipPath></defs><path fill="#ffffff" d="M 624.003906 574.316406 L 622.472656 576.773438 L 622.617188 576.773438 C 572.792969 655.046875 491.460938 704.234375 399.347656 711.765625 C 399.347656 711.765625 397.269531 711.9375 396.464844 711.996094 C 394.800781 712.113281 393.136719 712.222656 391.464844 712.3125 C 390.246094 712.378906 389.015625 712.433594 387.789062 712.488281 L 387.140625 712.515625 C 385.8125 712.570312 384.484375 712.625 383.152344 712.660156 C 381.960938 712.695312 380.765625 712.710938 379.574219 712.722656 L 377.265625 712.761719 C 376.527344 712.777344 375.792969 712.792969 375.054688 712.792969 C 374.3125 712.792969 373.570312 712.777344 372.832031 712.761719 L 370.527344 712.722656 C 369.339844 712.710938 368.152344 712.695312 366.96875 712.660156 C 365.523438 712.625 364.085938 712.5625 362.648438 712.5 L 362.296875 712.484375 C 361.085938 712.433594 359.875 712.378906 358.671875 712.3125 C 356.980469 712.21875 355.296875 712.113281 353.617188 711.992188 C 352.832031 711.9375 350.824219 711.773438 350.824219 711.773438 C 258.554688 704.25 177.117188 654.9375 127.320312 576.457031 L 126.113281 574.316406 C 97.121094 527.863281 81.796875 474.3125 81.796875 419.449219 C 81.796875 354.390625 102.757812 292.714844 142.410156 241.089844 L 143.207031 240.054688 L 142.355469 239.066406 C 136.109375 231.792969 119.507812 212.46875 121.40625 208.371094 C 121.71875 207.703125 122.238281 207.296875 123 207.128906 C 123.246094 207.074219 123.527344 207.046875 123.835938 207.046875 C 128.359375 207.046875 137.960938 212.566406 150.179688 222.1875 L 152.605469 220.203125 C 148.605469 212.28125 135.335938 185.828125 132.425781 177.96875 C 130.519531 172.828125 132.203125 171.175781 133.015625 170.703125 C 133.476562 170.433594 134.03125 170.292969 134.660156 170.292969 C 136.839844 170.292969 139.515625 171.859375 141.640625 174.382812 C 143.582031 176.691406 148.0625 182.773438 154.59375 191.96875 L 157.402344 190.472656 C 153.542969 180.28125 148.578125 167.09375 146.84375 162.160156 C 145.257812 157.625 147.40625 154.71875 149.730469 153.609375 C 150.550781 153.21875 151.488281 153.011719 152.441406 153.011719 C 153.96875 153.011719 156.867188 153.558594 159.136719 157.214844 C 162.746094 163.050781 175.511719 183.410156 183.082031 195.480469 L 184.070312 197.054688 L 186.933594 194.621094 L 186.65625 193.628906 C 179.257812 167.097656 175.023438 149.34375 175.339844 146.140625 C 175.582031 143.6875 177.347656 141.832031 179.730469 141.53125 C 179.945312 141.503906 180.167969 141.488281 180.394531 141.488281 C 181.824219 141.488281 186.753906 142.191406 190.042969 151.191406 C 191.460938 155.078125 194.476562 162.027344 199 171.839844 L 200.621094 175.347656 L 201.964844 171.726562 C 205.121094 163.238281 212.121094 156.480469 220.695312 153.660156 L 222.121094 153.1875 L 221.746094 151.734375 C 221.097656 149.207031 220.769531 146.6875 220.769531 144.246094 C 220.769531 127.683594 234.238281 114.210938 250.796875 114.210938 L 252.632812 114.234375 L 252.648438 112.421875 C 252.480469 111.046875 252.402344 109.890625 252.402344 108.78125 C 252.402344 92.214844 265.875 78.742188 282.433594 78.742188 C 282.960938 78.742188 283.476562 78.78125 283.992188 78.816406 L 285.929688 78.941406 L 286.105469 77.429688 C 287.875 62.316406 300.6875 50.925781 315.910156 50.925781 C 320.269531 50.925781 324.515625 51.871094 328.523438 53.734375 L 329.894531 54.371094 L 330.613281 53.039062 C 335.871094 43.304688 346.003906 37.253906 357.050781 37.253906 C 365.628906 37.253906 373.824219 40.964844 379.539062 47.4375 L 380.414062 48.425781 L 381.554688 47.757812 C 386.160156 45.0625 391.390625 43.636719 396.679688 43.636719 C 409.148438 43.636719 420.453125 51.507812 424.804688 63.226562 L 425.496094 65.085938 L 427.167969 64.027344 C 431.984375 60.976562 437.523438 59.367188 443.179688 59.367188 C 457.0625 59.367188 469.046875 68.796875 472.328125 82.300781 L 472.445312 82.785156 L 472.816406 83.117188 C 473.238281 83.492188 473.65625 83.871094 474.074219 84.257812 L 474.597656 84.75 L 475.316406 84.6875 C 476.207031 84.605469 477.105469 84.550781 478.015625 84.550781 C 494.574219 84.550781 508.042969 98.023438 508.042969 114.585938 C 508.042969 120.210938 506.453125 125.71875 503.4375 130.519531 L 502.109375 132.632812 L 504.578125 132.96875 C 519.390625 134.96875 530.558594 147.75 530.558594 162.699219 C 530.558594 164.824219 530.320312 167 529.84375 169.164062 L 529.605469 170.269531 L 530.5625 170.867188 C 616.824219 225.046875 668.324219 317.976562 668.324219 419.449219 C 668.324219 474.308594 652.996094 527.859375 624.003906 574.316406 Z M 624.003906 574.316406 " fill-opacity="1" fill-rule="nonzero"/><path fill="#8853b2" d="M 588.695312 576.316406 L 503.894531 576.316406 L 478.1875 533.371094 L 342.191406 533.371094 L 342.191406 557.679688 L 391.101562 639.398438 L 378.097656 639.398438 L 378.097656 663.707031 L 329.1875 581.992188 L 329.1875 576.3125 L 303.902344 576.3125 C 280.160156 604.675781 230.875 602.699219 200.914062 576.3125 C 199.050781 574.671875 197.257812 572.945312 195.554688 571.117188 C 174.203125 548.195312 167.542969 374.972656 167.542969 356.515625 C 167.542969 351.589844 174.21875 345.460938 184.070312 339.359375 C 192.027344 334.429688 202.050781 329.515625 212.347656 325.261719 C 228.203125 318.714844 244.648438 313.746094 255.074219 312.691406 C 257.546875 312.441406 259.671875 312.417969 261.375 312.644531 C 291.871094 301.167969 319.640625 294.300781 330.796875 253.585938 C 333.566406 256.761719 336.585938 259.695312 339.839844 262.324219 L 339.839844 322.820312 L 376.832031 364.359375 L 410.28125 322.820312 L 410.28125 268.3125 C 414.25 266.132812 418.035156 263.582031 421.589844 260.699219 C 440.414062 313.21875 491.503906 301.257812 534.179688 337.601562 C 571.980469 369.789062 585.1875 522.785156 588.695312 576.316406 Z M 322.789062 588.40625 C 321.925781 586.96875 320.40625 586.175781 318.847656 586.175781 C 318.046875 586.175781 317.234375 586.382812 316.496094 586.828125 C 314.324219 588.128906 313.617188 590.945312 314.917969 593.121094 L 360.546875 669.394531 L 370.121094 676.417969 L 368.414062 664.679688 Z M 322.789062 588.40625 " fill-opacity="1" fill-rule="nonzero"/><path fill="#e4749f" d="M 623.433594 576.316406 L 503.894531 576.316406 L 478.1875 533.371094 L 342.191406 533.371094 L 342.191406 557.679688 L 391.101562 639.398438 L 391.101562 615.085938 L 527.101562 615.085938 L 527.101562 639.398438 L 514.097656 639.398438 L 514.097656 663.710938 L 378.097656 663.710938 L 378.097656 663.707031 L 329.1875 581.992188 L 329.1875 576.3125 L 303.902344 576.3125 C 280.160156 604.675781 230.875 602.699219 200.914062 576.3125 L 126.6875 576.3125 C 126.6875 576.316406 126.691406 576.320312 126.691406 576.320312 C 129.894531 581.382812 133.246094 586.335938 136.742188 591.183594 C 136.890625 591.390625 137.042969 591.59375 137.191406 591.800781 C 138.757812 593.960938 140.359375 596.101562 141.984375 598.214844 C 142.191406 598.488281 142.402344 598.765625 142.613281 599.039062 C 146.203125 603.683594 149.929688 608.222656 153.789062 612.640625 C 153.917969 612.789062 154.046875 612.933594 154.175781 613.078125 C 155.910156 615.054688 157.671875 617.003906 159.453125 618.929688 C 159.816406 619.320312 160.175781 619.710938 160.539062 620.097656 C 162.246094 621.921875 163.972656 623.722656 165.722656 625.5 C 165.976562 625.761719 166.230469 626.027344 166.488281 626.285156 C 170.503906 630.339844 174.644531 634.273438 178.890625 638.089844 C 179.363281 638.511719 179.839844 638.929688 180.3125 639.351562 C 181.976562 640.828125 183.65625 642.28125 185.351562 643.71875 C 185.875 644.160156 186.394531 644.605469 186.917969 645.042969 C 188.933594 646.726562 190.964844 648.386719 193.023438 650.011719 C 193.152344 650.117188 193.28125 650.222656 193.414062 650.328125 C 195.625 652.070312 197.863281 653.777344 200.125 655.457031 C 200.667969 655.859375 201.214844 656.25 201.757812 656.648438 C 203.460938 657.894531 205.175781 659.125 206.90625 660.335938 C 207.621094 660.835938 208.335938 661.332031 209.054688 661.824219 C 210.753906 662.992188 212.464844 664.136719 214.191406 665.269531 C 214.816406 665.683594 215.4375 666.101562 216.070312 666.507812 C 218.367188 667.988281 220.679688 669.441406 223.019531 670.863281 C 223.527344 671.167969 224.039062 671.460938 224.546875 671.765625 C 226.402344 672.875 228.269531 673.964844 230.152344 675.035156 C 231.015625 675.527344 231.882812 676.007812 232.753906 676.492188 C 234.34375 677.375 235.941406 678.242188 237.550781 679.09375 C 238.449219 679.574219 239.34375 680.050781 240.25 680.519531 C 242.136719 681.496094 244.039062 682.449219 245.949219 683.386719 C 246.535156 683.671875 247.109375 683.972656 247.695312 684.253906 C 250.078125 685.402344 252.484375 686.515625 254.90625 687.601562 C 255.875 688.035156 256.851562 688.453125 257.824219 688.878906 C 259.398438 689.5625 260.976562 690.238281 262.5625 690.898438 C 263.644531 691.347656 264.726562 691.789062 265.8125 692.226562 C 267.394531 692.863281 268.988281 693.476562 270.582031 694.085938 C 271.601562 694.472656 272.621094 694.871094 273.644531 695.25 C 276.085938 696.148438 278.539062 697.015625 281.007812 697.851562 C 282.03125 698.195312 283.066406 698.519531 284.097656 698.855469 C 285.707031 699.378906 287.324219 699.898438 288.949219 700.394531 C 290.164062 700.769531 291.382812 701.128906 292.605469 701.484375 C 294.089844 701.917969 295.582031 702.339844 297.078125 702.75 C 298.3125 703.089844 299.546875 703.429688 300.792969 703.753906 C 302.488281 704.199219 304.195312 704.613281 305.902344 705.027344 C 307.597656 705.433594 309.296875 705.832031 311 706.210938 C 312.839844 706.621094 314.683594 707.023438 316.535156 707.398438 C 317.839844 707.664062 319.148438 707.90625 320.460938 708.152344 C 321.929688 708.429688 323.398438 708.695312 324.871094 708.949219 C 326.238281 709.183594 327.605469 709.414062 328.976562 709.628906 C 330.472656 709.867188 331.972656 710.082031 333.476562 710.296875 C 334.792969 710.480469 336.105469 710.679688 337.429688 710.847656 C 339.992188 711.175781 342.566406 711.472656 345.152344 711.734375 C 346.484375 711.867188 347.828125 711.972656 349.167969 712.089844 C 350.683594 712.222656 352.203125 712.355469 353.726562 712.464844 C 355.15625 712.566406 356.585938 712.652344 358.023438 712.738281 C 359.496094 712.820312 360.976562 712.890625 362.457031 712.953125 C 363.882812 713.011719 365.304688 713.074219 366.730469 713.117188 C 368.453125 713.164062 370.179688 713.183594 371.90625 713.199219 C 372.957031 713.210938 374.003906 713.253906 375.054688 713.253906 C 376.105469 713.253906 377.144531 713.210938 378.1875 713.199219 C 379.925781 713.183594 381.660156 713.164062 383.390625 713.117188 C 384.808594 713.074219 386.222656 713.011719 387.640625 712.953125 C 389.132812 712.890625 390.625 712.820312 392.109375 712.734375 C 393.53125 712.652344 394.953125 712.566406 396.371094 712.464844 C 397.917969 712.355469 399.460938 712.222656 401.003906 712.085938 C 402.316406 711.972656 403.636719 711.871094 404.945312 711.734375 C 407.542969 711.472656 410.128906 711.175781 412.707031 710.847656 C 413.996094 710.683594 415.269531 710.488281 416.550781 710.308594 C 418.097656 710.089844 419.640625 709.867188 421.175781 709.625 C 422.515625 709.414062 423.855469 709.191406 425.191406 708.960938 C 426.707031 708.699219 428.222656 708.421875 429.730469 708.140625 C 431.003906 707.898438 432.277344 707.664062 433.539062 707.410156 C 435.507812 707.011719 437.460938 706.585938 439.410156 706.148438 C 440.9375 705.808594 442.457031 705.453125 443.976562 705.085938 C 445.78125 704.652344 447.582031 704.214844 449.371094 703.746094 C 450.566406 703.433594 451.753906 703.105469 452.941406 702.78125 C 454.496094 702.351562 456.046875 701.917969 457.589844 701.464844 C 458.761719 701.121094 459.9375 700.777344 461.105469 700.417969 C 462.8125 699.894531 464.507812 699.351562 466.203125 698.800781 C 467.15625 698.488281 468.113281 698.191406 469.058594 697.871094 C 471.5625 697.027344 474.050781 696.148438 476.519531 695.234375 C 477.476562 694.882812 478.425781 694.511719 479.378906 694.148438 C 481.050781 693.511719 482.71875 692.867188 484.375 692.203125 C 485.410156 691.789062 486.441406 691.363281 487.472656 690.9375 C 489.128906 690.25 490.773438 689.546875 492.414062 688.832031 C 493.328125 688.433594 494.246094 688.039062 495.15625 687.632812 C 497.605469 686.53125 500.042969 685.40625 502.460938 684.242188 C 502.957031 684 503.449219 683.746094 503.945312 683.503906 C 505.949219 682.523438 507.9375 681.523438 509.910156 680.503906 C 510.773438 680.054688 511.632812 679.597656 512.488281 679.144531 C 514.144531 678.265625 515.789062 677.371094 517.421875 676.464844 C 518.257812 676 519.097656 675.535156 519.929688 675.0625 C 521.855469 673.96875 523.765625 672.851562 525.664062 671.714844 C 526.132812 671.433594 526.609375 671.164062 527.078125 670.878906 C 529.425781 669.453125 531.75 667.996094 534.058594 666.503906 C 534.679688 666.105469 535.289062 665.695312 535.902344 665.292969 C 537.632812 664.15625 539.355469 663.007812 541.058594 661.835938 C 541.78125 661.335938 542.503906 660.839844 543.222656 660.335938 C 544.933594 659.136719 546.628906 657.921875 548.3125 656.691406 C 548.878906 656.273438 549.453125 655.867188 550.015625 655.449219 C 552.257812 653.78125 554.480469 652.089844 556.671875 650.363281 C 556.875 650.203125 557.074219 650.035156 557.277344 649.878906 C 559.246094 648.316406 561.195312 646.726562 563.128906 645.113281 C 563.71875 644.621094 564.304688 644.117188 564.894531 643.621094 C 566.492188 642.261719 568.078125 640.890625 569.648438 639.5 C 570.210938 639 570.777344 638.503906 571.335938 638.003906 C 573.265625 636.265625 575.175781 634.511719 577.058594 632.726562 C 577.183594 632.609375 577.3125 632.492188 577.4375 632.375 C 579.484375 630.425781 581.5 628.445312 583.488281 626.441406 C 583.921875 626.007812 584.34375 625.5625 584.773438 625.125 C 586.308594 623.558594 587.828125 621.976562 589.332031 620.375 C 589.863281 619.808594 590.390625 619.238281 590.917969 618.667969 C 592.425781 617.03125 593.917969 615.378906 595.390625 613.710938 C 595.769531 613.277344 596.160156 612.851562 596.539062 612.414062 C 598.390625 610.292969 600.214844 608.140625 602.007812 605.964844 C 602.207031 605.71875 602.402344 605.46875 602.601562 605.222656 C 604.152344 603.324219 605.679688 601.40625 607.183594 599.464844 C 607.667969 598.84375 608.148438 598.214844 608.625 597.585938 C 609.882812 595.941406 611.121094 594.285156 612.339844 592.613281 C 612.804688 591.976562 613.273438 591.34375 613.734375 590.707031 C 615.242188 588.605469 616.726562 586.492188 618.175781 584.351562 C 618.285156 584.195312 618.394531 584.042969 618.5 583.886719 C 620.054688 581.59375 621.566406 579.269531 623.054688 576.929688 C 623.183594 576.726562 623.324219 576.527344 623.453125 576.320312 L 623.433594 576.320312 Z M 360.546875 669.394531 L 314.917969 593.121094 C 313.617188 590.945312 314.324219 588.128906 316.496094 586.828125 C 317.234375 586.382812 318.046875 586.171875 318.847656 586.171875 C 320.40625 586.171875 321.929688 586.96875 322.789062 588.40625 L 368.414062 664.679688 L 370.121094 676.414062 Z M 360.546875 669.394531 " fill-opacity="1" fill-rule="nonzero"/><path fill="#b85433" d="M 456.546875 171.234375 C 457.347656 158.332031 456.003906 146.234375 451.515625 135.742188 C 443.707031 117.484375 426.34375 104.113281 393.964844 99.96875 C 355.136719 95 333.859375 108.304688 322.917969 130.285156 C 319.496094 137.164062 317.074219 144.886719 315.457031 153.175781 C 306.183594 147.929688 291.695312 152.503906 289.8125 167.226562 C 287.722656 183.542969 297.359375 202.1875 310.378906 203.683594 C 311.707031 221.957031 318.96875 240.019531 330.796875 253.589844 C 333.566406 256.765625 336.585938 259.699219 339.839844 262.328125 L 339.839844 322.820312 L 376.828125 364.359375 L 410.277344 322.820312 L 410.277344 268.3125 C 414.25 266.132812 418.035156 263.582031 421.585938 260.699219 C 433.960938 250.644531 443.558594 236.675781 448.746094 221.390625 C 461.722656 223.222656 475.742188 207.605469 477.828125 191.289062 C 479.714844 176.566406 466.839844 168.492188 456.546875 171.234375 Z M 372.871094 247.257812 C 352.746094 244.246094 348.863281 225.449219 348.863281 225.449219 C 348.863281 225.449219 357.4375 232.253906 376.113281 234.644531 C 394.785156 237.03125 404.796875 232.609375 404.796875 232.609375 C 404.796875 232.609375 396.679688 250.828125 372.871094 247.257812 Z M 241.023438 249.652344 C 241.023438 249.652344 247.878906 279.742188 255.070312 312.695312 C 244.648438 313.75 228.199219 318.71875 212.347656 325.265625 C 202.050781 329.519531 192.027344 334.433594 184.070312 339.363281 C 182.785156 312.574219 182.125 290.191406 178.125 282.457031 C 174.71875 275.855469 157.277344 257.117188 142.519531 239.984375 C 129.917969 225.355469 119.265625 211.898438 120.992188 208.179688 C 124.734375 200.109375 154.621094 225.199219 154.621094 225.199219 C 154.621094 225.199219 135.574219 187.789062 131.996094 178.128906 C 128.417969 168.46875 136.378906 167.425781 141.992188 174.089844 C 145.003906 177.671875 153.21875 189.1875 160.179688 199.09375 C 155.800781 187.570312 148.566406 168.460938 146.414062 162.3125 C 143.261719 153.308594 154.253906 148.460938 159.523438 156.972656 C 163.214844 162.933594 176.292969 183.789062 183.804688 195.769531 C 184.105469 195.738281 184.414062 195.742188 184.71875 195.722656 C 185.363281 195.679688 186.003906 195.625 186.660156 195.625 C 186.6875 195.625 186.714844 195.628906 186.746094 195.628906 C 186.625 195.199219 186.503906 194.769531 186.378906 194.320312 C 182.066406 178.875 174.441406 150.679688 174.890625 146.105469 C 175.515625 139.75 185.492188 137.382812 190.480469 151.042969 C 192.628906 156.921875 198.132812 168.996094 203.703125 180.839844 C 211.0625 196.5 218.542969 211.75 218.542969 211.75 C 218.542969 211.75 226.027344 168.570312 240.992188 169.839844 C 240.988281 169.839844 248.445312 205.367188 241.023438 249.652344 Z M 241.023438 249.652344 " fill-opacity="1" fill-rule="nonzero"/><g clip-path="url(#id1)"><path fill="#321a04" d="M 669.929688 419.453125 C 669.929688 314.230469 614.542969 221.722656 531.414062 169.507812 C 531.894531 167.3125 532.167969 165.039062 532.167969 162.699219 C 532.167969 146.675781 520.246094 133.464844 504.796875 131.378906 C 507.855469 126.507812 509.648438 120.761719 509.648438 114.589844 C 509.648438 97.113281 495.488281 82.945312 478.015625 82.945312 C 477.054688 82.945312 476.109375 83.007812 475.171875 83.089844 C 474.746094 82.691406 474.316406 82.304688 473.886719 81.921875 C 470.523438 68.0625 458.066406 57.761719 443.179688 57.761719 C 436.96875 57.761719 431.195312 59.578125 426.308594 62.671875 C 421.835938 50.628906 410.277344 42.03125 396.679688 42.03125 C 390.859375 42.03125 385.429688 43.632812 380.742188 46.371094 C 374.945312 39.808594 366.492188 35.648438 357.050781 35.648438 C 345.011719 35.648438 334.546875 42.378906 329.203125 52.277344 C 325.15625 50.398438 320.664062 49.320312 315.910156 49.320312 C 299.699219 49.320312 286.355469 61.523438 284.511719 77.242188 C 283.820312 77.199219 283.132812 77.140625 282.429688 77.140625 C 264.960938 77.140625 250.796875 91.304688 250.796875 108.78125 C 250.796875 110.082031 250.898438 111.359375 251.050781 112.617188 C 250.964844 112.617188 250.882812 112.605469 250.796875 112.605469 C 233.324219 112.605469 219.160156 126.773438 219.160156 144.25 C 219.160156 146.976562 219.542969 149.609375 220.191406 152.136719 C 211.0625 155.144531 203.792969 162.191406 200.457031 171.171875 C 196.535156 162.660156 193.121094 154.945312 191.550781 150.640625 C 188.402344 142.027344 183.277344 139.46875 179.53125 139.9375 C 176.382812 140.335938 174.058594 142.765625 173.742188 145.984375 C 173.28125 150.707031 180.75 178.425781 185.109375 194.0625 C 184.886719 194.25 184.664062 194.4375 184.441406 194.628906 C 176.875 182.5625 164.113281 162.207031 160.5 156.371094 C 157.316406 151.238281 152.328125 150.589844 149.039062 152.164062 C 145.886719 153.671875 143.515625 157.511719 145.332031 162.695312 C 147.003906 167.476562 151.792969 180.199219 155.898438 191.046875 C 150.453125 183.375 145.179688 176.101562 142.863281 173.355469 C 139.511719 169.371094 135.027344 167.671875 132.207031 169.320312 C 131.042969 169.996094 128.589844 172.25 130.917969 178.53125 C 133.746094 186.164062 145.902344 210.488281 151.167969 220.929688 C 143.71875 215.0625 128.863281 204.179688 122.648438 205.566406 C 121.402344 205.84375 120.46875 206.582031 119.949219 207.699219 C 118.046875 211.800781 126.585938 223.179688 141.136719 240.117188 C 102.9375 289.847656 80.191406 352.039062 80.191406 419.453125 C 80.191406 476.578125 96.527344 529.949219 124.75 575.171875 L 124.601562 575.171875 L 125.714844 576.933594 C 175.773438 656.085938 258.621094 705.871094 350.695312 713.375 C 351.628906 713.453125 352.5625 713.53125 353.5 713.597656 C 355.191406 713.71875 356.882812 713.828125 358.578125 713.921875 C 359.792969 713.988281 361.011719 714.042969 362.226562 714.09375 C 363.792969 714.160156 365.355469 714.230469 366.925781 714.273438 C 368.390625 714.3125 369.863281 714.324219 371.332031 714.339844 C 372.574219 714.355469 373.8125 714.398438 375.054688 714.398438 C 376.292969 714.398438 377.523438 714.355469 378.761719 714.339844 C 380.242188 714.324219 381.722656 714.3125 383.199219 714.269531 C 384.753906 714.230469 386.308594 714.160156 387.859375 714.09375 C 389.09375 714.039062 390.328125 713.984375 391.558594 713.917969 C 393.234375 713.824219 394.910156 713.71875 396.582031 713.597656 C 397.550781 713.527344 398.515625 713.449219 399.480469 713.367188 C 491.523438 705.84375 574.355469 656.0625 624.421875 576.933594 L 625.535156 575.171875 L 625.371094 575.171875 C 653.589844 529.945312 669.929688 476.574219 669.929688 419.453125 Z M 325.617188 203.675781 C 325.617188 199.847656 324.8125 196.28125 323.4375 193.238281 C 323.441406 193.238281 323.449219 193.242188 323.453125 193.242188 C 329.203125 193.242188 334.46875 190.980469 338.558594 187.230469 C 339.679688 190.152344 342.570312 192.460938 346.234375 192.929688 C 351.300781 193.578125 355.871094 190.480469 356.441406 186.015625 C 356.503906 185.542969 356.769531 183.453125 356.929688 182.199219 C 357.882812 182.839844 358.769531 183.539062 359.558594 184.328125 C 362.398438 187.175781 363.722656 190.613281 363.285156 194.019531 L 365.5625 194.3125 C 366.089844 190.1875 364.53125 186.070312 361.183594 182.714844 C 357.910156 179.429688 353.292969 177.265625 348.179688 176.609375 C 347.285156 176.496094 346.398438 176.449219 345.515625 176.433594 C 346.382812 173.886719 346.894531 171.15625 346.984375 168.300781 C 360.628906 169.859375 371.355469 176.105469 371.355469 176.105469 L 372.867188 164.296875 C 367.484375 161.964844 362.617188 160.382812 358.230469 159.339844 C 364.957031 153.734375 369.246094 145.300781 369.246094 135.855469 C 369.246094 134.023438 369.058594 132.238281 368.75 130.496094 C 383.410156 129.789062 395.453125 119.136719 398.230469 105.113281 C 401.5 118.457031 413.503906 128.375 427.855469 128.375 C 428.988281 128.375 430.101562 128.300781 431.203125 128.183594 C 430.566406 130.640625 430.191406 133.199219 430.191406 135.859375 C 430.191406 147.925781 437.207031 158.332031 447.371094 163.292969 C 445.890625 167.109375 444.695312 171.679688 443.984375 176.667969 C 442.035156 190.40625 444.460938 202.179688 449.410156 203.699219 L 448.164062 209.640625 L 450.410156 210.113281 L 451.757812 203.671875 C 455.992188 202.320312 460.296875 194.390625 462.503906 183.871094 C 465.746094 185.039062 468.308594 188.152344 467.648438 193.324219 L 469.921875 193.613281 C 470.773438 186.984375 467.175781 182.964844 462.945312 181.582031 C 463.070312 180.863281 463.1875 180.144531 463.292969 179.410156 C 463.644531 176.945312 463.84375 174.554688 463.921875 172.265625 C 467.324219 172.992188 470.5625 174.757812 472.867188 177.378906 C 475.09375 179.910156 477.566406 184.355469 476.695312 191.148438 C 474.628906 207.320312 461.050781 221.976562 448.910156 220.261719 L 447.972656 220.128906 L 447.664062 221.027344 C 436.8125 253.019531 408.683594 275.363281 379.269531 275.363281 C 376.71875 275.363281 374.136719 275.199219 371.59375 274.875 C 342.503906 271.148438 323.015625 248.1875 315.1875 222.824219 C 321.226562 220.308594 325.617188 212.6875 325.617188 203.675781 Z M 409.128906 311.625 L 409.128906 322.417969 L 376.785156 362.585938 L 340.988281 322.386719 L 340.988281 264.800781 C 346.328125 268.808594 352.308594 272.035156 358.878906 274.265625 Z M 290.949219 167.375 C 292.097656 158.402344 298.027344 153.691406 304.210938 152.527344 C 301.96875 156 300.484375 160.097656 300.035156 164.542969 C 298.664062 165.933594 297.3125 168.109375 296.882812 171.464844 L 299.160156 171.757812 C 299.292969 170.695312 299.585938 169.75 299.949219 168.875 C 300.261719 174.980469 302.5 180.511719 306.023438 184.757812 C 302.503906 186.40625 299.585938 189.785156 297.839844 194.167969 C 292.488281 186.941406 289.78125 176.539062 290.949219 167.375 Z M 296.179688 350.441406 C 312.324219 349.007812 324.988281 335.460938 324.988281 318.941406 C 324.988281 317.324219 324.828125 315.75 324.59375 314.195312 C 330.039062 312.640625 334.878906 309.675781 338.695312 305.707031 L 338.695312 323.257812 L 376.875 366.136719 L 411.425781 323.226562 L 411.425781 280.351562 C 414.371094 285.101562 418.515625 289.023438 423.464844 291.65625 C 422.984375 293.839844 422.71875 296.105469 422.71875 298.433594 C 422.71875 315.90625 436.882812 330.074219 454.355469 330.074219 C 454.40625 330.074219 454.457031 330.066406 454.507812 330.066406 C 456.050781 346.101562 469.550781 358.640625 485.988281 358.640625 C 489.359375 358.640625 492.605469 358.101562 495.652344 357.125 C 500.429688 360.019531 506.007812 361.714844 512 361.714844 C 523.960938 361.714844 534.363281 355.070312 539.742188 345.277344 C 571.941406 387.441406 583.988281 523.851562 587.449219 575.171875 L 514.542969 575.171875 L 514.542969 525.820312 C 517.914062 522.011719 546.113281 487.863281 526.730469 432.300781 L 524.566406 433.054688 C 544.566406 490.394531 512.890625 524.246094 512.570312 524.582031 L 512.246094 524.917969 L 512.246094 575.171875 L 504.542969 575.171875 L 479.171875 532.78125 L 478.1875 532.222656 L 342.191406 532.222656 L 341.046875 533.371094 L 341.046875 556.535156 L 329.1875 556.535156 L 328.039062 557.679688 L 328.039062 575.167969 L 306.261719 575.167969 C 315.945312 562.472656 320.085938 545.300781 318.226562 525.132812 C 313.546875 474.402344 298.828125 408.355469 285.566406 363.390625 C 290.171875 360.121094 293.859375 355.660156 296.179688 350.441406 Z M 331.210938 558.832031 L 341.539062 558.832031 L 389.078125 638.253906 L 378.746094 638.253906 Z M 376.949219 639.71875 L 376.949219 659.5625 L 330.332031 581.675781 L 330.332031 561.828125 Z M 343.339844 557.367188 L 343.339844 537.519531 L 389.957031 615.402344 L 389.957031 635.253906 Z M 379.246094 640.546875 L 512.953125 640.546875 L 512.953125 662.5625 L 379.246094 662.5625 Z M 512.074219 638.253906 L 392.246094 638.253906 L 392.246094 616.234375 L 525.953125 616.234375 L 525.953125 638.253906 Z M 391.75 613.9375 L 344.214844 534.515625 L 477.539062 534.515625 L 525.078125 613.9375 Z M 264.058594 314.671875 C 274.976562 322.609375 308.601562 445.742188 315.9375 525.347656 C 317.921875 546.820312 312.957031 564.761719 301.589844 577.226562 C 290.71875 589.148438 274.445312 595.714844 255.765625 595.714844 C 255.761719 595.714844 255.761719 595.714844 255.761719 595.714844 C 233.382812 595.714844 211.1875 586.230469 196.390625 570.339844 C 176.320312 548.785156 168.6875 383.828125 168.691406 356.519531 C 168.691406 349.351562 186.414062 337.21875 212.789062 326.324219 C 231.472656 318.609375 249.539062 313.625 258.820312 313.625 C 261.960938 313.625 263.40625 314.195312 264.058594 314.671875 Z M 212.757812 199.855469 Z M 147.492188 161.933594 C 146.058594 157.828125 147.957031 155.21875 150.027344 154.230469 C 152.507812 153.050781 156.101562 153.625 158.546875 157.578125 C 163.214844 165.113281 183.125 196.84375 187.425781 203.695312 L 171.582031 213.425781 C 170.039062 211.199219 165.917969 205.261719 161.195312 198.542969 C 156.808594 186.996094 149.621094 168.007812 147.492188 161.933594 Z M 185.117188 195.703125 C 185.265625 195.695312 185.410156 195.683594 185.5625 195.679688 C 185.6875 196.136719 185.8125 196.574219 185.933594 197.003906 C 185.667969 196.582031 185.398438 196.152344 185.117188 195.703125 Z M 133.070312 177.726562 C 131.875 174.5 131.980469 172.101562 133.359375 171.296875 C 134.933594 170.375 138.265625 171.449219 141.109375 174.828125 C 146.089844 180.742188 165.683594 208.945312 169.625 214.625 L 155.074219 223.5625 C 151.898438 217.296875 136.242188 186.285156 133.070312 177.726562 Z M 122.03125 208.660156 C 122.25 208.1875 122.59375 207.925781 123.148438 207.800781 C 128.933594 206.492188 147.304688 220.550781 153.882812 226.074219 L 154.734375 225.398438 L 155.207031 226.171875 L 203.378906 196.589844 L 202.179688 194.636719 L 189.800781 202.238281 C 185.347656 186.664062 175.554688 151.042969 176.027344 146.207031 C 176.234375 144.078125 177.761719 142.472656 179.824219 142.210938 C 182.695312 141.851562 186.714844 144.078125 189.398438 151.425781 C 192.71875 160.519531 204.125 184.558594 211.34375 199.550781 C 207.132812 203.257812 186 223.875 198.664062 254.339844 L 200.785156 253.460938 C 188.929688 224.945312 207.511719 205.996094 212.375 201.679688 C 215.371094 207.886719 217.441406 212.109375 217.507812 212.25 L 219.667969 211.941406 C 221.648438 200.511719 229.089844 171.511719 240.035156 170.960938 C 241.101562 176.730469 246.546875 209.730469 239.890625 249.457031 L 239.902344 249.902344 C 240.027344 250.445312 246.652344 279.558594 253.679688 311.710938 C 243.453125 313 227.878906 317.613281 211.914062 324.207031 C 202.621094 328.042969 193.066406 332.625 185.121094 337.390625 C 185.035156 335.535156 184.949219 333.683594 184.863281 331.875 C 183.757812 308.011719 182.878906 289.160156 179.144531 281.925781 C 176.609375 277.019531 166.984375 266.101562 155.835938 253.464844 C 141.59375 237.308594 120.066406 212.898438 122.03125 208.660156 Z M 82.484375 419.453125 C 82.484375 352.734375 104.9375 291.171875 142.664062 241.890625 C 146.179688 245.960938 150.011719 250.328125 154.117188 254.980469 C 164.699219 266.984375 174.699219 278.324219 177.105469 282.980469 C 180.613281 289.765625 181.523438 309.332031 182.574219 331.984375 C 182.675781 334.203125 182.78125 336.464844 182.890625 338.757812 C 173.191406 344.855469 166.394531 351.164062 166.394531 356.523438 C 166.394531 374.527344 172.921875 548.511719 194.710938 571.902344 C 195.757812 573.027344 196.847656 574.109375 197.960938 575.167969 L 127.453125 575.167969 C 98.984375 530.042969 82.484375 476.644531 82.484375 419.453125 Z M 375.054688 712.105469 C 274.847656 712.105469 182.941406 661.8125 128.773438 577.464844 L 200.480469 577.464844 C 215.390625 590.433594 235.503906 598.011719 255.761719 598.011719 C 255.761719 598.011719 255.761719 598.011719 255.765625 598.011719 C 275.097656 598.011719 291.976562 591.179688 303.285156 578.773438 C 303.671875 578.351562 304.035156 577.902344 304.40625 577.464844 L 328.039062 577.464844 L 328.039062 588.878906 L 328.203125 589.46875 L 377.113281 671.183594 L 378.097656 671.742188 L 514.097656 671.742188 L 515.246094 670.59375 L 515.246094 640.550781 L 527.101562 640.550781 L 528.246094 639.402344 L 528.246094 615.089844 L 528.085938 614.5 L 505.917969 577.464844 L 621.359375 577.464844 C 567.167969 661.8125 475.25 712.105469 375.054688 712.105469 Z M 622.664062 575.167969 L 589.796875 575.167969 C 586.433594 523.289062 574.488281 385.222656 540.863281 342.976562 C 542.632812 339.035156 543.632812 334.671875 543.632812 330.070312 C 543.632812 325.355469 542.574219 320.894531 540.722656 316.871094 C 549.054688 311.171875 554.527344 301.597656 554.527344 290.738281 C 554.527344 280.851562 549.992188 272.03125 542.890625 266.226562 C 546.871094 260.9375 549.257812 254.378906 549.257812 247.246094 C 549.257812 238.371094 545.589844 230.359375 539.707031 224.613281 C 542.203125 220.085938 543.632812 214.886719 543.632812 209.351562 C 543.632812 197 536.542969 186.328125 526.222656 181.117188 C 528.226562 178.324219 529.796875 175.207031 530.8125 171.839844 C 612.953125 223.714844 667.632812 315.3125 667.636719 419.453125 C 667.636719 476.644531 651.132812 530.042969 622.664062 575.167969 Z M 370.160156 684.445312 L 370.160156 684.011719 L 370.164062 684.445312 Z M 372.699219 248.394531 C 374.808594 248.710938 376.882812 248.871094 378.871094 248.871094 L 378.875 248.871094 C 398.585938 248.871094 405.777344 233.234375 405.847656 233.074219 L 407.050781 230.371094 L 404.339844 231.558594 C 404.28125 231.582031 398.164062 234.203125 386.839844 234.203125 C 383.441406 234.203125 379.882812 233.964844 376.257812 233.503906 C 358.179688 231.191406 349.660156 224.613281 349.574219 224.546875 L 347.105469 222.601562 L 347.738281 225.679688 C 347.78125 225.875 352.023438 245.292969 372.699219 248.394531 Z M 375.964844 235.777344 C 379.683594 236.257812 383.34375 236.496094 386.835938 236.496094 C 394.136719 236.496094 399.332031 235.460938 402.308594 234.644531 C 399.535156 238.785156 392.507812 246.574219 378.871094 246.574219 C 376.996094 246.574219 375.035156 246.421875 373.039062 246.121094 C 358.484375 243.941406 352.804688 233.335938 350.867188 228.109375 C 354.765625 230.351562 362.933594 234.113281 375.964844 235.777344 Z M 369.125 219.808594 C 367.953125 217.3125 368.445312 214.042969 370.480469 210.835938 L 380.824219 194.523438 L 382.761719 195.75 L 372.417969 212.0625 C 370.8125 214.597656 370.371094 217.0625 371.203125 218.832031 C 371.824219 220.15625 373.125 220.980469 374.957031 221.214844 L 384.460938 222.429688 L 384.167969 224.707031 L 374.664062 223.488281 C 372.050781 223.15625 370.082031 221.847656 369.125 219.808594 Z M 396.679688 179.34375 L 398.1875 167.535156 C 432.351562 162.234375 443.179688 177.1875 443.179688 177.1875 L 442.113281 185.527344 C 423.136719 171.917969 396.679688 179.34375 396.679688 179.34375 Z M 436.367188 203.375 L 434.089844 203.082031 C 434.671875 198.550781 432.09375 194.164062 427.734375 191.25 C 427.574219 192.503906 427.304688 194.601562 427.246094 195.078125 C 426.671875 199.542969 422.105469 202.636719 417.039062 201.988281 C 411.972656 201.34375 408.328125 197.195312 408.902344 192.730469 C 408.964844 192.242188 409.25 190.003906 409.40625 188.773438 C 408.214844 189.167969 407.074219 189.660156 406.027344 190.277344 C 402.5625 192.316406 400.414062 195.3125 399.980469 198.71875 L 397.707031 198.425781 C 398.234375 194.300781 400.777344 190.703125 404.867188 188.300781 C 408.859375 185.949219 413.867188 185.019531 418.984375 185.667969 C 429.644531 187.035156 437.4375 194.976562 436.367188 203.375 Z M 386.148438 646.355469 L 506.046875 646.355469 L 506.046875 648.648438 L 386.148438 648.648438 Z M 386.148438 654.460938 L 506.046875 654.460938 L 506.046875 656.753906 L 386.148438 656.753906 Z M 399.152344 622.042969 L 519.054688 622.042969 L 519.054688 624.339844 L 399.152344 624.339844 Z M 399.152344 630.148438 L 519.054688 630.148438 L 519.054688 632.441406 L 399.152344 632.441406 Z M 369.542969 664.511719 L 369.394531 664.085938 L 323.769531 587.8125 C 322.207031 585.203125 318.519531 584.265625 315.902344 585.835938 C 314.589844 586.625 313.660156 587.875 313.289062 589.363281 C 312.914062 590.847656 313.144531 592.390625 313.929688 593.703125 L 314.242188 594.222656 C 313.800781 594.820312 313.472656 595.503906 313.289062 596.246094 C 312.914062 597.730469 313.144531 599.273438 313.929688 600.585938 L 359.554688 676.859375 L 369.4375 684.21875 L 370.15625 683.789062 L 370.160156 684.011719 L 370.160156 683.78125 L 371.25 683.128906 L 370.328125 676.796875 L 371.25 676.246094 Z M 360.40625 666.9375 L 315.898438 592.53125 C 315.429688 591.742188 315.289062 590.816406 315.515625 589.925781 C 315.738281 589.03125 316.296875 588.28125 317.082031 587.808594 C 318.675781 586.851562 320.855469 587.417969 321.800781 588.996094 L 366.191406 663.203125 C 364.210938 663.5625 361.847656 664.628906 360.40625 666.9375 Z M 361.9375 668.996094 C 363.121094 666.105469 365.996094 665.484375 367.351562 665.371094 L 368.589844 673.871094 Z M 477.371094 577.128906 L 488.449219 595.640625 L 414.824219 595.640625 L 403.746094 577.128906 Z M 477.371094 577.128906 " fill-opacity="1" fill-rule="nonzero"/></g></svg>