<?xml version="1.0" standalone="no"?>
<!DOCTYPE svg PUBLIC "-//W3C//DTD SVG 20010904//EN"
 "http://www.w3.org/TR/2001/REC-SVG-20010904/DTD/svg10.dtd">
<svg version="1.0" xmlns="http://www.w3.org/2000/svg"
 width="558.000000pt" height="447.000000pt" viewBox="0 0 558.000000 447.000000"
 preserveAspectRatio="xMidYMid meet">

<g transform="translate(0.000000,447.000000) scale(0.100000,-0.100000)"
fill="#000000" stroke="none">
<path d="M2890 3078 c-53 -27 -82 -72 -107 -170 -10 -38 -20 -68 -23 -68 -3 0
-27 18 -54 40 -26 22 -51 40 -55 40 -3 0 8 -12 24 -26 33 -28 31 -28 -38 4
-178 85 -276 -2 -307 -273 -5 -49 -10 -95 -10 -102 0 -7 -6 -10 -14 -7 -23 9
-74 -24 -101 -64 -27 -41 -59 -163 -50 -191 4 -14 -6 -21 -57 -35 -141 -39
-188 -170 -81 -224 l36 -19 -39 -27 c-41 -28 -82 -33 -117 -15 -21 11 -21 10
2 -15 15 -16 35 -26 52 -26 l28 0 -21 -47 c-46 -102 -21 -234 58 -303 44 -38
174 -104 184 -93 4 4 22 42 40 83 69 160 116 212 228 253 101 37 215 62 220
49 9 -28 51 -79 81 -99 43 -29 139 -32 191 -5 31 15 71 62 83 95 5 16 193 -31
278 -69 70 -32 115 -82 181 -201 l40 -73 51 27 c111 61 187 169 173 247 -4 18
-18 50 -31 70 l-24 36 28 0 c16 0 39 9 52 20 l24 20 -32 -6 c-18 -4 -40 -3
-49 0 -15 6 -11 13 24 49 22 23 46 55 51 70 11 28 14 105 4 79 -3 -9 -12 -3
-24 18 -21 34 -88 69 -132 70 -25 0 -27 2 -20 28 5 15 8 59 8 97 0 60 -5 81
-33 135 -34 70 -90 136 -118 142 -10 2 -29 30 -47 73 -67 158 -144 235 -236
235 l-46 1 24 19 c15 13 38 20 65 20 38 1 40 2 22 15 -29 22 -74 18 -122 -10
l-43 -25 -33 67 c-51 104 -108 131 -188 91z"/>
<path d="M2405 2948 c-27 -21 -75 -109 -75 -138 0 -8 11 12 25 44 35 86 53
100 133 107 l67 6 -61 1 c-49 2 -67 -2 -89 -20z"/>
<path d="M2591 2946 c2 -2 15 -9 29 -15 24 -11 24 -11 6 3 -16 13 -49 24 -35
12z"/>
<path d="M2322 2770 c0 -14 2 -19 5 -12 2 6 2 18 0 25 -3 6 -5 1 -5 -13z"/>
<path d="M2313 2690 c0 -25 2 -35 4 -22 2 12 2 32 0 45 -2 12 -4 2 -4 -23z"/>
<path d="M2300 2582 c0 -7 -17 -13 -37 -14 l-38 -1 34 -4 c33 -4 61 10 48 24
-4 3 -7 1 -7 -5z"/>
<path d="M3576 2548 c36 -25 57 -49 81 -96 18 -35 33 -58 33 -50 0 29 -63 120
-102 148 -22 17 -45 30 -51 30 -5 0 13 -15 39 -32z"/>
<path d="M2184 2544 c-18 -14 -18 -14 6 -3 31 14 36 19 24 19 -6 0 -19 -7 -30
-16z"/>
<path d="M2150 2499 c-6 -11 -10 -25 -8 -30 2 -5 8 4 15 21 13 34 9 40 -7 9z"/>
<path d="M2133 2410 c0 -25 2 -35 4 -22 2 12 2 32 0 45 -2 12 -4 2 -4 -23z"/>
<path d="M3692 2360 c0 -14 2 -19 5 -12 2 6 2 18 0 25 -3 6 -5 1 -5 -13z"/>
<path d="M2141 2324 c0 -11 3 -14 6 -6 3 7 2 16 -1 19 -3 4 -6 -2 -5 -13z"/>
<path d="M3690 2236 c0 -8 4 -17 9 -20 5 -4 7 3 4 14 -6 23 -13 26 -13 6z"/>
<path d="M3747 2190 c17 -10 39 -32 47 -47 8 -15 15 -22 16 -14 0 17 -64 81
-81 81 -8 0 0 -9 18 -20z"/>
<path d="M4290 1303 c-43 -14 -44 -16 -15 -23 45 -11 293 -11 300 -1 10 17
-68 31 -170 30 -55 0 -107 -3 -115 -6z m30 -13 c0 -5 -4 -10 -10 -10 -5 0 -10
5 -10 10 0 6 5 10 10 10 6 0 10 -4 10 -10z"/>
<path d="M1186 1174 c-56 -44 -62 -47 -126 -48 -44 -1 -75 -7 -92 -18 -22 -14
-32 -15 -58 -7 -17 6 -34 9 -37 6 -3 -3 6 -9 20 -12 25 -7 25 -7 12 -62 -7
-30 -10 -63 -8 -74 5 -18 7 -17 35 6 37 31 49 31 85 1 18 -15 35 -21 46 -17
10 4 17 10 15 13 -5 10 52 58 69 58 10 0 34 -12 56 -27 32 -22 37 -31 32 -52
-6 -25 -38 -56 -43 -42 -1 5 -14 6 -27 3 -44 -8 -16 -21 38 -17 28 3 66 1 82
-4 26 -8 21 -10 -35 -11 -64 -2 -64 -2 -22 -11 23 -4 47 -11 52 -14 5 -3 21
-3 35 1 15 4 22 9 17 13 -5 3 6 14 25 24 l35 18 -6 -27 c-7 -25 -6 -26 10 -13
10 8 15 9 12 4 -10 -17 9 -40 34 -40 13 -1 31 8 41 19 18 20 18 19 16 -22 -2
-26 -8 -42 -16 -42 -15 0 -26 -37 -27 -96 0 -24 -4 -44 -8 -44 -4 0 -8 5 -8
11 0 6 -8 3 -17 -7 -17 -16 -18 -16 -21 -1 -2 10 -13 17 -27 17 -16 0 -29 11
-43 34 -11 19 -30 39 -41 46 -28 14 -27 3 2 -21 21 -18 21 -19 1 -11 -12 4
-34 22 -49 40 -15 18 -52 49 -81 67 -30 19 -54 39 -54 44 0 5 -3 18 -6 28 -6
17 -6 17 8 0 13 -18 14 -17 14 2 0 11 -3 19 -6 19 -19 -2 -30 3 -25 12 3 6 -5
10 -19 10 -19 0 -24 -4 -19 -16 3 -8 -4 -25 -17 -40 -13 -13 -18 -24 -12 -24
19 0 14 -28 -7 -35 -23 -7 -59 -45 -42 -45 6 0 14 6 17 14 8 21 34 29 34 10 0
-8 -12 -19 -27 -25 -22 -8 -25 -12 -13 -20 12 -8 9 -10 -11 -7 -24 4 -25 3
-15 -19 6 -13 17 -21 24 -18 16 6 35 -38 37 -87 1 -27 -2 -35 -10 -28 -7 6
-25 6 -46 0 -19 -4 -67 -14 -107 -20 -87 -14 -123 -38 -104 -69 12 -20 10 -21
-38 -21 -37 0 -52 -4 -58 -17 -16 -30 -36 -183 -25 -194 5 -5 854 -8 2209 -7
l2199 3 -3 56 c-2 31 -8 78 -15 105 l-12 49 -115 3 c-63 1 -119 7 -124 12 -6
6 -97 10 -216 10 -216 1 -505 14 -530 25 -25 10 -52 54 -57 94 -4 30 0 43 23
70 l28 34 96 -6 c52 -3 207 -20 344 -37 136 -17 256 -30 265 -28 17 4 -669 99
-708 98 -14 0 -39 -16 -62 -39 -32 -32 -39 -46 -39 -77 0 -46 32 -122 55 -130
8 -3 15 -9 15 -13 0 -4 -451 -7 -1002 -6 l-1003 0 0 100 c0 98 -1 102 -42 182
-47 90 -81 123 -164 159 -67 29 -166 31 -289 7 -47 -9 -105 -17 -130 -17 -44
-1 -45 0 -70 49 -36 72 -59 103 -81 110 -10 4 -19 14 -20 23 0 11 -2 12 -6 4
-2 -6 -9 -10 -13 -7 -13 8 26 70 62 100 52 44 15 27 -46 -21z m443 -274 c-10
-21 -19 -44 -19 -49 0 -6 -9 -15 -19 -21 -29 -15 -39 -12 -15 5 19 13 31 34
48 88 3 9 10 17 15 17 5 0 1 -18 -10 -40z m31 -40 c0 -5 -2 -10 -4 -10 -3 0
-8 5 -11 10 -3 6 -1 10 4 10 6 0 11 -4 11 -10z m82 -26 c-5 -9 -7 -24 -5 -34
2 -9 -3 -23 -12 -30 -14 -12 -18 -12 -27 1 -8 12 -9 12 -5 -1 2 -8 11 -15 18
-14 9 1 14 -9 14 -25 0 -19 6 -27 23 -29 19 -3 22 -9 22 -53 0 -27 -4 -49 -9
-49 -5 0 -17 -3 -27 -7 -12 -4 -15 -3 -10 5 4 7 1 12 -8 12 -9 0 -16 5 -16 10
0 6 -4 10 -8 10 -5 0 -8 -20 -8 -45 1 -25 -2 -45 -6 -45 -9 0 -12 22 -9 62 2
19 -4 28 -19 33 -34 11 -45 -8 -26 -46 19 -38 19 -39 6 -39 -5 0 -9 3 -8 8 1
4 -3 16 -9 27 -19 35 -25 83 -14 117 28 92 39 113 61 111 12 -2 19 1 15 7 -3
6 1 10 10 10 13 0 14 -4 4 -22 -12 -22 -11 -22 7 -8 10 8 25 23 32 33 17 22
26 22 14 1z m42 -48 c-9 -7 -14 -18 -11 -24 5 -6 0 -8 -13 -5 -24 6 -27 23 -4
23 9 0 12 5 8 12 -4 7 -3 8 4 4 7 -4 12 -2 12 4 0 6 5 8 11 5 6 -5 4 -11 -7
-19z m2241 -56 c-3 -5 -11 -10 -16 -10 -6 0 -7 5 -4 10 3 6 11 10 16 10 6 0 7
-4 4 -10z m-2865 -76 c0 -8 -4 -12 -10 -9 -5 3 -10 13 -10 21 0 8 5 12 10 9 6
-3 10 -13 10 -21z m2789 -6 c-5 -39 3 -77 21 -96 26 -28 26 -51 0 -27 -11 10
-18 20 -15 23 2 3 -2 14 -10 26 -17 24 -20 86 -5 86 6 0 10 -6 9 -12z m-2759
-27 c0 -27 -10 -51 -22 -51 -6 0 -8 7 -4 15 3 10 -1 15 -12 15 -15 0 -15 2 -2
10 13 9 13 10 0 11 -10 0 -8 3 5 9 30 13 35 12 35 -9z m450 -1 c0 -5 -4 -10
-10 -10 -5 0 -10 5 -10 10 0 6 5 10 10 10 6 0 10 -4 10 -10z m-212 -47 c-10
-2 -26 -2 -35 0 -10 3 -2 5 17 5 19 0 27 -2 18 -5z m-178 -37 c-1 -6 -6 -24
-13 -40 l-12 -28 -14 37 c-11 30 -11 39 -1 45 16 10 40 2 40 -14z m260 -12 c0
-2 -9 -4 -20 -4 -11 0 -20 4 -20 9 0 5 9 7 20 4 11 -3 20 -7 20 -9z m-386 -30
c3 -8 2 -12 -4 -9 -6 3 -10 10 -10 16 0 14 7 11 14 -7z m-229 -34 c3 -5 1 -10
-4 -10 -6 0 -11 5 -11 10 0 6 2 10 4 10 3 0 8 -4 11 -10z m615 -33 c0 -5 -4
-5 -10 -2 -5 3 -10 14 -10 23 0 15 2 15 10 2 5 -8 10 -19 10 -23z m154 -17
c-6 -6 -10 -3 -10 10 0 13 4 16 10 10 7 -7 7 -13 0 -20z m-169 -20 c3 -5 1
-10 -4 -10 -6 0 -11 5 -11 10 0 6 2 10 4 10 3 0 8 -4 11 -10z m182 -27 c-3
-10 -5 -4 -5 12 0 17 2 24 5 18 2 -7 2 -21 0 -30z m-21 7 c0 -11 -4 -20 -8
-20 -10 0 -11 24 -1 33 9 9 9 10 9 -13z"/>
<path d="M3578 1208 c-11 -10 -24 -74 -47 -243 -17 -126 -31 -236 -31 -243 0
-18 110 41 162 88 l41 36 -22 100 c-26 109 -69 255 -80 267 -4 4 -14 1 -23 -5z"/>
<path d="M2161 1178 c-26 -81 -71 -276 -71 -310 0 -33 6 -42 53 -79 58 -46
113 -76 123 -66 9 8 -56 459 -68 475 -16 19 -26 14 -37 -20z"/>
<path d="M805 1120 c28 -12 37 -12 30 0 -3 6 -16 10 -28 9 -21 0 -21 -1 -2 -9z"/>
<path d="M1133 970 c-10 -15 -10 -22 3 -35 21 -20 31 -19 44 6 21 39 -24 67
-47 29z"/>
<path d="M953 941 c-15 -24 6 -57 31 -48 23 9 31 34 16 52 -17 20 -33 19 -47
-4z"/>
<path d="M881 883 c3 -31 -1 -38 -12 -23 -9 13 -10 13 -6 0 2 -8 9 -15 15 -14
7 1 28 2 47 3 l34 1 -23 25 c-27 29 -58 33 -55 8z m34 -3 c3 -5 1 -10 -4 -10
-6 0 -11 5 -11 10 0 6 2 10 4 10 3 0 8 -4 11 -10z"/>
<path d="M988 863 c7 -3 16 -2 19 1 4 3 -2 6 -13 5 -11 0 -14 -3 -6 -6z"/>
<path d="M920 830 c-11 -8 -7 -9 15 -4 37 8 45 14 19 14 -10 0 -26 -5 -34 -10z"/>
<path d="M1190 829 c0 -6 7 -9 14 -6 11 4 13 1 9 -10 -7 -17 -7 -17 56 3 10 3
24 -1 32 -8 8 -8 27 -15 43 -16 38 -3 32 2 -34 27 -60 23 -120 28 -120 10z"/>
<path d="M4758 643 c7 -3 16 -2 19 1 4 3 -2 6 -13 5 -11 0 -14 -3 -6 -6z"/>
</g>
</svg>
