<?xml version="1.0" encoding="utf-8"?>
<!-- Generator: Adobe Illustrator 23.0.1, SVG Export Plug-In . SVG Version: 6.00 Build 0)  -->
<svg version="1.1" id="Camada_1" xmlns="http://www.w3.org/2000/svg" xmlns:xlink="http://www.w3.org/1999/xlink" x="0px" y="0px"
	 viewBox="0 0 1487 1901" style="enable-background:new 0 0 1487 1901;" xml:space="preserve">
<style type="text/css">
	.st0{fill:#E5965C;}
	.st1{fill:none;stroke:#9B736E;stroke-miterlimit:10;}
	.st2{fill:#39101C;}
	.st3{fill:#35171E;}
	.st4{fill:#864A40;stroke:#010800;stroke-miterlimit:10;}
	.st5{fill:#6C3429;}
	.st6{fill:none;stroke:#060D05;stroke-width:9;stroke-miterlimit:10;}
	.st7{fill:none;stroke:#000000;stroke-miterlimit:10;}
	.st8{fill:#FF5D5D;}
	.st9{fill:#4A503D;}
	.st10{fill:#877B84;}
	.st11{fill:#D7EAEA;}
	.st12{fill:#6D3949;}
	.st13{fill:#FFFFFF;}
	.st14{fill:#3A1919;}
	.st15{fill:#290505;}
	.st16{fill:#D1993F;stroke:#000000;stroke-miterlimit:10;}
	.st17{fill:#4B1E19;}
	.st18{fill:#0A0504;}
	.st19{stroke:#000000;stroke-miterlimit:10;}
</style>
<ellipse class="st0" cx="746" cy="926.99" rx="724" ry="812.81"/>
<g>
	<g>
		<path class="st1" d="M485.29,310.53"/>
	</g>
</g>
<path class="st2" d="M877.96,1035.49c0,0,71.9,50.26,86.28-23.45c0,0,83.88,5.58,56.32-52.49c0,0,89.88,3.35,65.91-63.66
	c0,0,27.3-31.27,4.06-110.57c0,0,27.09,1.12,19.9-67.01c0,0,43.14,35.74,64.71-15.64c0,0,128.22,2.23,107.85-109.45
	c0,0,93.06-23.45,2.19-112.8c0,0,42.15-48.02-26.16-63.66c0,0-2.4-108.33-116.24-74.83c0,0-59.92-56.96-110.25,1.12
	c0,0-19.17-16.75-32.36,7.82c0,0-71.9-30.15-86.28,55.84c0,0-20.37-44.67-97.07-16.75c0,0-61.12-29.04-91.07,16.75
	c0,0-53.93-61.43-109.05-6.7c0,0-33.55-7.82-38.35,0c0,0-2.4-63.66-79.09-45.79c0,0-43.14-115.03-173.76-15.64
	c0,0-167.77,51.37-39.55,185.4c0,0-130.11-5.58-48.28,126.2c0,0,6.33,31.27,36.29,16.75c0,0-41.94,92.7,79.09,64.78
	c0,0-13.18,30.15,19.17,30.15c0,0-26.36,43.56,11.98,64.78c0,0-9.59,109.45,76.69,123.97c0,0-35.95,30.15,13.18,58.08
	c0,0,10.79,41.32,45.54,24.57c0,0,14.38,42.44,46.74,41.32c32.36-1.12,32.36-1.12,32.36-1.12l0,0
	C598.75,1073.46,716.19,1180.68,877.96,1035.49z"/>
<path class="st3" d="M1032.94,870.07"/>
<path class="st4" d="M328.24,1547.46c0,0-83.22-269.9,136.48-381.59c0,0,89.34-9.31,169.63,20.85v-88.23
	c0,0,173.76,51.37,240.87-71.48l7.19,123.97c0,0,32.36,94.93,89.88,97.17c0,0,171.36,83.76,203.72,157.47
	c0,0,43.14,79.3,28.76,137.37c0,0-296.95,266.93-575.21,170.88C629.56,1713.87,400.81,1701.59,328.24,1547.46z"/>
<path class="st5" d="M637.68,1186.72c0,0,193.73,69.99,236.07-78.92v-67.76c0,0-50.36,96.79-231.29,65.52L637.68,1186.72z"/>
<g>
	<g>
		<path class="st6" d="M700.26,524.06"/>
	</g>
</g>
<path class="st7" d="M514.52,1362.81"/>
<g>
	<path class="st8" d="M977.38,1243.87c-14.18,12.94-31.59,31.42-47.33,56.12c-18.61,29.19-28.13,56.44-33.25,76.22
		c0,0-14.38,11.17,141.4,67.01c30.76-32.39,61.51-64.78,92.27-97.17"/>
	<path d="M977.41,1243.9c-19.15,17.84-36.06,38.12-49.62,60.49c-3.38,5.6-6.59,11.29-9.62,17.08c-3,5.81-5.81,11.72-8.39,17.72
		c-5.17,12.01-9.43,24.42-12.77,37.07l-0.02,0.06l-0.07,0.06c-0.19,0.19-0.3,0.59-0.24,0.95c0.03,0.37,0.17,0.75,0.35,1.1
		c0.15,0.37,0.41,0.69,0.62,1.03l0.77,0.95c1.08,1.23,2.36,2.28,3.63,3.32c2.59,2.04,5.38,3.83,8.2,5.55
		c5.66,3.42,11.57,6.42,17.51,9.32c11.9,5.79,24.08,10.99,36.33,16.01c12.25,5.01,24.61,9.75,36.99,14.45
		c12.38,4.7,24.82,9.21,37.28,13.7l-0.51,0.12l23.05-24.3c7.67-8.12,15.42-16.16,23.13-24.23l23.17-24.2l23.23-24.14l0.07,0.07
		l-22.91,24.44l-22.97,24.39c-7.66,8.12-15.29,16.28-23,24.35l-23.08,24.28l-0.21,0.23l-0.29-0.11c-12.45-4.5-24.9-9.03-37.28-13.75
		c-12.38-4.71-24.69-9.61-36.91-14.7c-12.21-5.13-24.38-10.38-36.26-16.25c-5.94-2.92-11.81-6.01-17.5-9.4
		c-2.84-1.71-5.65-3.48-8.28-5.52c-1.29-1.04-2.59-2.1-3.71-3.35c-0.27-0.32-0.53-0.65-0.8-0.98c-0.22-0.36-0.5-0.69-0.66-1.09
		c-0.19-0.38-0.36-0.8-0.4-1.25c-0.05-0.45,0-0.95,0.41-1.35l-0.08,0.12c3.25-12.7,7.44-25.16,12.55-37.23
		c5.1-12.08,11.05-23.81,17.97-34.96c6.87-11.17,14.58-21.82,22.97-31.89c4.21-5.03,8.56-9.93,13.12-14.63
		c4.57-4.7,9.3-9.24,14.16-13.62L977.41,1243.9z"/>
</g>
<g>
	<path d="M917.12,1379.55c1.89-5.23,3.91-10.42,5.98-15.58c2.13-5.14,4.35-10.24,6.65-15.32c4.61-10.13,9.67-20.07,15.11-29.8
		c5.59-9.64,11.52-19.13,18.53-27.84c3.5-4.35,7.27-8.51,11.46-12.22c4.22-3.64,8.91-6.91,14.2-8.72l0.03,0.09
		c-5.22,1.94-9.78,5.3-13.88,9.02c-4.1,3.75-7.79,7.93-11.21,12.31c-6.85,8.76-12.76,18.21-18.27,27.86
		c-5.49,9.67-10.54,19.58-15.27,29.64c-4.73,10.06-9.18,20.26-13.25,30.6L917.12,1379.55z"/>
</g>
<g>
	<path d="M1019.59,1434.23c3.75-11.04,8.43-21.73,13.58-32.19c2.54-5.25,5.35-10.36,8.17-15.47c2.87-5.08,5.93-10.06,9.07-14.99
		c6.43-9.76,13.39-19.27,21.61-27.73c4.09-4.23,8.47-8.23,13.31-11.64c4.85-3.35,10.17-6.25,15.92-7.51l0.09,0.29
		c-5.51,1.78-10.49,4.91-15.03,8.47c-4.56,3.57-8.66,7.7-12.55,11.98c-3.88,4.3-7.53,8.81-10.96,13.48
		c-3.44,4.66-6.75,9.42-9.88,14.3c-6.34,9.71-12.16,19.75-17.67,29.95c-5.47,10.22-10.66,20.61-15.39,31.19L1019.59,1434.23z"/>
</g>
<g>
	<path class="st8" d="M455.8,1371.56c-75.5,109.27-94.67,187.81-94.67,187.81s-13.78,26.87-8.99,27.4
		c0,0,201.22,200.44,544.3,125.61l7.31-29.78c18.66-18.73,23.1-141.61,23.1-141.61l5.89-33.94l-47.03-14.7
		c-5.09-17.87-371.19-129.55-371.19-129.55"/>
	<path d="M455.84,1371.59c-9.96,14.51-19.5,29.31-28.57,44.38c-9.08,15.07-17.7,30.42-25.78,46.05
		c-8.07,15.63-15.59,31.55-22.39,47.77c-3.4,8.11-6.63,16.3-9.6,24.57c-2.96,8.27-5.77,16.63-8,25.11l-0.01,0.05l-0.02,0.04
		c-2.24,4.44-4.36,8.94-6.28,13.52c-0.95,2.29-1.86,4.6-2.61,6.96c-0.37,1.18-0.7,2.37-0.9,3.56c-0.1,0.59-0.16,1.2-0.11,1.76
		c0.03,0.27,0.08,0.54,0.19,0.72c0.11,0.18,0.23,0.27,0.44,0.29l0.14,0.02l0.1,0.1c4.32,4.18,8.89,8.13,13.51,12
		c4.63,3.87,9.35,7.62,14.15,11.28c9.6,7.31,19.45,14.29,29.53,20.93c20.18,13.24,41.19,25.21,62.87,35.82
		c21.67,10.62,43.98,19.97,66.78,27.9c11.4,3.98,22.91,7.62,34.52,10.94c11.62,3.28,23.33,6.22,35.11,8.85
		c23.58,5.21,47.46,9.04,71.48,11.49c24.03,2.35,48.19,3.47,72.33,3.12c12.07-0.08,24.14-0.68,36.19-1.38
		c12.04-0.88,24.07-1.88,36.06-3.36c23.98-2.85,47.81-6.9,71.39-12.04l-0.27,0.27l7.27-29.78l0.03-0.1l0.08-0.08
		c2.04-2.12,3.46-4.8,4.69-7.51c1.22-2.73,2.21-5.57,3.1-8.44c1.77-5.74,3.11-11.62,4.28-17.53c2.32-11.82,3.98-23.77,5.38-35.74
		c1.38-11.98,2.46-23.99,3.36-36.01c0.89-12.02,1.61-24.07,2.1-36.11l0-0.03l0.01-0.03l5.89-33.94l0.33,0.53l-47.03-14.69
		l-0.24-0.07l-0.08-0.25c-0.24-0.74-1.05-1.46-1.8-2.07c-0.78-0.62-1.62-1.19-2.48-1.73c-1.72-1.07-3.52-2.05-5.34-2.98
		c-3.64-1.86-7.37-3.56-11.12-5.21c-7.51-3.28-15.13-6.32-22.78-9.29c-15.31-5.92-30.75-11.49-46.23-16.95
		c-30.96-10.93-62.08-21.39-93.27-31.66c-31.19-10.27-62.44-20.33-93.74-30.27c-31.3-9.91-62.61-19.8-93.99-29.48l0.03-0.1
		c31.42,9.55,62.8,19.22,94.12,29.09c31.32,9.86,62.6,19.84,93.82,30.03c31.21,10.2,62.37,20.56,93.36,31.45
		c15.48,5.47,30.93,11.05,46.25,16.98c7.66,2.97,15.29,6.02,22.82,9.31c3.76,1.65,7.51,3.36,11.18,5.24
		c1.83,0.94,3.65,1.92,5.41,3.02c0.88,0.55,1.75,1.13,2.57,1.79c0.41,0.33,0.81,0.68,1.19,1.08c0.37,0.4,0.74,0.85,0.94,1.48
		l-0.32-0.33l47.03,14.71l0.4,0.12l-0.07,0.41l-5.9,33.93l0.01-0.06c-0.49,12.06-1.22,24.11-2.11,36.15
		c-0.9,12.03-1.99,24.06-3.38,36.05c-1.4,11.99-3.05,23.96-5.41,35.81c-1.19,5.92-2.55,11.82-4.35,17.6
		c-0.91,2.89-1.91,5.75-3.16,8.53c-1.27,2.75-2.71,5.49-4.88,7.74l0.1-0.19l-7.35,29.77l-0.05,0.22l-0.22,0.05
		c-23.62,5.1-47.48,9.09-71.48,11.89c-11.99,1.46-24.04,2.45-36.09,3.31c-12.06,0.68-24.13,1.26-36.21,1.32
		c-48.32,0.55-96.7-4.31-143.91-14.63c-11.8-2.61-23.53-5.52-35.16-8.78c-11.62-3.3-23.15-6.92-34.57-10.88
		c-22.84-7.89-45.19-17.21-66.91-27.8c-21.73-10.59-42.79-22.53-63.03-35.76c-10.1-6.64-20.01-13.58-29.6-20.93
		c-4.8-3.67-9.53-7.45-14.16-11.33c-4.63-3.89-9.19-7.85-13.54-12.08l0.24,0.12c-0.42-0.03-0.87-0.33-1.06-0.69
		c-0.2-0.36-0.26-0.72-0.3-1.06c-0.05-0.68,0.02-1.33,0.13-1.96c0.22-1.26,0.56-2.47,0.94-3.67c0.77-2.39,1.69-4.72,2.65-7.02
		c1.95-4.6,4.08-9.11,6.33-13.56l-0.03,0.08c2.26-8.54,5.09-16.88,8.07-25.17c3-8.28,6.25-16.47,9.67-24.58
		c6.84-16.23,14.4-32.14,22.51-47.77c4.04-7.82,8.27-15.54,12.56-23.23c4.35-7.65,8.77-15.26,13.38-22.77
		c9.16-15.03,18.78-29.78,28.81-44.24L455.84,1371.59z"/>
</g>
<g>
	<path class="st9" d="M799.33,1686.32v-119.13l-284.81-113.17c-69.1,25.32-81.09,156.36-81.09,156.36l-5.76,23.78
		c0,0,221.32,105.43,371.66,79.93V1686.32z"/>
	<path d="M799.23,1686.32l-0.14-59.56l-0.35-59.56l0.37,0.55c-23.8-9.26-47.55-18.66-71.31-28.03l-71.16-28.39l-71.08-28.6
		l-71.16-28.4l0.23,0c-7.15,2.69-13.86,6.5-19.85,11.24c-6.01,4.72-11.36,10.24-16.11,16.22c-9.51,12-16.74,25.65-22.62,39.76
		c-5.85,14.15-10.34,28.84-13.92,43.72c-1.79,7.44-3.34,14.94-4.66,22.48c-1.31,7.54-2.45,15.13-3.2,22.71l-0.01,0.06l-0.01,0.06
		l-5.7,23.8l-0.49-1.04c14.51,6.73,29.3,12.96,44.16,18.93c14.87,5.96,29.87,11.62,44.97,16.96c30.19,10.72,60.82,20.27,91.88,28.11
		c31.05,7.86,62.54,14.12,94.39,17.65c15.92,1.73,31.93,2.76,47.96,2.71c16.02,0.02,32.05-1.18,47.87-3.77l-0.14,0.16
		L799.23,1686.32z M799.43,1686.32l0.07,27.76l0,0.14l-0.14,0.02c-31.69,5.3-64.08,5.05-96.01,1.97
		c-15.98-1.55-31.89-3.84-47.69-6.73c-15.79-2.9-31.5-6.28-47.07-10.2c-31.15-7.82-61.84-17.35-92.1-28.07
		c-15.12-5.4-30.12-11.11-45-17.13c-14.88-6.03-29.65-12.3-44.21-19.11l-0.67-0.31l0.18-0.72l5.83-23.77l-0.02,0.12
		c0.81-7.68,2.01-15.26,3.37-22.83c1.38-7.56,2.98-15.08,4.83-22.54c3.7-14.91,8.31-29.63,14.27-43.81
		c5.98-14.15,13.31-27.84,22.94-39.88c4.81-6.01,10.23-11.55,16.32-16.28c6.06-4.76,12.86-8.57,20.09-11.25l0.12-0.04l0.12,0.05
		l71.25,28.18l71.32,27.98l71.24,28.2c23.71,9.49,47.43,18.96,71.1,28.56l0.38,0.15l0,0.4l-0.35,59.56L799.43,1686.32z"/>
</g>
<g>
	<path class="st8" d="M627.16,1177.79c0,0-57.52,92.33-51.53,106.29l-124.63-3.91c0,0-14.98-78.74,35.95-122.29"/>
	<path d="M627.21,1177.81c-5.15,8.49-10.14,17.08-15.13,25.66c-4.97,8.6-9.84,17.25-14.54,26c-2.35,4.37-4.65,8.77-6.9,13.19
		c-2.26,4.42-4.48,8.85-6.57,13.35c-2.09,4.5-4.08,9.04-5.77,13.7c-0.84,2.33-1.6,4.68-2.17,7.08c-0.26,1.2-0.51,2.41-0.6,3.63
		c-0.08,1.21-0.07,2.45,0.35,3.54l0.16,0.41l-0.43-0.02l-31.15-1.11l-31.16-0.88l-62.32-1.72l-0.4-0.01l-0.06-0.39
		c-1.84-11-2.36-22.14-1.96-33.25c0.42-11.1,1.81-22.2,4.6-32.97c1.34-5.39,3.09-10.69,5.16-15.85c0.54-1.28,1-2.59,1.61-3.85
		l1.75-3.79c0.61-1.25,1.28-2.47,1.91-3.7c0.33-0.61,0.64-1.24,0.98-1.84l1.06-1.79c5.54-9.64,12.87-18.2,21.3-25.39l0.07,0.08
		c-8.28,7.35-15.41,15.99-20.86,25.61l-1.04,1.79c-0.33,0.61-0.63,1.23-0.95,1.84c-0.62,1.23-1.28,2.45-1.87,3.7l-1.7,3.78
		c-0.59,1.25-1.03,2.56-1.56,3.84c-2,5.15-3.69,10.42-4.97,15.79c-1.3,5.37-2.33,10.8-3.08,16.27c-0.72,5.48-1.17,10.99-1.37,16.51
		c-0.2,5.52-0.13,11.05,0.16,16.57c0.31,5.51,0.81,11.04,1.73,16.46l-0.46-0.4l62.31,2.19l31.15,1.08l31.16,0.85l-0.27,0.39
		c-0.49-1.24-0.5-2.55-0.43-3.8c0.08-1.26,0.32-2.5,0.58-3.72c0.56-2.44,1.31-4.82,2.13-7.17c1.67-4.7,3.63-9.27,5.69-13.8
		c2.07-4.52,4.24-9,6.5-13.43c2.28-4.42,4.62-8.8,7-13.16c4.77-8.72,9.71-17.34,14.74-25.9c5.02-8.57,10.22-17.04,15.53-25.44
		L627.21,1177.81z"/>
</g>
<g>
	<path d="M468.34,1277.52c1.5-10.35,3.46-20.62,5.58-30.87c2.22-10.23,4.71-20.41,7.63-30.49c2.97-10.06,5.92-20.25,10.85-29.7
		c2.48-4.7,5.23-9.33,8.73-13.46c1.74-2.07,3.69-3.99,5.89-5.62c2.19-1.61,4.74-2.88,7.43-3.23l0.13,0.48
		c-2.36,1.06-4.35,2.61-6.05,4.47c-1.72,1.82-3.2,3.87-4.57,5.99c-1.34,2.14-2.61,4.34-3.76,6.62c-1.17,2.26-2.27,4.57-3.3,6.91
		c-2.09,4.68-4.07,9.42-6.04,14.2c-2,4.77-3.81,9.63-5.5,14.53c-3.36,9.82-6.32,19.81-9.01,29.88c-2.77,10.05-5.24,20.19-7.52,30.37
		L468.34,1277.52z"/>
</g>
<g>
	<path d="M553.27,1277.56c1.49-8.79,3.29-17.53,5.33-26.21c2.02-8.68,4.3-17.31,6.82-25.87c2.56-8.55,5.34-17.04,8.75-25.32
		c1.7-4.14,3.56-8.21,5.75-12.13c1.11-1.95,2.3-3.85,3.65-5.65c1.36-1.77,2.9-3.49,4.85-4.59c-1.83,1.28-3.18,3.08-4.42,4.9
		c-1.21,1.85-2.25,3.81-3.22,5.8c-1.95,3.97-3.6,8.09-5.16,12.25c-1.53,4.16-3,8.35-4.35,12.58c-1.37,4.22-2.69,8.47-3.94,12.73
		c-2.55,8.52-4.9,17.1-7.23,25.68L553.27,1277.56z"/>
</g>
<path class="st7" d="M455.8,1352.01"/>
<path class="st10" d="M506.93,1362.81c0,0,2.4-70.36-51.13-10.8C455.8,1352.01,457.4,1418.28,506.93,1362.81z"/>
<path class="st10" d="M896.44,1493.48c0,0,47.08-37.97,49.48,23.45C945.92,1516.94,903.28,1563.84,896.44,1493.48z"/>
<g>
	<path d="M888.37,1481.9c-2.13-3.74-3.47-7.91-4.12-12.18c-0.35-2.13-0.47-4.3-0.45-6.46l0.17-3.24l0.47-3.21
		c0.06-0.54,0.19-1.06,0.33-1.59l0.41-1.57l0.42-1.57c0.17-0.51,0.38-1.01,0.57-1.52c0.39-1.01,0.76-2.03,1.18-3.02l1.5-2.87
		l0.75-1.43l0.9-1.35l1.8-2.69c0.6-0.9,1.35-1.67,2.01-2.52l2.04-2.5l0.01,0.18c-2.53-2.6-4.92-5.32-7.15-8.17
		c-2.25-2.84-4.36-5.79-6.26-8.88c-3.79-6.15-6.89-12.91-7.96-20.16c-0.53-3.61-0.49-7.33,0.26-10.91c0.74-3.58,2.2-7.04,4.35-10
		c0.46-0.79,1.1-1.46,1.67-2.17c0.59-0.7,1.14-1.42,1.82-2.03l1.96-1.9c0.7-0.58,1.42-1.14,2.13-1.7l1.07-0.85
		c0.36-0.27,0.75-0.5,1.13-0.76l2.28-1.48c1.55-0.93,3.19-1.73,4.77-2.59l0.03,0.07c-1.55,0.93-3.15,1.78-4.66,2.76l-2.22,1.54
		c-0.37,0.26-0.75,0.5-1.11,0.77l-1.04,0.86c-0.69,0.58-1.39,1.14-2.07,1.73l-1.89,1.91c-0.66,0.61-1.19,1.34-1.76,2.03
		c-0.55,0.71-1.16,1.37-1.59,2.16c-2.04,2.94-3.4,6.32-4.13,9.8c-0.73,3.49-0.73,7.11-0.24,10.65c0.99,7.11,3.98,13.82,7.6,20.02
		c3.68,6.19,8.09,12,13.18,17.11l0.08,0.08l-0.08,0.1c-1.32,1.69-2.72,3.31-3.95,5.06l-1.71,2.71l-0.86,1.35l-0.71,1.44l-1.41,2.87
		c-0.4,0.99-0.75,1.99-1.13,2.99c-0.18,0.5-0.38,0.99-0.55,1.5l-0.4,1.55l-0.4,1.55c-0.14,0.51-0.28,1.03-0.34,1.56
		c-0.87,4.17-0.86,8.49-0.35,12.71c0.56,4.22,1.74,8.4,3.69,12.21L888.37,1481.9z"/>
</g>
<g>
	<path d="M1046.62,1443.2c2.85,4.84,3.48,10.92,1.79,16.33c-0.52,1.31-0.96,2.67-1.71,3.88c-0.36,0.6-0.63,1.27-1.07,1.83
		l-1.24,1.72c-0.39,0.6-0.9,1.09-1.37,1.61l-1.44,1.55c-1.04,0.94-2.12,1.85-3.18,2.77l-0.03,0.02l-0.03,0.01
		c-1.97,0.85-3.99,1.33-6.03,1.73c-2.04,0.4-4.11,0.67-6.17,0.86c-1.04,0.07-2.07,0.18-3.1,0.23l-3.11,0.13
		c-2.07-0.01-4.15,0.04-6.22-0.05c-4.15-0.1-8.28-0.48-12.41-0.92l-6.16-0.86l-6.13-1.08l0.39-0.24
		c-2.65,8.82-5.86,17.47-9.96,25.73c-2.11,4.09-4.42,8.12-7.36,11.69c-1.48,1.77-3.12,3.46-5.11,4.67
		c-1.97,1.21-4.44,1.78-6.67,1.04l0.02-0.07c2.23,0.65,4.6,0,6.47-1.25c1.91-1.23,3.5-2.91,4.92-4.69
		c2.83-3.58,5.05-7.62,7.06-11.72c2.02-4.11,3.81-8.33,5.45-12.61c1.65-4.27,3.19-8.6,4.53-12.98l0.09-0.3l0.3,0.06l6.09,1.19
		l6.13,0.97c4.1,0.52,8.22,1,12.36,1.11c4.13,0.18,8.28,0.06,12.39-0.41c2.05-0.24,4.09-0.57,6.11-1.01c2-0.44,4.02-1.01,5.86-1.8
		l-0.06,0.04c1.04-0.92,2.09-1.82,3.11-2.75l1.4-1.52c0.46-0.51,0.97-0.99,1.35-1.56l1.23-1.67c0.44-0.54,0.7-1.18,1.06-1.77
		c0.74-1.17,1.18-2.48,1.7-3.76c0.86-2.62,1.2-5.41,0.97-8.16c-0.22-2.75-0.96-5.49-2.28-7.95L1046.62,1443.2z"/>
</g>
<g>
	<path d="M497.76,1516.1c5.82,2.96,11.69,5.83,17.53,8.73c5.85,2.9,11.71,5.77,17.59,8.62c11.75,5.68,23.56,11.26,35.35,16.86
		c23.62,11.14,47.42,21.91,71.58,31.82c12.07,4.98,24.21,9.79,36.41,14.43c12.2,4.64,24.46,9.13,36.85,13.22
		c24.77,8.1,49.88,15.79,75.87,18.8l-0.01,0.07c-13.01-1.2-25.86-3.85-38.52-7.04c-12.67-3.22-25.18-6.99-37.57-11.14
		c-24.78-8.3-49.14-17.79-73.19-27.97c-6.02-2.52-12.02-5.11-18.01-7.7l-17.94-7.87c-11.96-5.25-23.86-10.62-35.71-16.12
		c-11.87-5.46-23.63-11.14-35.34-16.92c-11.72-5.77-23.39-11.62-34.93-17.74L497.76,1516.1z"/>
</g>
<g>
	<path d="M575.69,1277.54c1.72,2.52,3.2,5.22,4.36,8.06c1.15,2.83,2.07,5.81,2.31,8.9c0.18,1.54,0.08,3.1-0.11,4.64
		c-0.17,0.76-0.26,1.54-0.55,2.27c-0.13,0.37-0.23,0.75-0.39,1.1l-0.51,1.05c-1.4,2.83-3.92,4.91-6.62,6.34
		c-0.68,0.36-1.36,0.72-2.09,0.97c-0.72,0.26-1.42,0.6-2.16,0.78l-2.21,0.64l-2.25,0.47c-0.74,0.18-1.51,0.25-2.26,0.36
		c-0.76,0.09-1.51,0.23-2.27,0.3l-2.28,0.19c-0.76,0.08-1.52,0.12-2.29,0.13c-3.05,0.13-6.1,0.14-9.15,0.17l-9.15,0.1l0.33-0.35
		c0.12,4.17-0.22,8.31-0.93,12.41c-0.75,4.08-1.9,8.12-3.72,11.88c-1.82,3.75-4.39,7.18-7.71,9.72c-1.66,1.27-3.52,2.25-5.45,3.01
		c-1.95,0.75-4,1.11-6.05,1.37l-0.01-0.07c4.08-0.6,8.01-2.14,11.22-4.68c3.19-2.56,5.63-5.97,7.33-9.67
		c1.77-3.68,2.88-7.67,3.62-11.7c0.74-4.03,1.11-8.15,1.04-12.24l-0.01-0.35l0.34,0l9.15,0.1c3.05,0.02,6.1,0.11,9.14,0.02
		c0.76,0,1.52-0.04,2.28-0.11l2.28-0.17c0.76-0.06,1.51-0.2,2.26-0.3c0.75-0.12,1.51-0.2,2.25-0.39c2.99-0.55,5.9-1.56,8.54-3.01
		c2.6-1.48,4.95-3.54,6.27-6.23l0.48-1.01c0.15-0.34,0.24-0.7,0.36-1.05c0.27-0.7,0.37-1.44,0.54-2.17c0.2-1.48,0.31-2.98,0.15-4.48
		c-0.02-0.75-0.18-1.49-0.27-2.24c-0.16-0.74-0.27-1.48-0.48-2.21c-0.34-1.47-0.83-2.91-1.36-4.33c-1.1-2.82-2.41-5.59-4.02-8.17
		L575.69,1277.54z"/>
</g>
<g>
	<path class="st11" d="M1186.34,1427.59l15.26,44.84l-7.61,0.2c-44.74-5.96-233.68,122.11-233.68,122.11c-5.19,5.96,0,69.99,0,69.99
		v27.32l-63.86,20.33l31.58-153.01"/>
	<path d="M1186.38,1427.57l7.76,22.38l7.71,22.39l0.12,0.35l-0.37,0.01l-7.61,0.22l-0.02,0l-0.02,0c-2.71-0.34-5.48-0.16-8.2,0.18
		c-2.73,0.32-5.43,0.94-8.11,1.58c-5.35,1.36-10.59,3.12-15.77,5.06c-10.34,3.9-20.43,8.48-30.37,13.33
		c-19.89,9.69-39.32,20.32-58.51,31.37c-19.18,11.05-38.12,22.53-56.89,34.27c-18.73,11.81-37.29,23.89-55.64,36.27l0.05-0.05
		c-0.41,0.51-0.65,1.2-0.85,1.88c-0.2,0.69-0.34,1.4-0.46,2.12c-0.24,1.43-0.39,2.89-0.5,4.34c-0.22,2.91-0.31,5.84-0.35,8.77
		c-0.06,5.86,0.08,11.71,0.3,17.57c0.45,11.71,1.21,23.41,2.11,35.1l0,0.02v0.02l0.01,27.32l0,0.34l-0.32,0.1l-63.85,20.36
		l-0.8,0.25l0.17-0.82l7.92-38.25l8-38.23l16.09-76.44l0.1,0.02l-15.49,76.57l-7.79,38.27l-7.87,38.26l-0.63-0.56l63.87-20.31
		l-0.32,0.44l0.01-27.32l0,0.04c-0.9-11.7-1.56-23.42-1.95-35.15c-0.18-5.86-0.3-11.73-0.2-17.61c0.05-2.94,0.15-5.87,0.4-8.81
		c0.12-1.47,0.28-2.93,0.54-4.39c0.13-0.73,0.27-1.46,0.49-2.18c0.22-0.71,0.46-1.44,0.98-2.08l0.02-0.02l0.03-0.02
		c18.4-12.32,37.03-24.3,55.78-36.08c18.72-11.83,37.6-23.4,56.74-34.55c19.15-11.11,38.51-21.92,58.44-31.6
		c9.98-4.81,20.1-9.35,30.5-13.22c5.2-1.92,10.47-3.67,15.86-5.01c2.7-0.63,5.42-1.24,8.19-1.55c2.76-0.33,5.57-0.51,8.36-0.14
		l-0.05,0l7.61-0.18l-0.25,0.36l-7.55-22.45l-7.5-22.47L1186.38,1427.57z"/>
</g>
<g>
	<path d="M1186.35,1427.64c-21.61,8.02-43.03,16.53-64.3,25.39c-21.29,8.82-42.44,18.03-62.98,28.49
		c-10.29,5.18-20.49,10.54-30.52,16.22c-10.03,5.67-19.98,11.47-29.61,17.78c-9.67,6.24-19.09,12.88-28.1,20.03
		c-8.99,7.16-17.5,15.01-24.72,23.98l-0.08,0.09l-0.12,0l-17.9-0.19v-0.1l17.9-0.19l-0.19,0.09c7.14-9.09,15.59-17.09,24.53-24.39
		c8.94-7.31,18.44-13.91,28.1-20.21c19.43-12.48,39.8-23.37,60.5-33.53c10.34-5.1,20.8-9.96,31.26-14.79
		c10.47-4.83,20.98-9.57,31.6-14.05c21.26-8.94,42.76-17.31,64.6-24.7L1186.35,1427.64z"/>
</g>
<g>
	<path class="st11" d="M451.01,1277.06c-35.15,23.45-103.86,260.83-103.86,260.83s-9.77,17.42-7.89,23.68l9.42,17.42l12.61-34.6
		c-12.89-11.5,126.93-266.07,126.93-266.07"/>
	<path d="M451.04,1277.1c-2.43,1.66-4.45,3.84-6.32,6.1c-1.87,2.27-3.55,4.68-5.16,7.14c-3.2,4.93-6.05,10.08-8.76,15.3
		c-5.42,10.44-10.23,21.18-14.82,32.01c-9.15,21.68-17.28,43.78-25.18,65.95c-7.9,22.17-15.4,44.48-22.64,66.88
		c-3.62,11.2-7.17,22.42-10.66,33.66c-3.5,11.24-6.91,22.5-10.17,33.81l-0.01,0.02l-0.01,0.02c-2.01,3.7-3.85,7.51-5.42,11.41
		c-0.77,1.96-1.48,3.95-2,5.98c-0.26,1.02-0.46,2.04-0.57,3.08c-0.1,1.03-0.11,2.08,0.16,3.05l-0.02-0.04l9.45,17.4l-0.48,0.04
		l12.51-34.63l0.1,0.4c-0.71-0.68-0.85-1.57-0.94-2.36c-0.07-0.81-0.03-1.6,0.05-2.38c0.17-1.56,0.48-3.09,0.85-4.6
		c0.74-3.02,1.68-5.97,2.68-8.9c2.02-5.85,4.3-11.59,6.69-17.29c4.78-11.39,9.93-22.62,15.19-33.79
		c10.55-22.33,21.61-44.41,32.83-66.4c11.22-21.99,22.79-43.8,34.41-65.59c11.63-21.78,23.39-43.48,35.37-65.07l0.09,0.05
		l-17.5,32.63l-17.37,32.7c-11.53,21.83-22.86,43.76-34.12,65.72c-11.24,21.97-22.31,44.04-32.87,66.34
		c-5.27,11.16-10.42,22.37-15.2,33.74c-2.38,5.69-4.69,11.41-6.73,17.22c-1.01,2.91-1.96,5.84-2.7,8.81
		c-0.37,1.49-0.68,2.99-0.85,4.49c-0.08,0.75-0.12,1.51-0.06,2.24c0.06,0.72,0.24,1.46,0.68,1.87l0.19,0.17l-0.09,0.23l-12.71,34.56
		l-0.2,0.56l-0.28-0.52l-9.39-17.44l-0.01-0.02l-0.01-0.02c-0.3-1.07-0.27-2.17-0.17-3.23c0.12-1.07,0.33-2.11,0.59-3.14
		c0.54-2.06,1.25-4.06,2.04-6.02c1.59-3.93,3.45-7.73,5.48-11.44l-0.02,0.04c6.7-22.57,13.5-45.11,20.65-67.54
		c7.14-22.43,14.54-44.79,22.35-67c3.89-11.11,8-22.15,12.2-33.15c4.22-10.99,8.58-21.93,13.21-32.76
		c4.64-10.82,9.51-21.56,14.98-31.99c2.76-5.2,5.68-10.33,8.94-15.24c1.64-2.45,3.36-4.85,5.26-7.1c1.9-2.25,3.95-4.41,6.41-6.05
		L451.04,1277.1z"/>
</g>
<g>
	<path d="M448.97,1267.91c-4.26,3.19-8.3,6.68-11.93,10.54c-1.79,1.95-3.49,3.99-4.96,6.18c-1.46,2.19-2.72,4.55-3.37,7.11
		c-0.65,2.54-0.55,5.32,0.57,7.73c1.1,2.42,3.06,4.33,5.21,5.83c4.33,3.06,9.46,4.74,14.55,6.15l0.36,0.1l-0.1,0.37
		c-1.4,5.22-2.44,10.56-2.93,15.95c-0.24,2.69-0.3,5.41,0,8.09c0.34,2.65,0.95,5.38,2.59,7.57l-0.06,0.05
		c-1.78-2.11-2.57-4.87-2.96-7.56c-0.38-2.72-0.4-5.47-0.24-8.19c0.14-2.73,0.54-5.44,1.02-8.13c0.49-2.69,1.08-5.35,1.85-7.98
		l0.26,0.47c-5.13-1.45-10.27-3.31-14.59-6.55c-2.13-1.6-4.08-3.58-5.19-6.06c-0.22-0.64-0.49-1.26-0.66-1.9
		c-0.1-0.66-0.31-1.32-0.33-1.99c-0.09-1.34,0.01-2.7,0.3-4.01c0.57-2.64,1.75-5.1,3.19-7.37c1.46-2.26,3.16-4.35,5.02-6.27
		c3.7-3.87,7.88-7.26,12.35-10.17L448.97,1267.91z"/>
</g>
<path class="st4" d="M1004.72,812.21c21.65-118.39-51.61-264.32-51.61-264.32c-69.9-148.91-370.97-78.92-370.97-78.92
	c-217.18,52.12-143.59,317.3-143.59,317.3s-37.88,229.95,195.8,312.23c0,0,171.69,50.17,240.87-71.48c0,0,50.33-33.51,85.08-98.47
	l13.18-18.06c0,0,98.26,10.8,113.84-45.42c0,0,39.55-110.94-44.34-106.47C1042.99,758.6,996.41,775.35,1004.72,812.21
	c0,0-71.18,34.99-36.03,91.58"/>
<path class="st12" d="M788.94,970.2c-98.26,97.69-172.56,1.34-172.56,1.34s30.36-66.51,71.9-41.45c0,0,8.79,14.39,20.77,0
	c0,0,32.75-33.01,84.68,34"/>
<path class="st7" d="M643.34,865.07c0,0-13.38,22.34,37.75,20.85"/>
<path class="st7" d="M717.84,885.99c0,0-12.78-13.4,9.59-10.46c0,0,43.14,11.88,43.14-10.46"/>
<path class="st13" d="M492.14,757.63c0,0,80.52,34.25,150.21,11.91c0,0,8.59-99.77-75.11-89.35c0,0-75.69-7.45-85.28,69.99v6.51
	L492.14,757.63z"/>
<path class="st14" d="M634.83,775.67c-8.93,4.16-18.28,1.19-29.96,1.12c-7.64-0.05-8.51,0.44-9.92,0.45c0,0-0.88-0.01-1.76-0.16
	c-0.98-0.17-10.32-3.68-16.68-14.44c-16.88-28.55-2.8-49.71-2.8-49.71c9.37-14.08,29.56-24.9,44.59-19.65
	c17.8,6.22,21.78,32.69,23.71,45.54c0.6,4.02,0.06,3.61,1.2,15.64c0.76,8.06,1.31,11.46-0.87,15.09
	C640.2,773.12,636.68,774.81,634.83,775.67z"/>
<path class="st13" d="M768.39,766.39c0,0,114.96,8.93,163.85-16.38c0,0,20.42-93.85-105.22-72.24
	C827.02,677.76,749.96,691.93,768.39,766.39z"/>
<line class="st7" x1="770.57" y1="622.34" x2="776.96" y2="588.09"/>
<path class="st15" d="M793.73,588.09v34.25c0,0,118.24-28.29,152.19,14.89c0,0-14.46-52.12-70.94-58.08
	C874.98,579.16,793.73,571.71,793.73,588.09z"/>
<path class="st15" d="M451.01,652.87c0,0,5.59-26.26,27.16-45.52c0,0,6.39-24.47,105.45-19.26c0,0,31.96,15.64,20.77,40.21
	c0,0-97.47-11.17-108.65,0c0,0-23.17-2.23-44.74,28.29"/>
<path class="st7" d="M619.18,626.44c0,0,11.58-5.58-15.58-38.34"/>
<path class="st7" d="M438.55,786.27"/>
<path class="st4" d="M436.31,818.54c-30.28-49.51-36.83-32.28-36.83-32.28c-65.91,125.95,56.32,167.78,56.32,167.78l8.84,2.09"/>
<ellipse class="st16" cx="429.88" cy="918.86" rx="16.25" ry="15.15"/>
<ellipse class="st16" cx="1004.72" cy="895.01" rx="16.25" ry="15.15"/>
<path class="st7" d="M604.4,964.1c0,0,35.95,20.1,69.5,0c0,0,35.95,33.51,45.54,0c0,0,59.12,20.1,79.89,0"/>
<g>
	<path class="st17" d="M479.25,756.21c6.42,3.08,13.11,5.53,19.88,7.67l5.08,1.6l5.13,1.42c3.4,1.01,6.88,1.74,10.33,2.56
		c13.85,3.13,27.91,5.22,42.05,6.45l10.62,0.76l2.65,0.19c0.89,0.04,1.77,0.05,2.66,0.08l5.32,0.14l5.32,0.14l2.66,0.07
		c0.89,0.02,1.77-0.03,2.66-0.04c3.55-0.09,7.1-0.14,10.65-0.18c1.78-0.04,3.55,0,5.33-0.11l5.32-0.32l10.64-0.64
		c7.09-0.54,14.15-1.41,21.25-2.01c-3.52,0.54-7.04,1.06-10.57,1.55l-5.29,0.76c-1.77,0.23-3.52,0.55-5.3,0.68L615,777.88
		l-5.33,0.46c-1.78,0.16-3.56,0.16-5.34,0.25c-3.56,0.14-7.13,0.27-10.7,0.37c-0.89,0.02-1.78,0.07-2.67,0.06l-2.68-0.05l-5.35-0.09
		l-5.35-0.09c-0.89-0.02-1.78-0.02-2.68-0.06l-2.67-0.17l-10.69-0.68c-14.21-1.4-28.37-3.48-42.23-6.95
		C505.51,767.41,491.8,763.01,479.25,756.21z"/>
</g>
<path class="st18" d="M459.76,753.51h20.77c0,0,5.59-66.69,71.9-69.98c0,0,76.46-18.18,90.16,73.4c0,0,32.07-82.65-82.97-93.81
	C559.63,663.12,476.54,653.29,459.76,753.51z"/>
<ellipse class="st14" cx="898.62" cy="718.99" rx="45.98" ry="46.35"/>
<ellipse transform="matrix(0.957 -0.2901 0.2901 0.957 -170.4937 292.3577)" class="st19" cx="900.9" cy="721.27" rx="21.18" ry="24.64"/>
<path class="st7" d="M761.6,756.21"/>
<g>
	<path class="st17" d="M770.57,768c6.68,0.14,13.36,0.3,20.04,0.35c6.68,0.11,13.36,0.18,20.04,0.17
		c13.35,0.01,26.71-0.05,40.04-0.59c13.34-0.4,26.66-1.21,39.89-2.79c6.61-0.79,13.2-1.83,19.66-3.44c3.23-0.79,6.42-1.74,9.5-3
		c3.03-1.31,6.05-2.89,8.29-5.4c-2.08,2.65-5.06,4.43-8.07,5.88c-3.05,1.42-6.23,2.52-9.46,3.47c-6.47,1.82-13.08,3.04-19.71,4.02
		c-6.63,1.01-13.31,1.6-19.98,2.13c-6.68,0.51-13.36,0.88-20.05,1.13c-13.38,0.37-26.76,0.46-40.13,0.12
		c-6.69-0.18-13.37-0.42-20.05-0.73C783.9,768.94,777.23,768.59,770.57,768z"/>
</g>
<path class="st18" d="M764.11,758.48c0,0-11.18-83.48,98.26-84.23c23.94-2.47,47.29,7.22,60.54,25.23
	c17.54,23.84,8.46,50.16,7.38,53.1c5.95,0.54,11.91,1.08,17.86,1.62c0,0,28.04-92.19-92.18-94.26
	C855.97,659.94,726.56,656.94,764.11,758.48z"/>
<ellipse transform="matrix(0.9742 -0.2256 0.2256 0.9742 -149.6013 157.7707)" class="st19" cx="615.38" cy="733.33" rx="20.8" ry="25.21"/>
<path class="st15" d="M680.37,789.07"/>
<g>
	<path d="M203.78,427.47c-0.49,3.1-0.82,6.23-1.06,9.36c-0.2,3.13-0.35,6.27-0.38,9.4c-0.08,6.27,0.37,12.53,1.23,18.71
		c0.88,6.18,2.35,12.27,4.44,18.13c2.04,5.88,4.88,11.47,8.4,16.59c3.54,5.11,7.89,9.67,12.84,13.48c1.28,0.9,2.54,1.82,3.84,2.69
		l4.07,2.33l1.02,0.58l1.07,0.49l2.14,0.97c1.43,0.64,2.85,1.31,4.36,1.75c11.83,4.24,24.52,5.45,37.01,5.12l0.97-0.03l-0.21,0.98
		c-1.04,4.88-1.62,9.91-1.97,14.92c-0.32,5.01-0.31,10.04,0.16,15.03c0.47,4.98,1.42,9.9,2.97,14.62c1.57,4.7,3.84,9.18,6.97,12.99
		c3.12,3.8,7.04,6.93,11.48,9.11c2.22,1.08,4.56,1.94,6.95,2.62c2.39,0.68,4.86,1.1,7.33,1.44c4.97,0.61,10.02,0.63,15.04,0.23
		c5.03-0.39,10.04-1.14,15-2.17l0.05,0.19c-4.91,1.26-9.89,2.3-14.95,2.91c-5.06,0.58-10.18,0.74-15.3,0.29
		c-5.1-0.51-10.18-1.71-14.9-3.89c-4.71-2.17-8.97-5.41-12.27-9.45c-3.33-4.02-5.74-8.72-7.39-13.61c-1.67-4.89-2.56-10-2.99-15.11
		c-0.8-10.24,0.05-20.49,2.31-30.48l0.76,0.95c-12.64,0.01-25.35-1.78-37.25-6.06c-11.87-4.27-22.7-11.8-30.28-22.07
		c-3.84-5.09-6.75-10.85-8.91-16.82c-2.15-5.99-3.5-12.24-4.33-18.52c-0.84-6.29-1.04-12.64-0.77-18.95
		c0.26-6.31,0.97-12.61,2.35-18.77L203.78,427.47z"/>
</g>
<g>
	<path d="M376.26,342.67c6.05,0.65,12,2.14,17.75,4.17c5.75,2.03,11.34,4.57,16.56,7.76c5.2,3.21,10,7.03,14.47,11.14
		c4.47,4.11,8.64,8.57,12.32,13.43c0.88,1.24,1.86,2.42,2.67,3.72c0.82,1.29,1.64,2.58,2.44,3.88c1.43,2.7,2.95,5.37,4.06,8.23
		c1.29,2.78,2.17,5.72,3.19,8.62c0.43,1.47,0.78,2.96,1.16,4.45l0.56,2.23l0.4,2.26c2.17,12.06,2.01,24.44,0,36.4l-0.2-0.02
		c0.74-12.09,0.38-24.21-1.9-35.98l-0.39-2.21l-0.54-2.18l-1.09-4.36c-0.93-2.84-1.72-5.74-2.92-8.48
		c-1.04-2.81-2.41-5.48-3.71-8.18c-0.74-1.3-1.48-2.61-2.2-3.92c-0.72-1.32-1.61-2.53-2.41-3.81c-3.35-4.99-7.32-9.61-11.86-13.58
		c-4.54-3.98-9.63-7.28-14.88-10.19c-10.47-5.87-21.72-10.4-33.5-13.17L376.26,342.67z"/>
</g>
<g>
	<path d="M473.41,456.27c0.48,7.66,2.51,15.04,5.53,21.95c1.47,3.48,3.23,6.9,5.53,9.95c2.29,3.06,5.08,5.72,8.1,8.04
		c3.01,2.34,6.29,4.27,9.58,6.13l2.52,1.3c0.83,0.45,1.72,0.79,2.58,1.18c0.88,0.36,1.71,0.81,2.6,1.14l2.64,1.05
		c7.06,2.8,14.44,4.78,21.93,6.54l-0.03,0.2c-7.69-0.51-15.37-2.03-22.66-4.74c-7.25-2.77-14.18-6.66-19.88-11.96
		c-2.85-2.64-5.47-5.48-7.91-8.48c-2.44-2.99-4.73-6.16-6.52-9.64c-1.76-3.49-2.97-7.24-3.73-11.07c-0.71-3.83-1.01-7.76-0.5-11.61
		L473.41,456.27z"/>
</g>
<path class="st7" d="M801.26,388.06"/>
<g>
	<path d="M629,573.48c-2.6-4.72-4.61-9.58-6.02-14.74c-0.69-2.57-1.2-5.21-1.41-7.9c-0.21-2.69-0.12-5.44,0.52-8.14
		c0.62-2.69,1.83-5.3,3.62-7.45c1.78-2.16,4.09-3.8,6.53-5.01c4.96-2.32,10.34-3.1,15.6-3.24l-0.99,1.25
		c-1.08-5.89-1.88-11.77-2.51-17.69c-0.63-5.92-1.05-11.86-1.2-17.81c-0.15-5.95-0.03-11.92,0.59-17.86
		c0.64-5.92,1.72-11.87,4-17.44c1.16-2.77,2.61-5.46,4.61-7.74c2-2.26,4.52-4.15,7.41-5.12c2.88-0.99,5.97-1.17,8.94-0.81
		c2.98,0.35,5.87,1.19,8.66,2.25c5.55,2.19,10.71,5.21,15.59,8.58c4.89,3.36,9.54,7.06,14.05,10.91c-4.57-3.78-9.27-7.41-14.2-10.69
		c-4.92-3.29-10.11-6.22-15.63-8.31c-2.77-1-5.63-1.79-8.54-2.09c-2.91-0.3-5.88-0.08-8.61,0.9c-2.74,0.97-5.1,2.79-6.98,4.98
		c-1.88,2.21-3.25,4.83-4.34,7.54c-2.14,5.46-3.12,11.32-3.67,17.18c-0.53,5.87-0.56,11.78-0.33,17.68
		c0.5,11.79,1.97,23.58,4.2,35.14l0.23,1.2l-1.22,0.05c-5.09,0.21-10.2,1.07-14.64,3.23c-2.18,1.12-4.17,2.59-5.67,4.47
		c-1.51,1.86-2.51,4.1-3.03,6.48c-1.04,4.78-0.26,9.91,1.09,14.74c1.39,4.84,3.45,9.61,5.93,13.95L629,573.48z"/>
</g>
<g>
	<path d="M721.27,456.28c-1.33-5.89-2.06-11.91-2.37-17.95c-0.3-6.04-0.2-12.13,0.61-18.14c0.84-6.01,2.34-11.93,4.49-17.58
		c2.14-5.64,5.01-11.1,9.16-15.62c4.1-4.55,9.62-7.85,15.58-9.45c2.97-0.84,6.04-1.25,9.11-1.42c1.53-0.13,3.07-0.06,4.6-0.05
		c1.52,0.12,3.06,0.15,4.57,0.37c6.07,0.74,11.99,2.24,17.7,4.27c5.71,2.03,11.25,4.47,16.59,7.27l-0.08,0.18
		c-5.61-2.19-11.25-4.27-16.99-5.95c-5.73-1.7-11.56-3.03-17.46-3.65c-1.47-0.2-2.95-0.25-4.42-0.36c-1.47-0.01-2.95-0.08-4.42,0
		c-2.94,0.1-5.88,0.42-8.72,1.16c-5.69,1.42-11.02,4.25-15.27,8.39c-4.27,4.13-7.36,9.44-9.33,15.08c-1,2.82-1.71,5.74-2.26,8.68
		c-0.55,2.94-0.92,5.9-1.19,8.88c-1.15,11.88-0.87,23.9,0.3,35.87L721.27,456.28z"/>
</g>
<path class="st7" d="M839.6,475.92"/>
<g>
	<path d="M839.62,475.82c3.5,0.29,7.01,0.37,10.52,0.38c3.5,0,7-0.13,10.48-0.38c6.97-0.51,13.86-1.62,20.64-3.27
		c3.37-0.89,6.7-1.96,9.93-3.32c3.21-1.39,6.26-3.15,9.12-5.15c2.86-2.01,5.4-4.45,7.73-7.03c2.32-2.6,4.2-5.53,5.97-8.5l0.08-0.14
		l0.13-0.1c4.3-3.34,8.8-6.34,13.42-9.18c2.31-1.43,4.67-2.76,7.09-4.01c2.4-1.27,4.87-2.42,7.4-3.45
		c5.03-2.07,10.34-3.71,15.87-4.03c2.75-0.13,5.59,0.17,8.18,1.21c2.59,1.04,4.78,2.98,6.14,5.33l-0.17,0.11
		c-1.6-2.15-3.79-3.8-6.3-4.57c-2.48-0.81-5.15-0.93-7.76-0.64c-5.23,0.58-10.3,2.36-15.17,4.47c-4.88,2.13-9.6,4.66-14.23,7.33
		c-4.62,2.69-9.13,5.63-13.49,8.71l0.21-0.23c-1.91,3.02-4.08,5.88-6.58,8.41c-2.51,2.52-5.22,4.83-8.14,6.82
		c-5.84,4-12.27,7.09-19.03,9.29c-6.76,2.22-13.86,3.25-20.93,3.57c-7.08,0.29-14.19-0.09-21.13-1.43L839.62,475.82z"/>
</g>
<g>
	<path d="M1023.34,681.32c8.6-1.65,16.89-4.34,24.86-7.76c4-1.67,7.96-3.54,11.62-5.93c3.66-2.38,6.99-5.25,9.98-8.4
		c3.01-3.15,5.64-6.61,8.08-10.17l1.77-2.72l1.6-2.82c0.55-0.93,1.01-1.91,1.5-2.87c0.47-0.97,1-1.91,1.42-2.91
		c3.6-7.86,6.06-16.23,7.79-24.83l0.2,0.02c-0.47,8.78-2.5,17.54-6.05,25.69c-1.87,4.02-4.02,7.94-6.68,11.51
		c-2.61,3.59-5.54,6.96-8.86,9.88c-3.29,2.95-6.79,5.63-10.39,8.16c-3.6,2.53-7.32,4.94-11.29,6.91c-3.98,1.95-8.18,3.41-12.46,4.52
		c-4.28,1.11-8.66,1.83-13.08,1.93L1023.34,681.32z"/>
</g>
<g>
	<path d="M1008.89,828.9c-4.06-5.29-7.49-11.06-10.26-17.16c-1.37-3.06-2.53-6.23-3.38-9.5c-0.82-3.27-1.39-6.65-1.28-10.09
		c0.08-3.41,0.88-6.91,2.65-9.9c1.75-3,4.38-5.4,7.33-7.08c6.03-3.18,12.76-4.28,19.39-4.75l-0.07,0.01
		c8.5-2.49,16.66-6.08,24.58-9.99c7.89-3.98,15.54-8.46,22.59-13.74c0.9-0.63,1.75-1.33,2.62-2.01c0.87-0.67,1.73-1.36,2.57-2.07
		c0.84-0.71,1.7-1.4,2.52-2.13l2.44-2.22c3.17-3.04,6.21-6.22,8.93-9.68c2.67-3.49,5.09-7.17,7.16-11.06
		c1.99-3.93,3.61-8.05,4.87-12.31l0.19,0.05c-0.9,4.36-2.24,8.65-4.08,12.75c-1.9,4.06-4.18,7.95-6.82,11.59
		c-2.69,3.6-5.64,7-8.85,10.14c-3.21,3.14-6.68,6-10.28,8.67c-3.59,2.69-7.4,5.06-11.26,7.32c-3.87,2.25-7.83,4.32-11.89,6.18
		c-4.05,1.89-8.19,3.55-12.39,5.07c-4.19,1.52-8.42,2.9-12.73,4.11l-0.03,0.01l-0.04,0l-4.94,0.41l-2.44,0.42
		c-0.81,0.15-1.64,0.24-2.43,0.49c-3.21,0.76-6.3,1.97-9.09,3.65c-2.74,1.75-5.06,4.1-6.52,6.93c-1.47,2.82-2.12,6-2.2,9.21
		c-0.06,3.21,0.38,6.46,1.16,9.63c0.76,3.18,1.82,6.29,3.05,9.35c1.22,3.06,2.62,6.05,4.17,8.98c1.51,2.94,3.17,5.82,4.93,8.63
		L1008.89,828.9z"/>
</g>
<g>
	<path d="M984.91,416.69c-1.49-6.31-2.31-12.75-2.8-19.22c-0.44-6.47-0.47-12.99,0.18-19.46c0.68-6.47,2.01-12.86,3.93-19.06
		c1.91-6.19,4.48-12.24,8.32-17.55c3.79-5.33,9.08-9.71,15.2-12.26c3.05-1.29,6.25-2.22,9.51-2.74c3.26-0.53,6.56-0.7,9.84-0.64
		c13.17,0.52,25.76,4.66,37.45,10.09l-0.08,0.19c-6.1-2.13-12.24-4.08-18.49-5.55c-6.24-1.48-12.59-2.43-18.94-2.59
		c-6.33-0.09-12.73,0.61-18.58,2.99c-5.85,2.32-11.05,6.22-15.05,11.19c-4.01,4.97-6.79,10.91-8.57,17.07
		c-0.89,3.09-1.5,6.25-1.95,9.43c-0.46,3.18-0.75,6.38-0.94,9.58c-0.83,12.8-0.33,25.69,1.16,38.51L984.91,416.69z"/>
</g>
<g>
	<path d="M1101.66,693.24c4.71,0.89,9.22,2.76,13.37,5.22c2.05,1.28,4.06,2.66,5.85,4.3c0.95,0.76,1.75,1.69,2.62,2.54
		c0.8,0.92,1.59,1.84,2.3,2.83c0.67,1.02,1.4,1.99,1.95,3.08l0.87,1.59c0.28,0.53,0.49,1.11,0.74,1.66c0.24,0.56,0.49,1.1,0.71,1.66
		l0.56,1.72c0.17,0.58,0.41,1.13,0.55,1.71l0.42,1.75c1.12,4.66,1.49,9.47,1.3,14.27l-0.25,3.6c-0.15,1.19-0.36,2.38-0.56,3.56
		c-0.11,0.59-0.18,1.19-0.32,1.78l-0.43,1.75c-0.29,1.17-0.57,2.34-0.91,3.49c-1.45,4.58-3.1,9.11-5.24,13.4
		c-4.23,8.61-9.53,16.62-15.5,24.05l-0.16-0.12c4.93-8.15,9.74-16.31,13.74-24.85c2.06-4.24,3.83-8.6,5.37-13.04
		c0.37-1.12,0.65-2.26,0.99-3.38l0.5-1.69c0.17-0.56,0.26-1.14,0.39-1.71l0.76-3.44l0.51-3.49c0.53-4.66,0.41-9.47-0.84-14.02
		c-1.23-4.56-3.58-8.73-6.51-12.32c-5.83-7.26-13.97-12.47-22.87-15.7L1101.66,693.24z"/>
</g>
<g>
	<path d="M1117.19,718.59c1.99,2.42,4.14,4.7,6.41,6.84c2.25,2.16,4.64,4.17,7.17,5.94c5.01,3.58,10.74,6.33,16.79,6.82
		c3.01,0.25,6.06-0.08,8.96-1.01c0.71-0.27,1.46-0.46,2.15-0.8l2.07-1c1.3-0.81,2.67-1.56,3.86-2.56c2.51-1.84,4.6-4.19,6.6-6.57
		c0.94-1.25,1.83-2.53,2.74-3.8l2.46-3.99l0.22-0.35l0.35,0.25c6.07,4.32,12.89,7.6,19.86,10.12c6.99,2.51,14.33,4.06,21.71,4.28
		c3.69,0.08,7.38-0.05,11.04-0.61c3.64-0.58,7.25-1.43,10.75-2.67c6.98-2.5,13.49-6.3,19.43-10.89l0.13,0.15
		c-5.5,5.13-11.91,9.42-18.99,12.26c-3.55,1.4-7.24,2.43-11,3.13c-3.77,0.62-7.61,0.89-11.43,0.76c-3.82-0.09-7.62-0.64-11.34-1.46
		c-3.72-0.83-7.37-1.93-10.91-3.31c-7.08-2.78-13.72-6.52-19.72-11.17l0.56-0.1c-3.26,5.39-7.12,10.48-11.93,14.63
		c-1.16,1.1-2.52,1.94-3.83,2.86l-2.11,1.17c-0.7,0.4-1.48,0.64-2.21,0.97c-3.01,1.17-6.3,1.7-9.55,1.49
		c-3.25-0.21-6.42-1.11-9.35-2.43c-2.95-1.3-5.66-3.03-8.2-4.96c-5-3.94-9.37-8.61-12.86-13.87L1117.19,718.59z"/>
</g>
<g>
	<path d="M1132.63,618.8c4.02,2.77,8.36,5.02,12.82,6.94c4.46,1.92,9.11,3.36,13.84,4.34c9.46,1.95,19.32,1.75,28.65-0.77
		c4.66-1.29,9.17-3.12,13.46-5.42c1.06-0.6,2.08-1.26,3.12-1.89l1.55-0.96l1.48-1.08l2.95-2.16l2.77-2.39
		c7.39-6.38,13.43-14.16,18.75-22.29l0.31-0.47l0.57,0.17c3.7,1.12,7.5,2.04,11.29,2.89c3.8,0.83,7.63,1.54,11.47,2.07
		c7.68,1.01,15.49,1.54,23.08,0.43c3.77-0.59,7.49-1.6,10.75-3.49c3.26-1.86,5.89-4.72,7.32-8.21c1.49-3.47,1.86-7.38,1.64-11.23
		c-0.22-3.86-0.98-7.71-1.98-11.48l0.19-0.06c1.31,3.7,2.28,7.53,2.74,11.47c0.4,3.93,0.22,8.03-1.22,11.85
		c-1.42,3.83-4.28,7.1-7.76,9.21c-3.48,2.15-7.42,3.33-11.35,3.97c-3.95,0.66-7.94,0.81-11.9,0.68c-3.96-0.11-7.9-0.55-11.79-1.15
		c-7.8-1.21-15.46-3.02-22.96-5.48l0.88-0.3l-4.4,5.92l-4.73,5.66c-1.7,1.78-3.33,3.62-5.08,5.34l-2.66,2.55
		c-0.45,0.42-0.87,0.86-1.34,1.26l-1.41,1.18l-2.82,2.37l-2.95,2.2l-1.48,1.1l-1.54,1c-1.03,0.66-2.05,1.36-3.1,1.99
		c-4.23,2.51-8.74,4.59-13.45,6.11c-9.44,3.09-19.76,3.18-29.39,0.98c-4.84-1.07-9.51-2.78-13.95-4.91
		c-2.23-1.04-4.4-2.23-6.48-3.53c-2.08-1.3-4.13-2.68-6.01-4.27L1132.63,618.8z"/>
</g>
<g>
	<path d="M1117.19,632.26c4.81,6.83,10.58,12.88,17.38,17.5c3.36,2.34,7.04,4.36,11.04,5.49c3.99,1.14,8.22,1.36,12.31,0.86
		c8.23-1.03,15.86-4.5,22.87-8.79c7.04-4.33,13.5-9.6,19.84-15.08l0.14,0.14c-5.45,6.37-11.71,12.16-18.85,16.75
		c-3.64,2.18-7.4,4.21-11.45,5.57c-4,1.42-8.21,2.41-12.47,2.5c-4.25,0.16-8.47-0.32-12.56-1.33c-4.09-1-8.11-2.52-11.78-4.72
		c-3.66-2.2-6.86-5.09-9.66-8.27c-2.81-3.18-5.21-6.71-6.99-10.54L1117.19,632.26z"/>
</g>
<g>
	<path d="M801.19,475.85c3.24-3.53,6.88-6.68,10.67-9.61c3.8-2.92,7.79-5.61,11.99-7.94c1.06-0.56,2.12-1.12,3.19-1.66l3.24-1.57
		c2.19-0.98,4.38-1.94,6.58-2.87c4.41-1.85,8.85-3.62,13.4-5.13c4.55-1.52,9.27-2.59,14.05-3.22c4.78-0.67,9.64-0.79,14.46-0.4
		c9.66,0.77,19.05,4.01,27.2,9l-0.09,0.18c-8.72-3.86-17.88-6.46-27.27-7.05c-9.37-0.8-18.83,0.33-28.04,2.54
		c-4.6,1.16-9.12,2.69-13.44,4.67c-4.33,1.97-8.42,4.42-12.43,6.94c-8.08,4.95-15.9,10.31-23.36,16.25L801.19,475.85z"/>
</g>
<g>
	<path d="M927.53,545.82c7.29,2.41,14.88,3.23,22.46,3.5c0.47,0.02,0.95,0.07,1.42,0.1l1.43,0l2.86,0c1.92,0.08,3.82-0.19,5.72-0.37
		c0.95-0.13,1.91-0.19,2.85-0.37c0.93-0.21,1.87-0.4,2.8-0.63c0.93-0.21,1.86-0.44,2.79-0.68c0.93-0.21,1.84-0.52,2.74-0.84
		c1.81-0.62,3.6-1.28,5.42-1.86c1.78-0.67,3.52-1.47,5.3-2.16l2.65-1.07c0.88-0.35,1.71-0.83,2.57-1.24
		c1.7-0.86,3.43-1.66,5.15-2.49c0.43-0.2,0.87-0.39,1.3-0.6l1.25-0.69l2.51-1.38c1.68-0.91,3.36-1.81,5.06-2.7
		c3.27-1.98,6.53-3.98,9.91-5.86l0.12,0.16c-2.99,2.42-6.08,4.75-9.2,7.03c-1.63,1.03-3.28,2.04-4.94,3.05l-2.49,1.49l-1.25,0.74
		c-0.43,0.23-0.87,0.43-1.3,0.65c-1.75,0.84-3.49,1.68-5.26,2.48c-0.89,0.39-1.75,0.84-2.66,1.17l-2.73,1
		c-1.82,0.66-3.63,1.35-5.48,1.91c-1.87,0.51-3.76,0.94-5.63,1.41c-1.85,0.55-3.8,0.73-5.68,1.13c-0.95,0.17-1.89,0.37-2.84,0.56
		c-0.95,0.16-1.91,0.28-2.86,0.42c-3.8,0.65-7.65,1.17-11.54,1.3c-1.94-0.01-3.89,0.06-5.83-0.22l-2.9-0.32l-2.87-0.55
		c-3.8-0.8-7.56-1.98-10.94-3.9L927.53,545.82z"/>
</g>
<g>
	<path d="M1040.85,443.86c2.88-3.56,5.91-6.99,8.97-10.38c3.06-3.4,6.22-6.71,9.43-9.97c3.21-3.26,6.48-6.47,9.81-9.61
		c3.35-3.12,6.77-6.17,10.25-9.15c6.97-5.94,14.18-11.64,21.85-16.69c7.62-5.11,15.68-9.62,24.2-13.08
		c4.26-1.72,8.64-3.18,13.12-4.19c4.48-1.01,9.07-1.64,13.68-1.55c4.6,0.08,9.2,0.86,13.53,2.43c4.33,1.57,8.36,3.97,11.85,6.97
		c7.04,6,12.08,14.01,15.81,22.38c3.75,8.41,6.3,17.3,8.24,26.26l-1.73-0.13c2.36-5.87,5.62-11.21,9.55-16.1
		c3.95-4.84,8.65-9.17,14.12-12.32c2.74-1.56,5.64-2.84,8.64-3.82c3.02-0.93,6.13-1.52,9.26-1.84c6.29-0.49,12.62,0.22,18.64,1.86
		l-0.74,0.1c5.31-2.81,10.84-4.94,16.58-6.49c5.73-1.5,11.7-2.43,17.67-1.94c2.97,0.23,5.93,0.8,8.76,1.77
		c2.84,0.96,5.49,2.42,7.86,4.22c1.22,0.87,2.26,1.94,3.34,2.96c0.96,1.13,2,2.2,2.8,3.45c1.78,2.37,3.06,5.05,4.28,7.72l-0.18,0.08
		c-1.31-2.62-2.68-5.22-4.52-7.49c-0.83-1.2-1.9-2.2-2.87-3.27c-1.09-0.96-2.14-1.96-3.35-2.75c-2.36-1.66-4.94-3.02-7.7-3.87
		c-2.75-0.86-5.61-1.33-8.49-1.48c-5.77-0.3-11.57,0.67-17.14,2.23c-5.56,1.6-11.02,3.81-16.05,6.57l-0.36,0.2l-0.39-0.1
		c-5.87-1.52-11.95-2.21-17.95-1.71c-2.99,0.32-5.95,0.89-8.82,1.79c-2.85,0.94-5.61,2.16-8.21,3.66
		c-5.22,2.99-9.79,7.08-13.65,11.74c-3.83,4.67-7.09,9.94-9.38,15.48l-1.15,2.8l-0.58-2.93c-1.77-8.92-4.22-17.71-7.69-26.1
		c-3.47-8.35-8.27-16.32-15.07-22.35c-3.41-2.97-7.34-5.36-11.59-6.94c-4.24-1.6-8.79-2.32-13.32-2.34
		c-9.11-0.07-18.02,2.57-26.32,6.18c-8.34,3.63-16.17,8.32-23.71,13.39c-7.52,5.12-14.77,10.65-21.76,16.5
		c-13.92,11.77-27.07,24.48-39.36,38L1040.85,443.86z"/>
</g>
<g>
	<path d="M361.94,755.94c-3.98,6.49-7.77,13.02-11.22,19.71c-1.77,3.32-3.51,6.7-4.72,10.29c-1.2,3.58-1.9,7.35-1.87,11.09
		c0.05,3.73,0.79,7.43,2.57,10.56c1.76,3.15,4.62,5.51,7.83,7.2c3.23,1.7,6.82,2.75,10.49,3.51c3.67,0.77,7.44,1.18,11.23,1.51v0.2
		c-3.8,0.33-7.65,0.3-11.48-0.16c-3.83-0.46-7.66-1.41-11.21-3.17c-1.75-0.92-3.44-2.03-4.89-3.42c-1.45-1.38-2.69-3.01-3.61-4.78
		c-1.88-3.57-2.35-7.66-2.01-11.49c0.33-3.86,1.28-7.58,2.35-11.24c0.54-1.83,1.11-3.66,1.74-5.47c0.64-1.81,1.33-3.59,2.1-5.35
		c1.57-3.5,3.5-6.82,5.59-10.02c2.1-3.2,4.39-6.26,6.97-9.09L361.94,755.94z"/>
</g>
<g>
	<path d="M191,572.7c1.67,11.18,3.66,22.29,6.03,33.3c1.19,5.51,2.49,10.99,3.86,16.45c1.34,5.47,2.86,10.9,4.62,16.26
		c1.79,5.34,3.87,10.6,6.43,15.62c2.52,5.04,5.52,9.84,9.1,14.14c3.6,4.25,7.84,8.05,12.82,10.34c2.48,1.14,5.13,1.9,7.84,2.15
		c2.7,0.26,5.44,0.04,8.11-0.56l1.84-0.41l-0.68,1.81c-1.82,4.87-3.04,10.11-3.5,15.32c-0.22,2.61-0.23,5.24,0.07,7.83
		c0.28,2.59,0.87,5.14,1.85,7.53c0.97,2.4,2.35,4.62,4.07,6.57c1.74,1.93,3.82,3.54,6.08,4.88c4.58,2.59,9.8,4.07,15.09,4.86
		l-0.02,0.2c-5.35-0.37-10.75-1.53-15.64-4.02c-2.41-1.29-4.71-2.87-6.64-4.87c-1.9-2.02-3.45-4.38-4.57-6.92
		c-1.12-2.54-1.83-5.25-2.21-7.98c-0.36-2.74-0.39-5.5-0.19-8.24c0.19-2.74,0.65-5.44,1.27-8.1c0.62-2.67,1.39-5.26,2.44-7.85
		l1.17,1.4c-2.86,0.59-5.82,0.78-8.74,0.46c-2.92-0.32-5.78-1.17-8.39-2.46c-5.26-2.59-9.52-6.69-12.98-11.2
		c-6.89-9.14-11.38-19.66-15.43-30.21c-2.01-5.3-3.79-10.68-5.39-16.12c-1.56-5.45-2.85-10.97-3.96-16.53
		c-1.12-5.55-2.06-11.14-2.82-16.75c-0.78-5.61-1.39-11.24-1.72-16.89L191,572.7z"/>
</g>
<g>
	<path d="M274.68,673.9c8.65,6.96,17.77,13.25,27.43,18.56c4.81,2.68,9.79,5.14,15.09,6.77c5.28,1.62,10.85,2.4,16.33,2.01
		c5.47-0.39,10.8-1.91,15.53-4.54c2.36-1.32,4.56-2.92,6.58-4.72c1.03-0.88,1.97-1.86,2.93-2.82c0.91-1.01,1.82-2.01,2.66-3.08
		c0.89-1.03,1.65-2.16,2.47-3.25c0.74-1.15,1.54-2.25,2.23-3.44l1.07-1.76l0.99-1.81c0.69-1.19,1.27-2.44,1.9-3.66
		c2.44-4.94,4.43-10.12,6.27-15.36l0.19,0.05c-1.2,5.44-2.85,10.79-5.03,15.96c-1.11,2.57-2.29,5.13-3.71,7.56
		c-0.65,1.25-1.47,2.41-2.21,3.61c-0.83,1.15-1.59,2.34-2.5,3.43c-3.48,4.47-7.9,8.27-12.94,10.95c-5.05,2.68-10.76,3.97-16.38,3.98
		c-5.64,0.04-11.18-0.99-16.55-2.48c-5.38-1.5-10.65-3.44-15.68-5.91c-5.01-2.5-9.74-5.54-14.22-8.87
		c-4.48-3.33-8.74-6.97-12.58-11.02L274.68,673.9z"/>
</g>
<g>
	<path d="M414.56,550.22c-0.27,5.33-0.29,10.58,0.42,15.73c0.32,2.56,0.77,5.19,1.96,7.54c1.16,2.35,3.02,4.34,5.25,5.63
		c2.23,1.3,4.72,1.98,7.23,2.37l1.91,0.2l1.93,0.01c1.28,0.04,2.58-0.14,3.87-0.18c5.18-0.48,10.31-1.72,15.53-2.94l0.07,0.19
		c-4.78,2.42-9.95,4.17-15.38,4.87c-2.72,0.21-5.5,0.29-8.23-0.29c-2.72-0.5-5.38-1.59-7.54-3.32c-2.19-1.7-3.87-3.89-5.2-6.23
		c-1.33-2.35-2.43-4.89-3.03-7.56c-0.59-2.67-0.67-5.42-0.49-8.12c0.2-2.7,0.62-5.38,1.51-7.94L414.56,550.22z"/>
</g>
<g>
	<path d="M401.9,566.51c-1.1,6.92-1.44,13.89-0.42,20.68c0.45,3.38,1.33,6.8,3.1,9.79c1.75,2.99,4.37,5.43,7.36,7.11
		c0.77,0.38,1.49,0.85,2.3,1.15l2.38,0.95l2.46,0.73c0.8,0.29,1.67,0.37,2.5,0.57c1.66,0.41,3.39,0.5,5.09,0.72
		c1.72,0.08,3.43,0.21,5.16,0.22c6.91,0.08,13.84-0.7,20.83-1.55l0.04,0.2c-6.72,2.09-13.74,3.4-20.88,3.49
		c-0.89,0.06-1.78-0.06-2.68-0.09c-0.89-0.06-1.79-0.07-2.67-0.19c-1.77-0.3-3.56-0.46-5.29-0.96l-1.31-0.32l-0.65-0.16l-0.64-0.23
		l-2.53-0.93c-0.81-0.4-1.61-0.81-2.41-1.22c-0.8-0.4-1.52-0.97-2.27-1.45c-2.94-2.07-5.4-4.71-7.32-7.7
		c-0.97-1.49-1.8-3.07-2.54-4.71c-0.33-0.83-0.64-1.67-0.94-2.52c-0.23-0.86-0.53-1.72-0.71-2.6c-0.75-3.52-0.82-7.14-0.5-10.68
		c0.36-3.54,1.08-7.04,2.36-10.35L401.9,566.51z"/>
</g>
<g>
	<path d="M298.05,538.36c1.81,6.82,4.25,13.37,7.46,19.52c1.56,3.09,3.32,6.15,5.64,8.77c2.31,2.63,5.13,4.79,8.22,6.38
		c6.21,3.13,13.17,4.28,20.04,3.74c6.89-0.38,13.72-2.06,20.46-4.16l0.08,0.18c-6.27,3.28-13.19,5.54-20.4,6.11
		c-1.79,0.19-3.61,0.1-5.41,0.04c-0.9-0.07-1.8-0.22-2.7-0.32c-0.45-0.07-0.9-0.1-1.34-0.2l-1.33-0.3
		c-3.54-0.76-6.96-2.14-9.95-4.14c-3.02-1.96-5.69-4.33-8.15-6.89c-2.46-2.56-4.75-5.34-6.62-8.4c-1.84-3.08-3.22-6.41-4.27-9.82
		c-1.03-3.42-1.76-6.93-1.94-10.49L298.05,538.36z"/>
</g>
<g>
	<path d="M433.1,316.49c5.42-2.29,11.25-3.57,17.14-4.03c0.74-0.05,1.48-0.07,2.22-0.1c0.74-0.04,1.48-0.05,2.22-0.02
		c0.74,0.02,1.48,0.02,2.23,0.05l2.22,0.2c0.74,0.05,1.48,0.16,2.21,0.3l2.2,0.37l2.17,0.54c0.72,0.18,1.45,0.35,2.15,0.62
		c5.68,1.84,10.99,4.92,15.3,9.05c4.33,4.12,7.67,9.12,10.3,14.39c2.69,5.26,4.5,10.88,6.14,16.5c0.69,2.85,1.53,5.67,1.99,8.57
		l0.85,4.32c0.28,1.44,0.43,2.9,0.65,4.35c1.71,11.63,2.06,23.42,1.76,35.15l-1.81-0.59c3.57-5.18,7.74-9.85,12.59-13.85
		c2.43-1.98,5.06-3.76,7.9-5.17c2.83-1.41,5.93-2.41,9.14-2.7c3.2-0.3,6.48,0.2,9.43,1.43c0.72,0.35,1.49,0.6,2.16,1.03l2.03,1.24
		c1.24,0.99,2.52,1.91,3.59,3.06c4.5,4.4,7.66,9.86,10.2,15.46l-0.18,0.09c-2.94-5.38-6.36-10.59-10.87-14.64
		c-4.37-4.15-10.32-6.59-16.19-5.83c-5.88,0.72-11.25,3.88-15.87,7.69c-2.34,1.91-4.52,4.02-6.57,6.26
		c-2.06,2.22-4.01,4.59-5.73,7.03l-1.94,2.75l0.12-3.33c0.43-11.65,0.39-23.34-0.8-34.95c-0.17-1.45-0.26-2.91-0.49-4.35l-0.71-4.32
		c-0.42-2.89-1.22-5.7-1.87-8.55c-1.58-5.6-3.48-11.17-6.39-16.22c-2.81-5.07-6.31-9.77-10.59-13.6c-4.26-3.84-9.25-6.83-14.69-8.66
		c-0.67-0.27-1.36-0.44-2.06-0.62l-2.08-0.57l-2.12-0.4c-0.7-0.14-1.41-0.27-2.13-0.34c-2.85-0.41-5.75-0.49-8.64-0.45
		c-5.78,0.24-11.58,1.17-17.13,3L433.1,316.49z"/>
</g>
<g>
	<path d="M591.85,388.04c0.68-6.15,1.2-12.32,0.83-18.4c0-0.76-0.14-1.51-0.23-2.26c-0.11-0.75-0.16-1.51-0.31-2.25l-0.48-2.2
		c-0.14-0.74-0.45-1.42-0.67-2.13c-0.99-2.78-2.55-5.36-4.87-7.1c-1.12-0.92-2.48-1.51-3.87-2c-0.71-0.19-1.44-0.36-2.17-0.5
		c-0.75-0.06-1.49-0.21-2.24-0.21c-3.02-0.11-6.09,0.4-9.03,1.26c-5.9,1.73-11.44,4.67-16.48,8.11l-0.92,0.63l-0.01-1.16
		c-0.06-5.77-0.96-11.66-3.07-16.97c-1.07-2.65-2.51-5.13-4.4-7.19c-1.86-2.09-4.22-3.65-6.83-4.61c-2.6-1.01-5.47-1.25-8.31-1.18
		c-1.43-0.02-2.85,0.23-4.28,0.4c-0.71,0.09-1.42,0.28-2.13,0.41c-0.7,0.16-1.43,0.26-2.12,0.48c-5.63,1.46-11.05,3.81-16.37,6.35
		l-0.1-0.17c5.02-3.12,10.34-5.82,16.04-7.67c0.7-0.26,1.44-0.4,2.17-0.6c0.73-0.17,1.45-0.41,2.19-0.53
		c1.49-0.24,2.97-0.54,4.5-0.58c3.02-0.2,6.17,0.04,9.11,1.1c2.95,1.03,5.63,2.85,7.68,5.19c2.05,2.34,3.54,5.07,4.62,7.91
		c1.08,2.84,1.78,5.79,2.16,8.76c0.39,2.98,0.53,5.95,0.34,8.97l-0.93-0.53c2.69-1.63,5.44-3.06,8.28-4.35
		c2.83-1.3,5.72-2.44,8.7-3.36c2.98-0.89,6.05-1.6,9.22-1.7c0.79-0.05,1.59,0.05,2.38,0.07c0.79,0.09,1.59,0.23,2.38,0.39
		c1.55,0.43,3.11,1.01,4.46,1.97l1,0.72c0.32,0.26,0.59,0.58,0.88,0.86c0.29,0.3,0.58,0.58,0.86,0.89l0.7,1.01
		c0.23,0.34,0.47,0.67,0.69,1.02l0.54,1.09l0.53,1.1c0.17,0.37,0.26,0.76,0.39,1.14c0.22,0.77,0.55,1.52,0.68,2.3l0.47,2.34
		c0.15,0.78,0.17,1.57,0.26,2.36c0.06,0.79,0.18,1.57,0.15,2.36c0.16,6.29-0.79,12.49-2.2,18.52L591.85,388.04z"/>
</g>
<g>
	<path d="M975.32,918.16c1.4-4.14,3.43-8.06,5.84-11.71c2.38-3.69,5.2-7.1,8.41-10.13c3.2-3.03,6.77-5.7,10.67-7.77
		c3.91-2.05,8.07-3.6,12.36-4.54c4.29-0.92,8.64-1.39,13-1.54l3.27,0.04c0.55,0.01,1.09,0,1.64,0.04l1.63,0.14
		c1.09,0.1,2.18,0.14,3.27,0.25l3.25,0.45c8.67,1.23,17.08,4.01,25.05,7.59l-1.12,0.21c3.15-3.31,6.33-6.6,9.53-9.86
		c3.22-3.25,6.43-6.5,9.69-9.7c3.26-3.2,6.49-6.44,9.8-9.59c3.29-3.18,6.6-6.33,9.96-9.44l0.14,0.14
		c-3.03,3.43-6.11,6.81-9.22,10.17c-3.08,3.38-6.24,6.68-9.37,10.01c-3.12,3.34-6.3,6.62-9.48,9.91c-3.19,3.27-6.41,6.52-9.64,9.75
		l-0.5,0.5l-0.62-0.29c-7.81-3.64-15.94-6.66-24.41-8.37c-4.22-0.95-8.55-1.25-12.87-1.31c-4.32,0.1-8.63,0.67-12.77,1.85
		c-4.15,1.15-8.09,2.93-11.78,5.07c-3.69,2.15-7.17,4.66-10.32,7.55c-6.31,5.77-11.49,12.85-15.23,20.66L975.32,918.16z"/>
</g>
<g>
	<path d="M940.9,968.75c6.39,4.45,13.29,7.95,20.54,10.49c3.6,1.31,7.34,2.41,11.19,2.87c3.85,0.45,7.76,0.22,11.55-0.5
		c7.58-1.45,14.72-4.5,21.13-8.69c6.49-4.08,12.38-9.13,17.97-14.58l0.15,0.13c-4.64,6.29-10.35,11.89-16.96,16.25
		c-1.63,1.12-3.39,2.05-5.14,2.98c-0.87,0.48-1.81,0.82-2.7,1.24c-0.91,0.4-1.81,0.81-2.75,1.12c-3.69,1.45-7.62,2.26-11.53,2.65
		c-3.92,0.39-7.85,0.37-11.76,0.07c-3.9-0.31-7.83-0.85-11.64-1.93c-3.8-1.09-7.42-2.77-10.82-4.76c-3.4-1.99-6.59-4.36-9.34-7.17
		L940.9,968.75z"/>
</g>
<g>
	<path d="M927.56,994.07c3.79,3.08,7.57,5.98,11.52,8.66c1.95,1.37,3.93,2.78,6.14,3.72c2.21,0.95,4.59,1.48,6.97,1.56
		c2.38,0.08,4.71-0.22,6.93-0.86c2.22-0.65,4.27-1.74,6.2-3c3.82-2.64,7.02-6.22,10.02-10.07l0.17,0.1
		c-1.9,4.51-4.89,8.67-8.97,11.72c-4.16,2.88-9.55,4.25-14.46,3.19c-2.45-0.45-4.79-1.22-7.09-2.05c-2.3-0.84-4.63-1.7-6.79-2.91
		c-2.15-1.22-4.11-2.74-5.93-4.4c-1.8-1.67-3.49-3.47-4.85-5.54L927.56,994.07z"/>
</g>
<g>
	<path d="M882.68,1052.14c1.81-2,4.02-3.6,6.39-4.9c2.38-1.29,4.98-2.28,7.72-2.61c2.74-0.34,5.5,0.01,8.1,0.67
		c2.61,0.67,5.11,1.73,7.4,3.2c2.29,1.46,4.38,3.29,6.04,5.44c0.46,0.51,0.83,1.07,1.23,1.62c0.39,0.55,0.81,1.09,1.18,1.66
		c0.36,0.57,0.7,1.16,1.04,1.74c0.34,0.58,0.69,1.16,0.97,1.78c2.38,4.84,3.97,10.01,4.83,15.27l-0.19,0.05
		c-2.09-4.9-4.07-9.76-6.53-14.35c-2.35-4.63-5.29-8.94-9.21-12.33c-1.97-1.67-4.34-2.95-6.9-3.45c-2.57-0.53-5.2-0.21-7.68,0.34
		c-5.01,1.02-9.74,3.26-14.26,6.02L882.68,1052.14z"/>
</g>
<g>
	<path d="M951.38,946.05c-1.6-1.69-2.9-3.63-3.99-5.69c-1.11-2.05-1.86-4.31-2.3-6.63c-0.42-2.32-0.48-4.75,0-7.11
		c0.46-2.35,1.38-4.61,2.65-6.63c0.29-0.52,0.65-1,1-1.48c0.35-0.48,0.69-0.97,1.09-1.41l1.17-1.34l1.27-1.23
		c0.84-0.84,1.8-1.52,2.69-2.29c0.96-0.67,1.91-1.37,2.9-1.98c3.98-2.47,8.25-4.33,12.58-5.94l-0.02,0.9
		c-4.24-2.2-8.29-4.64-12.22-7.3c-1.96-1.33-3.87-2.75-5.7-4.26c-1.85-1.5-3.62-3.1-5.26-4.84c-1.65-1.73-3.15-3.63-4.4-5.71
		c-1.27-2.07-2.17-4.4-2.63-6.84c-0.42-2.45-0.29-5.02,0.44-7.41c0.73-2.39,1.95-4.59,3.43-6.55c1.48-1.96,3.2-3.7,5.04-5.28
		c1.86-1.55,3.82-2.95,5.84-4.25c4.08-2.54,8.37-4.66,12.76-6.5c8.77-3.71,17.88-6.43,27.09-8.61l0.05,0.19
		c-4.48,1.52-8.94,3.05-13.37,4.69c-4.4,1.69-8.78,3.42-13.04,5.39c-4.25,1.99-8.43,4.12-12.34,6.64c-3.9,2.51-7.61,5.37-10.44,8.94
		c-1.4,1.78-2.54,3.76-3.23,5.88c-0.68,2.12-0.85,4.38-0.56,6.6c0.67,4.46,3.14,8.58,6.16,12.11c1.52,1.77,3.2,3.42,4.96,4.98
		c1.79,1.53,3.66,2.96,5.58,4.31c3.86,2.68,7.99,5.04,12.27,6.93l1.02,0.45l-1.04,0.45c-4.2,1.81-8.27,3.91-12.01,6.44
		c-0.95,0.61-1.82,1.33-2.74,1.97c-0.84,0.74-1.76,1.39-2.55,2.19c-1.67,1.49-3.1,3.22-4.31,5.06c-2.45,3.68-3.51,8.21-2.9,12.64
		c0.6,4.43,2.52,8.71,5.24,12.37L951.38,946.05z"/>
</g>
</svg>
