<?xml version="1.0" encoding="utf-8"?>
<!-- Generator: Adobe Illustrator 23.0.1, SVG Export Plug-In . SVG Version: 6.00 Build 0)  -->
<svg version="1.1" xmlns="http://www.w3.org/2000/svg" xmlns:xlink="http://www.w3.org/1999/xlink" x="0px" y="0px"
	 viewBox="0 0 500 500" style="enable-background:new 0 0 500 500;" xml:space="preserve">
<style type="text/css">
	.st0{fill:#EBEBEB;}
	.st1{fill:#FFFFFF;}
	.st2{fill:#E0E0E0;}
	.st3{fill:#FAFAFA;}
	.st4{fill:#F5F5F5;}
	.st5{fill:#455A64;}
	.st6{fill:none;stroke:#FFFFFF;stroke-miterlimit:10;}
	.st7{display:none;}
	.st8{display:inline;fill:#EBEBEB;}
	.st9{fill:#263238;}
	.st10{fill:#E8505B;}
	.st11{fill:#FAFAFA;stroke:#000000;stroke-width:0.75;stroke-miterlimit:10;}
	.st12{fill:#263238;stroke:#000000;stroke-width:0.75;stroke-miterlimit:10;}
	.st13{fill:#A36957;}
	.st14{fill:#7C3B29;}
	.st15{opacity:0.3;}
</style>
<g id="Background_Complete">
	<g>
		<g>
			<g>
				<g>
					<path class="st0" d="M102.17,330.99l-49.18,10.53c-3.44,0.74-6.83-1.46-7.56-4.9l-10.53-49.18c-0.74-3.44,1.46-6.83,4.9-7.56
						l49.18-10.53c3.44-0.74,6.83,1.46,7.56,4.9l10.53,49.18C107.8,326.86,105.61,330.25,102.17,330.99z"/>
				</g>
			</g>
		</g>
		<g>
			<path class="st1" d="M93.28,311.37c-0.03-0.49-0.2-0.92-0.37-1.33c-0.05-0.13-0.11-0.26-0.17-0.43c-1.1-2.22-3.14-3.58-4.8-4.53
				c-1.72-0.94-3.61-1.67-5.76-2.22l-0.24-0.06c-0.16-0.04-0.33,0.03-0.42,0.17l-3.9,6.69l-14.35-9.21l3.91-7.22
				c0.05-0.09,0.06-0.2,0.03-0.29c-0.03-0.1-0.1-0.18-0.19-0.22l-3.3-1.58c-0.54-0.25-0.87-0.41-1.1-0.48
				c-0.08-0.05-0.18-0.1-0.32-0.17c-0.06-0.02-0.12-0.06-0.19-0.09c-0.19-0.1-0.44-0.22-0.74-0.32c-0.82-0.31-2.18-0.66-3.93-0.6
				c-1.22,0.05-3.6,0.41-5.85,2.22c-2.28,1.81-3.59,4.6-3.52,7.45c0.04,1.65,0.83,3.35,2.12,4.54c0.64,0.62,1.41,1.11,2.08,1.53
				l21.84,13.98c0.27,0.17,0.54,0.34,0.81,0.51c0.63,0.41,1.27,0.82,1.99,1.19c1.01,0.52,2.11,0.91,3.27,1.14
				c0.78,0.16,1.58,0.24,2.37,0.24c1.6,0,3.18-0.33,4.61-0.97c2.16-0.94,3.97-2.66,5.1-4.84c0.23-0.42,0.51-1,0.68-1.63l0.09-0.29
				c0.15-0.46,0.3-0.94,0.3-1.45l0.07-0.94L93.28,311.37z M65.93,293.33l-4.1,7.22c-0.1,0.17-0.05,0.39,0.12,0.5l15.79,10.36
				c0.09,0.06,0.19,0.08,0.29,0.05c0.1-0.02,0.19-0.09,0.24-0.17l4.07-6.89c1.8,0.5,3.44,1.16,4.88,1.96
				c1.36,0.77,3.27,2.01,4.16,3.85c0.05,0.14,0.1,0.28,0.16,0.42c0.13,0.31,0.25,0.6,0.26,0.94l0.11,0.66l-0.07,0.8
				c0,0.35-0.11,0.7-0.23,1.08l-0.1,0.31c-0.11,0.4-0.29,0.83-0.58,1.38c-0.98,1.89-2.54,3.37-4.39,4.17
				c-1.86,0.83-4.02,1.05-6.08,0.63c-1.03-0.21-2-0.55-2.89-1c-0.63-0.32-1.26-0.72-1.87-1.12c-0.27-0.18-0.55-0.35-0.82-0.52
				L52.99,304.1c-0.66-0.41-1.35-0.84-1.91-1.37c-1.07-0.97-1.7-2.29-1.75-3.62c-0.11-2.9,1.47-5.26,2.99-6.5
				c1.97-1.65,4.08-2.02,5.17-2.09c0.23-0.01,0.45-0.02,0.67-0.02c2.01,0,3.26,0.52,3.82,0.76c0.13,0.06,0.24,0.1,0.33,0.12
				c0.2,0.13,0.51,0.3,0.99,0.56L65.93,293.33z"/>
			<path class="st1" d="M72.66,295.53c0.6,0,1.84-0.17,4.39-0.7c0.84,4.22,1.15,4.67,1.46,4.67c0.04,0,0.08-0.01,0.12-0.02
				c0,0,0,0,0,0c0.35-0.07,0.63-0.14-0.27-4.93c4.89-1.06,4.85-1.34,4.78-1.69c0,0,0,0,0,0c-0.02-0.1-0.09-0.2-0.17-0.26
				c-0.28-0.19-1.93,0.03-4.86,0.64c-0.57-2.85-1-4.4-1.28-4.59c-0.08-0.06-0.2-0.08-0.3-0.06c-0.1,0.02-0.2,0.09-0.26,0.17
				c-0.19,0.28-0.01,1.89,0.53,4.76c-4.49,0.98-4.67,1.3-4.74,1.42c-0.05,0.1-0.06,0.23-0.02,0.33
				C72.09,295.41,72.13,295.53,72.66,295.53z"/>
		</g>
	</g>
	<g>
		<g>
			<g>
				<g>
					<rect x="369.01" y="13.13" class="st2" width="109.21" height="180.77"/>
				</g>
			</g>
		</g>
		<g>
			<g>
				<g>
					<rect x="365.38" y="13.13" class="st0" width="109.21" height="180.77"/>
				</g>
			</g>
		</g>
		<g>
			<g>
				<g>
					<rect x="370.03" y="16.79" class="st3" width="99.91" height="173.44"/>
				</g>
			</g>
		</g>
		<g>
			<g>
				<g>
					<g>
						<rect x="389.05" y="39.33" class="st0" width="61.43" height="128.36"/>
					</g>
				</g>
			</g>
			<g>
				<g>
					<g>
						<path class="st2" d="M389.05,122.27c-0.14-11.99,10.64-23.7,22.51-25.37c5.66-0.8,11.68,0.33,16.97-1.84
							c9.44-3.87,12.45-16.42,21.95-20.14l0.43,92.78h-61.87V122.27z"/>
					</g>
				</g>
			</g>
		</g>
	</g>
	<g>
		<g>
			<g>
				<g>
					<g>
						<g>
							<g>
								<g>
									<g>
										<g>
											<g>
												<rect x="203.08" y="17.93" class="st2" width="84" height="87.57"/>
											</g>
										</g>
									</g>
								</g>
							</g>
						</g>
					</g>
				</g>
			</g>
		</g>
		<g>
			<g>
				<g>
					<g>
						<g>
							<g>
								<g>
									<g>
										<g>
											<g>
												<rect x="197.39" y="17.93" class="st3" width="84" height="87.57"/>
											</g>
										</g>
									</g>
								</g>
							</g>
						</g>
					</g>
				</g>
			</g>
			<g>
				<g>
					<g>
						<g>
							<g>
								<g>
									<g>
										<g>
											<g>
												<path class="st2" d="M281.42,105.52h-84.05V17.91h84.05V105.52z M197.42,105.47h83.95V17.96h-83.95V105.47z"/>
											</g>
										</g>
									</g>
								</g>
							</g>
						</g>
					</g>
				</g>
			</g>
		</g>
		<g>
			<g>
				<g>
					<g>
						<g>
							<g>
								<g>
									<g>
										<g>
											<g>
												<rect x="208.68" y="29.7" class="st3" width="61.42" height="64.02"/>
											</g>
										</g>
									</g>
								</g>
							</g>
						</g>
					</g>
				</g>
			</g>
		</g>
		<g>
			<g>
				<g>
					<g>
						<g>
							<g>
								<g>
									<g>
										<g>
											<g>
												<g>
													<path class="st2" d="M208.68,94.15c0.05,0.06-0.53,0.73-1.52,1.76c-0.98,1.03-2.36,2.44-3.9,3.96
														c-1.55,1.52-2.97,2.88-4.01,3.84c-1.05,0.96-1.72,1.53-1.78,1.48c-0.05-0.05,0.53-0.72,1.51-1.75
														c0.98-1.03,2.36-2.44,3.91-3.97c1.55-1.53,2.97-2.89,4.02-3.85C207.96,94.66,208.63,94.1,208.68,94.15z"/>
												</g>
											</g>
										</g>
									</g>
								</g>
							</g>
						</g>
					</g>
				</g>
			</g>
		</g>
		<g>
			<g>
				<g>
					<g>
						<g>
							<g>
								<g>
									<g>
										<g>
											<g>
												<g>
													<path class="st2" d="M270.1,94c0.06-0.05,0.73,0.53,1.76,1.52c1.04,0.98,2.44,2.36,3.96,3.9
														c1.52,1.55,2.88,2.97,3.84,4.01c0.96,1.05,1.53,1.72,1.48,1.78c-0.05,0.05-0.72-0.53-1.76-1.51
														c-1.03-0.98-2.44-2.36-3.97-3.91c-1.53-1.55-2.88-2.97-3.85-4.02C270.61,94.72,270.04,94.04,270.1,94z"/>
												</g>
											</g>
										</g>
									</g>
								</g>
							</g>
						</g>
					</g>
				</g>
			</g>
		</g>
		<g>
			<g>
				<g>
					<g>
						<g>
							<g>
								<g>
									<g>
										<g>
											<g>
												<g>
													<path class="st2" d="M269.93,29.88c-0.05-0.06,0.53-0.73,1.52-1.76c0.98-1.04,2.36-2.44,3.9-3.96
														c1.55-1.52,2.97-2.88,4.01-3.84c1.05-0.96,1.72-1.53,1.78-1.48c0.05,0.05-0.53,0.72-1.51,1.75
														c-0.98,1.04-2.36,2.44-3.91,3.97c-1.55,1.53-2.97,2.88-4.02,3.85C270.65,29.37,269.98,29.93,269.93,29.88z"/>
												</g>
											</g>
										</g>
									</g>
								</g>
							</g>
						</g>
					</g>
				</g>
			</g>
		</g>
		<g>
			<g>
				<g>
					<g>
						<g>
							<g>
								<g>
									<g>
										<g>
											<g>
												<g>
													<path class="st2" d="M208.51,30.03c-0.06,0.05-0.73-0.53-1.76-1.52c-1.04-0.98-2.44-2.36-3.96-3.9
														c-1.52-1.55-2.88-2.97-3.84-4.01c-0.96-1.05-1.53-1.72-1.48-1.77c0.05-0.05,0.72,0.53,1.75,1.51
														c1.04,0.98,2.44,2.36,3.97,3.91c1.53,1.55,2.89,2.97,3.85,4.02C208.01,29.31,208.57,29.98,208.51,30.03z"/>
												</g>
											</g>
										</g>
									</g>
								</g>
							</g>
						</g>
					</g>
				</g>
			</g>
		</g>
		<g>
			<g>
				<g>
					<g>
						<g>
							<g>
								<g>
									<g>
										<g>
											<g>
												<g>
													<path class="st2" d="M269.93,93.73c0,0-0.01-0.11-0.01-0.31c0-0.22-0.01-0.51-0.01-0.89c-0.01-0.8-0.02-1.96-0.03-3.46
														c-0.01-3.03-0.04-7.45-0.06-13.05c-0.03-11.21-0.07-27.19-0.12-46.31l0.24,0.24c-17.88,0.01-38.88,0.02-61.24,0.04
														h-0.01l0.27-0.27c-0.01,23.5-0.03,45.48-0.04,64.02l-0.23-0.23c18.35,0.05,33.63,0.09,44.35,0.12
														c5.35,0.03,9.56,0.05,12.46,0.06c1.43,0.01,2.53,0.02,3.3,0.03c0.36,0.01,0.64,0.01,0.85,0.01
														C269.83,93.72,269.93,93.72,269.93,93.73c0,0-0.09,0.01-0.27,0.01c-0.2,0-0.47,0.01-0.83,0.01
														c-0.76,0.01-1.84,0.02-3.25,0.03c-2.88,0.01-7.07,0.03-12.4,0.06c-10.75,0.03-26.08,0.07-44.5,0.12l-0.23,0l0-0.23
														c-0.01-18.54-0.02-40.52-0.04-64.02l0-0.27h0.27h0.01c22.37,0.01,43.36,0.02,61.24,0.03h0.24l0,0.24
														c-0.05,19.19-0.09,35.22-0.12,46.47c-0.03,5.58-0.05,9.97-0.06,12.99c-0.01,1.48-0.02,2.62-0.03,3.41
														c-0.01,0.37-0.01,0.66-0.01,0.87C269.94,93.64,269.94,93.73,269.93,93.73z"/>
												</g>
											</g>
										</g>
									</g>
								</g>
							</g>
						</g>
					</g>
				</g>
			</g>
		</g>
		<g>
			<g>
				<g>
					<g>
						<g>
							<g>
								<g>
									<g>
										<g>
											<g>
												<rect x="229.14" y="51.47" class="st0" width="20.49" height="20.49"/>
											</g>
										</g>
									</g>
								</g>
							</g>
						</g>
					</g>
				</g>
			</g>
		</g>
	</g>
	<g>
		<g>
			<g>
				<g>
					<g>
						<g>
							<g>
								<g>
									<path class="st4" d="M243.4,390.19c19.48-19.5,19.38-49.25,13.89-75.02c-0.92-4.3-1.25-8.95-3.99-12.38
										c-2.74-3.43-8-5.17-11.55-2.66c-2.94,2.09-3.68,6.07-4.93,9.49c-1.66,4.54-4.62,8.58-8.42,11.5
										c-2.5,1.92-5.76,3.4-8.74,2.39c-4.1-1.39-5.46-6.47-6.2-10.78c-1.38-8.03-2.76-16.06-4.14-24.1
										c-0.74-4.31-1.51-8.71-3.58-12.55c-2.07-3.85-5.7-7.12-10-7.53c-4.3-0.42-8.94,2.85-9.06,7.21
										c-0.05,1.82,0.63,3.57,0.83,5.38c0.2,1.81-0.28,3.93-1.89,4.73c-1.63,0.81-3.57-0.1-5.08-1.13
										c-5.22-3.55-9.23-8.62-13.04-13.68c-3.81-5.07-7.56-10.28-12.44-14.3c-4.88-4.02-11.12-6.79-17.35-6.04
										c-6.23,0.75-12.12,5.72-12.6,12.05c-0.48,6.35,4.16,11.87,8.88,16.1c7.01,6.27,14.92,11.51,23.4,15.51
										c1.53,0.72,3.18,1.5,3.99,3c1.45,2.7-0.77,6.04-3.43,7.49c-3.02,1.64-6.56,1.93-9.85,2.92c-3.29,0.99-6.66,3.12-7.36,6.52
										c-0.98,4.71,3.52,8.67,7.68,11.05c8.33,4.76,17.46,8.06,26.87,9.72c3.37,0.59,6.89,1.02,9.84,2.79
										c2.95,1.77,5.18,5.36,4.18,8.67c-1,3.31-4.79,4.99-8.22,4.96c-3.43-0.02-6.72-1.3-10.09-1.93
										c-6.31-1.18-13.88,0.59-16.76,6.38c-1.89,3.8-1.28,8.52,0.7,12.3c1.97,3.78,5.14,6.78,8.42,9.48
										c11.46,9.43,25.2,16.23,39.77,18.54C217.7,398.58,230.65,397.6,243.4,390.19"/>
								</g>
							</g>
						</g>
					</g>
				</g>
			</g>
		</g>
		<g>
			<g>
				<g>
					<g>
						<g>
							<g>
								<g>
									<g>
										<path class="st2" d="M233.81,375.13c-6.15-12.41-14.01-25.44-22.71-38.8c-2.19-3.33-4.35-6.62-6.47-9.86
											c-2.13-3.23-4.25-6.44-6.51-9.45c-4.5-6.04-9.28-11.5-13.99-16.54c-4.7-5.05-9.35-9.66-13.73-13.95
											c-4.39-4.28-8.55-8.19-12.5-11.59c-7.88-6.83-14.87-11.58-19.81-14.65c-2.47-1.54-4.42-2.67-5.75-3.42
											c-0.64-0.35-1.14-0.63-1.52-0.84c-0.34-0.19-0.52-0.27-0.53-0.26c-0.01,0.01,0.16,0.13,0.49,0.33
											c0.37,0.23,0.86,0.53,1.48,0.91c1.31,0.8,3.23,1.97,5.67,3.55c4.88,3.14,11.79,7.95,19.6,14.82
											c3.91,3.42,8.05,7.34,12.41,11.64c4.35,4.3,8.98,8.93,13.66,13.98c4.68,5.04,9.43,10.5,13.9,16.51
											c2.25,2.99,4.34,6.17,6.47,9.42c2.13,3.24,4.28,6.53,6.47,9.86c8.69,13.35,16.55,26.34,22.72,38.69"/>
									</g>
								</g>
							</g>
						</g>
					</g>
				</g>
			</g>
		</g>
		<g>
			<g>
				<g>
					<g>
						<g>
							<g>
								<g>
									<g>
										<path class="st2" d="M197.88,317.02c0.05,0,0.08-0.68,0.09-1.91c0.01-1.23-0.02-3.01-0.1-5.21
											c-0.15-4.39-0.58-10.46-1.06-17.14c-0.49-6.68-0.82-12.73-0.91-17.12c-0.05-2.19-0.07-3.97-0.07-5.19
											c-0.01-1.23-0.04-1.91-0.09-1.91c-0.06,0-0.13,0.67-0.22,1.9c-0.1,1.23-0.16,3.01-0.18,5.21
											c-0.06,4.4,0.19,10.48,0.68,17.17c0.5,6.59,0.95,12.55,1.3,17.11c0.14,2.06,0.26,3.79,0.36,5.19
											C197.75,316.34,197.83,317.02,197.88,317.02z"/>
									</g>
								</g>
							</g>
						</g>
					</g>
				</g>
			</g>
		</g>
		<g>
			<g>
				<g>
					<g>
						<g>
							<g>
								<g>
									<g>
										<path class="st2" d="M140.7,316.54c0.01,0.06,0.81,0.01,2.25-0.13c1.44-0.13,3.53-0.32,6.11-0.48
											c5.17-0.36,12.32-0.6,20.23-0.52c7.91,0.09,15.06,0.48,20.22,0.91c2.59,0.2,4.67,0.41,6.12,0.55
											c1.44,0.15,2.25,0.2,2.25,0.15c0.01-0.06-0.78-0.22-2.22-0.46c-1.43-0.24-3.52-0.54-6.1-0.81
											c-5.17-0.58-12.34-1.06-20.27-1.15c-7.93-0.08-15.11,0.25-20.28,0.76c-2.59,0.23-4.67,0.51-6.11,0.74
											C141.48,316.33,140.69,316.48,140.7,316.54z"/>
									</g>
								</g>
							</g>
						</g>
					</g>
				</g>
			</g>
		</g>
		<g>
			<g>
				<g>
					<g>
						<g>
							<g>
								<g>
									<g>
										<path class="st2" d="M232.95,374.23c0.03,0.01,0.12-0.25,0.26-0.74c0.16-0.59,0.35-1.3,0.59-2.17
											c0.5-1.89,1.16-4.64,1.93-8.05c1.54-6.82,3.37-16.3,5.25-26.79c1.88-10.49,3.62-19.98,5.02-26.82
											c0.69-3.33,1.26-6.06,1.68-8.09c0.18-0.88,0.32-1.61,0.44-2.21c0.09-0.51,0.13-0.77,0.1-0.78
											c-0.03-0.01-0.12,0.25-0.26,0.74c-0.16,0.59-0.35,1.3-0.59,2.17c-0.5,1.89-1.16,4.64-1.93,8.05
											c-1.54,6.82-3.37,16.3-5.25,26.79c-1.88,10.49-3.62,19.98-5.02,26.82c-0.69,3.32-1.26,6.06-1.68,8.09
											c-0.18,0.88-0.32,1.61-0.44,2.21C232.95,373.95,232.92,374.22,232.95,374.23z"/>
									</g>
								</g>
							</g>
						</g>
					</g>
				</g>
			</g>
		</g>
		<g>
			<g>
				<g>
					<g>
						<g>
							<g>
								<g>
									<g>
										<path class="st2" d="M155.18,363.63c0,0.03,0.27,0.09,0.78,0.17c0.61,0.09,1.36,0.2,2.26,0.34
											c2.09,0.29,4.9,0.68,8.33,1.15c7.03,0.97,16.73,2.43,27.45,4.05c10.72,1.62,20.44,2.99,27.5,3.82
											c3.53,0.41,6.39,0.72,8.36,0.89c0.91,0.07,1.67,0.13,2.28,0.18c0.52,0.03,0.8,0.04,0.8,0.01c0-0.03-0.27-0.09-0.78-0.17
											c-0.61-0.09-1.36-0.2-2.26-0.33c-2.09-0.29-4.9-0.68-8.33-1.15c-7.03-0.97-16.73-2.43-27.45-4.05
											c-10.72-1.62-20.44-2.99-27.49-3.81c-3.53-0.41-6.39-0.72-8.37-0.89c-0.91-0.07-1.67-0.14-2.28-0.18
											C155.46,363.6,155.18,363.6,155.18,363.63z"/>
									</g>
								</g>
							</g>
						</g>
					</g>
				</g>
			</g>
		</g>
	</g>
	<g>
		<g>
			<g>
				<g>
					<g>
						<g>
							<g>
								<g>
									<g>
										
											<rect x="31.45" y="18.95" transform="matrix(1 2.293248e-03 -2.293248e-03 1 0.1283 -0.1532)" class="st2" width="70.86" height="73.87"/>
									</g>
								</g>
							</g>
						</g>
					</g>
				</g>
			</g>
			<g>
				<g>
					<g>
						<g>
							<g>
								<g>
									<g>
										
											<rect x="26.65" y="18.94" transform="matrix(1 2.293242e-03 -2.293242e-03 1 0.1283 -0.1422)" class="st5" width="70.86" height="73.87"/>
									</g>
								</g>
							</g>
						</g>
					</g>
				</g>
				<g>
					<g>
						<g>
							<g>
								<g>
									<g>
										<path class="st4" d="M97.45,92.9l-70.9-0.16l0.17-73.91L97.62,19L97.45,92.9z"/>
									</g>
								</g>
							</g>
						</g>
					</g>
				</g>
			</g>
			<g>
				<g>
					<g>
						<g>
							<g>
								<g>
									<g>
										
											<rect x="36.18" y="28.87" transform="matrix(1 2.293037e-03 -2.293037e-03 1 0.1283 -0.1422)" class="st1" width="51.81" height="54.01"/>
									</g>
								</g>
							</g>
						</g>
					</g>
				</g>
			</g>
			<g>
				<g>
					<g>
						<g>
							<g>
								<g>
									<g>
										<g>
											<path class="st2" d="M36.12,83.17c0.04,0.05-0.45,0.61-1.28,1.48c-0.83,0.87-1.99,2.05-3.3,3.33
												c-1.31,1.28-2.51,2.42-3.39,3.23c-0.89,0.81-1.46,1.29-1.5,1.24c-0.04-0.04,0.45-0.61,1.27-1.48
												c0.83-0.87,2-2.05,3.31-3.34c1.31-1.28,2.51-2.43,3.4-3.24C35.51,83.6,36.07,83.12,36.12,83.17z"/>
										</g>
									</g>
								</g>
							</g>
						</g>
					</g>
				</g>
			</g>
			<g>
				<g>
					<g>
						<g>
							<g>
								<g>
									<g>
										<g>
											<path class="st2" d="M87.92,83.16c0.05-0.04,0.61,0.45,1.48,1.28c0.87,0.83,2.05,1.99,3.33,3.3
												c1.28,1.31,2.42,2.51,3.23,3.39c0.81,0.89,1.29,1.46,1.24,1.5c-0.05,0.04-0.61-0.45-1.48-1.28
												c-0.87-0.83-2.05-2-3.34-3.31c-1.28-1.31-2.43-2.51-3.24-3.4C88.35,83.77,87.88,83.2,87.92,83.16z"/>
										</g>
									</g>
								</g>
							</g>
						</g>
					</g>
				</g>
			</g>
			<g>
				<g>
					<g>
						<g>
							<g>
								<g>
									<g>
										<g>
											<path class="st2" d="M87.91,29.07c-0.04-0.05,0.45-0.61,1.28-1.48c0.83-0.87,1.99-2.05,3.3-3.33
												c1.31-1.28,2.51-2.42,3.39-3.23c0.89-0.81,1.46-1.29,1.5-1.24c0.04,0.05-0.45,0.61-1.27,1.48
												c-0.83,0.87-2,2.05-3.31,3.34c-1.31,1.28-2.51,2.43-3.4,3.24C88.51,28.64,87.95,29.12,87.91,29.07z"/>
										</g>
									</g>
								</g>
							</g>
						</g>
					</g>
				</g>
			</g>
			<g>
				<g>
					<g>
						<g>
							<g>
								<g>
									<g>
										<g>
											<path class="st2" d="M36.1,29.08c-0.05,0.04-0.61-0.45-1.48-1.28c-0.87-0.83-2.05-1.99-3.33-3.3
												c-1.28-1.31-2.42-2.51-3.23-3.39c-0.81-0.89-1.29-1.46-1.24-1.5c0.05-0.04,0.61,0.45,1.48,1.27
												c0.87,0.83,2.05,2,3.34,3.31c1.28,1.31,2.43,2.51,3.24,3.4C35.67,28.47,36.15,29.04,36.1,29.08z"/>
										</g>
									</g>
								</g>
							</g>
						</g>
					</g>
				</g>
			</g>
			<g>
				<g>
					<g>
						<g>
							<g>
								<g>
									<g>
										<g>
											<path class="st2" d="M87.78,82.93c0,0-0.01-0.09-0.01-0.26c0-0.18-0.01-0.43-0.01-0.75c0-0.68-0.01-1.65-0.02-2.92
												c-0.01-2.56-0.02-6.28-0.03-11.01c0-9.46-0.01-22.93-0.01-39.07l0.2,0.2c-15.08-0.03-32.79-0.06-51.66-0.09h0l0.23-0.23
												c-0.06,19.82-0.11,38.37-0.16,54.01l-0.2-0.2c15.48,0.08,28.37,0.14,37.41,0.19c4.52,0.03,8.07,0.06,10.51,0.08
												c1.21,0.01,2.13,0.02,2.78,0.03c0.31,0.01,0.54,0.01,0.72,0.01C87.7,82.92,87.78,82.93,87.78,82.93
												c0,0-0.07,0.01-0.23,0.01c-0.17,0-0.4,0.01-0.7,0.01c-0.64,0-1.55,0.01-2.74,0.02c-2.43,0.01-5.97,0.02-10.46,0.03
												c-9.07,0-22,0.01-37.54,0.01h-0.2l0-0.2c0.03-15.64,0.06-34.18,0.09-54.01l0-0.23l0.23,0h0
												c18.87,0.05,36.58,0.1,51.66,0.15l0.2,0l0,0.2c-0.08,16.19-0.15,29.71-0.19,39.2c-0.03,4.71-0.06,8.41-0.08,10.96
												c-0.01,1.25-0.02,2.21-0.03,2.88c-0.01,0.31-0.01,0.55-0.01,0.73C87.79,82.85,87.79,82.93,87.78,82.93z"/>
										</g>
									</g>
								</g>
							</g>
						</g>
					</g>
				</g>
			</g>
		</g>
		<g>
			<g>
				<g>
					<g>
						<g>
							<g>
								<g>
									<path class="st4" d="M52.5,70.48c-3.9-3.93-4.12-10.91-0.48-15.08c1.44-1.65,3.36-2.85,4.7-4.59
										c2.9-3.76,2.87-9.69,6.89-12.21c2.94-1.83,7.14-0.77,9.28,1.95c2.13,2.73,2.3,6.68,0.91,9.85
										c-1.03,2.34-2.82,4.32-3.56,6.77c-0.75,2.5-0.33,5.25-1.12,7.74c-0.95,3.01-4.14,4.91-7.1,6
										C59.06,72.02,55.26,71.75,52.5,70.48"/>
								</g>
							</g>
						</g>
					</g>
				</g>
			</g>
			<g>
				<g>
					<g>
						<g>
							<g>
								<g>
									<g>
										<path class="st2" d="M67.13,45.64c0.03,0.01-0.15,0.52-0.5,1.43c-0.35,0.91-0.9,2.21-1.62,3.79
											c-1.43,3.17-3.62,7.47-6.43,11.98c-2.81,4.51-5.7,8.37-7.92,11.06c-1.11,1.34-2.03,2.41-2.69,3.12
											c-0.66,0.72-1.03,1.1-1.06,1.08c-0.02-0.02,0.3-0.45,0.92-1.2c0.62-0.75,1.5-1.84,2.57-3.21c2.14-2.73,4.98-6.6,7.78-11.1
											c2.8-4.5,5.02-8.75,6.53-11.88c0.75-1.56,1.35-2.84,1.75-3.72C66.86,46.11,67.1,45.63,67.13,45.64z"/>
									</g>
								</g>
							</g>
						</g>
					</g>
				</g>
			</g>
			<g>
				<g>
					<g>
						<g>
							<g>
								<g>
									<g>
										<path class="st2" d="M56.39,54.97c0.06-0.01,0.21,1.03,0.41,2.73c0.2,1.7,0.45,4.08,0.7,6.77l-0.35-0.18
											c0.36-0.21,0.74-0.43,1.12-0.65c2.59-1.5,4.95-2.84,6.67-3.79c1.72-0.95,2.8-1.51,2.83-1.45
											c0.03,0.06-0.99,0.72-2.67,1.74c-1.68,1.02-4.01,2.41-6.61,3.91c-0.38,0.22-0.76,0.44-1.12,0.65l-0.31,0.18l-0.03-0.36
											c-0.24-2.69-0.44-5.07-0.55-6.78C56.37,56.02,56.33,54.98,56.39,54.97z"/>
									</g>
								</g>
							</g>
						</g>
					</g>
				</g>
			</g>
			<g>
				<g>
					<g>
						<g>
							<g>
								<g>
									<g>
										<path class="st2" d="M70.01,51.01c0.03,0.06-0.64,0.43-1.75,0.97c-1.1,0.55-2.64,1.28-4.36,2.05
											c-0.18,0.08-0.36,0.16-0.53,0.24l-0.28,0.13l-0.05-0.3c-0.27-1.73-0.48-3.27-0.61-4.38c-0.13-1.11-0.18-1.8-0.12-1.81
											c0.06-0.01,0.22,0.66,0.44,1.76c0.22,1.1,0.48,2.63,0.76,4.36l-0.33-0.18c0.17-0.08,0.35-0.16,0.53-0.24
											c1.71-0.78,3.27-1.46,4.41-1.93C69.26,51.21,69.98,50.95,70.01,51.01z"/>
									</g>
								</g>
							</g>
						</g>
					</g>
				</g>
			</g>
		</g>
		<g>
			<g>
				<g>
					<g>
						<g>
							<g>
								<g>
									<path class="st6" d="M34.33,19.9"/>
								</g>
							</g>
						</g>
					</g>
				</g>
			</g>
		</g>
	</g>
</g>
<g id="Background_Simple" class="st7">
	
		<ellipse transform="matrix(0.232 -0.9727 0.9727 0.232 177.885 493.6213)" class="st8" cx="401.56" cy="134.15" rx="23.08" ry="23.08"/>
	<path class="st8" d="M273.75,312.49c-0.77-11.61-9.54-22.97-21.01-24.38c-3.17-0.72-6.75-0.26-9.72,1.15
		c-5.19,2.47-8.94,7.13-12.46,11.67c-3.52,4.54-7.16,9.26-12.25,11.94c-8.25,4.34-18.21,2.38-27.5,1.64
		c-9.3-0.74-20.32,0.83-24.85,8.98c-2.74,4.93-2.22,11.2,0.3,16.24c2.52,5.04,6.81,8.99,11.44,12.21
		c24.59,17.11,61.32,13.73,82.38-7.57C268.45,335.9,274.54,324.39,273.75,312.49z"/>
	<circle class="st8" cx="83.43" cy="320.22" r="22.93"/>
	<path class="st8" d="M340.62,135.59c5.25-15.2-0.22-32.65-10.8-44.76c-10.58-12.11-27.7-22.86-40.27-23.04l0,0
		c-8.64-1.04-17.67,3.96-21.38,11.83c-3.71,7.87-1.82,18.02,4.48,24.02c6.37,6.07,17,8.83,19.07,17.39
		c1.56,6.46-2.87,12.94-2.61,19.58c0.29,7.32,6.44,13.4,13.38,15.78C317.7,161.59,335.37,150.79,340.62,135.59z"/>
</g>
<g id="Floor">
	<g>
		<g>
			<g>
				<path class="st9" d="M473.51,461.74c0,0.14-100.97,0.26-225.5,0.26c-124.57,0-225.52-0.12-225.52-0.26s100.95-0.26,225.52-0.26
					C372.54,461.48,473.51,461.6,473.51,461.74z"/>
			</g>
		</g>
	</g>
</g>
<g id="Plant">
	<g>
		<g>
			<g>
				<g>
					<g>
						<g>
							<g>
								<path class="st10" d="M74.33,373.39c4.71-2.43,10.26-2.75,15.49-1.88c2.81,0.46,5.74,1.3,7.65,3.42
									c1.91,2.11,2.27,5.82,0.08,7.64c-1.31,1.08-3.13,1.24-4.82,1.22c-4.09-0.05-8.64-0.77-11.91,1.69
									c-1.87,1.41-3.11,3.74-5.34,4.43c-2.18,0.68-4.65-0.61-5.8-2.58c-1.16-1.97-1.2-4.43-0.66-6.65
									C69.02,380.68,69.59,375.84,74.33,373.39z"/>
							</g>
						</g>
					</g>
				</g>
			</g>
			<g>
				<g>
					<g>
						<g>
							<g>
								<path class="st10" d="M63.54,352.56c2.88,4.11,8.48,2.75,11.07,0.24c2.6-2.51,3.69-6.15,4.69-9.62
									c2.28-7.93,4.58-16.25,2.89-24.32c-0.51-2.41-1.41-4.82-3.11-6.61c-1.7-1.79-4.3-2.86-6.69-2.23
									c-2.82,0.75-4.58,3.51-5.84,6.14c-3.73,7.73-5.7,16.3-5.73,24.88C60.81,345.05,61.28,349.25,63.54,352.56"/>
							</g>
						</g>
					</g>
				</g>
			</g>
			<g>
				<g>
					<g>
						<g>
							<g>
								<path class="st10" d="M55.63,358.46c3.13-3.71,3.72-9.12,2.33-13.77c-1.39-4.65-4.54-8.61-8.16-11.83
									c-4.25-3.79-9.24-6.73-14.61-8.62c-2.11-0.74-4.34-1.33-6.57-1.12c-2.23,0.21-4.47,1.35-5.51,3.34
									c-1.54,2.93-0.06,6.49,1.53,9.39c2.81,5.11,6.02,10,9.6,14.61c2.88,3.71,6.17,7.37,10.55,9.04
									c4.38,1.68,8.94,1.48,11.26-1.56"/>
							</g>
						</g>
					</g>
				</g>
			</g>
			<g>
				<g>
					<g>
						<g>
							<g>
								<g>
									<path class="st9" d="M63.35,414.61c0.05,0,0.14-0.66,0.26-1.87c0.13-1.36,0.3-3.07,0.5-5.1c0.24-2.15,0.55-4.7,1.15-7.48
										c0.59-2.77,1.52-5.78,2.72-8.83c1.24-3.03,2.75-5.79,4.51-7.99c1.75-2.21,3.79-3.82,5.7-4.74c1.91-0.94,3.62-1.33,4.8-1.5
										c1.19-0.12,1.86-0.22,1.86-0.27c0-0.05-0.67-0.06-1.89-0.03c-1.21,0.08-3,0.39-5.01,1.3c-2.02,0.89-4.18,2.52-6.01,4.78
										c-1.85,2.25-3.42,5.07-4.67,8.15c-1.22,3.1-2.13,6.14-2.7,8.98c-0.57,2.83-0.82,5.41-0.99,7.58
										c-0.16,2.17-0.22,3.92-0.25,5.13C63.28,413.94,63.3,414.61,63.35,414.61z"/>
								</g>
							</g>
						</g>
					</g>
				</g>
			</g>
			<g>
				<g>
					<g>
						<g>
							<g>
								<g>
									<path class="st9" d="M63.7,410.69c0.03,0,0.04-0.3,0.05-0.87c0-0.65,0-1.47-0.01-2.48c-0.01-2.15,0-5.27,0.11-9.11
										c0.19-7.69,0.85-15.97,2.13-27.64c1.21-10.98,2.84-23.75,4.55-32.05c0.37-1.89,0.74-3.59,1.09-5.08
										c0.33-1.49,0.62-2.78,0.89-3.82c0.24-0.98,0.43-1.78,0.58-2.41c0.12-0.55,0.18-0.85,0.15-0.86
										c-0.03-0.01-0.13,0.27-0.3,0.81c-0.19,0.62-0.43,1.41-0.72,2.38c-0.32,1.03-0.65,2.31-1.02,3.79
										c-0.39,1.48-0.8,3.18-1.2,5.06c-1.7,7.52-3.5,18.04-4.79,29.74c-1.28,11.7-1.86,22.35-1.91,30.06
										c-0.05,3.86,0.04,6.98,0.13,9.13c0.06,1.01,0.11,1.83,0.15,2.48C63.64,410.39,63.67,410.69,63.7,410.69z"/>
								</g>
							</g>
						</g>
					</g>
				</g>
			</g>
			<g>
				<g>
					<g>
						<g>
							<g>
								<g>
									<path class="st9" d="M63.75,390.15c0.05,0,0.04-0.92-0.02-2.59c-0.1-1.67-0.32-4.07-0.79-7.02
										c-0.5-2.94-1.19-6.43-2.28-10.23c-0.47-1.73-1.58-5.89-4.28-12.1c-3.55-8.42-8.37-15.29-12.56-19.56
										c-0.98-1.13-2.08-1.95-2.95-2.75c-0.45-0.38-0.85-0.77-1.26-1.07c-0.41-0.28-0.79-0.55-1.15-0.79
										c-1.38-0.94-2.15-1.44-2.18-1.4c-0.12,0.17,3.09,2.06,7.15,6.38c4.04,4.31,8.73,11.14,12.25,19.49
										c1.96,4.53,3.33,8.56,4.3,11.99c1.12,3.76,1.87,7.21,2.43,10.13c0.53,2.92,0.85,5.3,1.03,6.95
										C63.59,389.23,63.7,390.15,63.75,390.15z"/>
								</g>
							</g>
						</g>
					</g>
				</g>
			</g>
		</g>
		<g>
			<g>
				<g>
					<g>
						<g>
							<polygon class="st9" points="43.9,426.38 45.95,454.58 82.18,454.58 84.24,426.38 							"/>
						</g>
					</g>
				</g>
			</g>
		</g>
		<g>
			<g>
				<g>
					<g>
						<g>
							<rect x="40.4" y="415.27" class="st9" width="48.17" height="11.11"/>
						</g>
					</g>
				</g>
			</g>
		</g>
		<g>
			<g>
				<g>
					<g>
						<g>
							<polygon class="st5" points="40.4,453.5 40.4,456.58 42.66,456.58 87.77,456.58 87.77,453.5 							"/>
						</g>
					</g>
				</g>
			</g>
		</g>
		<g>
			<g>
				<g>
					<g>
						<g>
							<polygon class="st5" points="44.88,462 42.66,456.58 86.04,456.58 83.45,462 							"/>
						</g>
					</g>
				</g>
			</g>
		</g>
		<g>
			<g>
				<g>
					<g>
						<g>
							<g>
								<path class="st2" d="M83.57,435.6c0.01,0.01-0.05,0.09-0.17,0.26c-0.14,0.19-0.32,0.43-0.54,0.72
									c-0.51,0.66-1.22,1.56-2.11,2.7l-0.09,0.12l-0.09-0.13c-1.33-1.83-3.1-4.29-5.18-7.17h0.3c-1.54,2.18-3.26,4.62-5.1,7.23
									l-0.16,0.23l-0.18-0.21c-1.88-2.24-3.93-4.68-6.05-7.2l0.35,0c-0.11,0.13-0.22,0.28-0.33,0.42
									c-1.88,2.35-3.69,4.63-5.41,6.79l-0.18,0.23l-0.17-0.24c-1.84-2.6-3.55-5.03-5.11-7.23l0.3,0.01
									c-2.52,2.87-4.65,5.3-6.29,7.17l-0.11,0.13l-0.09-0.14c-0.83-1.39-1.49-2.5-1.97-3.31c-0.21-0.36-0.37-0.65-0.51-0.88
									c-0.11-0.2-0.16-0.31-0.15-0.31c0.01-0.01,0.08,0.09,0.21,0.28c0.15,0.22,0.33,0.5,0.56,0.85c0.5,0.79,1.2,1.88,2.07,3.25
									l-0.2-0.02c1.61-1.89,3.71-4.35,6.19-7.25l0.16-0.18l0.14,0.2c1.57,2.19,3.3,4.61,5.15,7.19l-0.35-0.01
									c1.71-2.16,3.53-4.44,5.4-6.8c0.11-0.14,0.23-0.29,0.33-0.42l0.17-0.22l0.18,0.21c2.12,2.53,4.16,4.97,6.04,7.22l-0.34,0.01
									c1.86-2.6,3.6-5.02,5.16-7.19l0.15-0.21l0.15,0.21c2.04,2.92,3.78,5.39,5.08,7.25l-0.18-0.01c0.92-1.11,1.66-1.99,2.2-2.63
									c0.24-0.28,0.43-0.5,0.59-0.68C83.48,435.66,83.56,435.59,83.57,435.6z"/>
							</g>
						</g>
					</g>
				</g>
			</g>
		</g>
		<g>
			<g>
				<g>
					<g>
						<g>
							<g>
								<path class="st5" d="M84.74,426.19c0,0.12-9.08,0.23-20.27,0.23c-11.2,0-20.27-0.1-20.27-0.23c0-0.12,9.08-0.23,20.27-0.23
									C75.67,425.97,84.74,426.07,84.74,426.19z"/>
							</g>
						</g>
					</g>
				</g>
			</g>
		</g>
		<g>
			<g>
				<g>
					<g>
						<g>
							<g>
								<path class="st9" d="M86.57,456.89c0,0.12-9.87,0.23-22.03,0.23c-12.17,0-22.03-0.1-22.03-0.23c0-0.12,9.86-0.23,22.03-0.23
									C76.71,456.66,86.57,456.76,86.57,456.89z"/>
							</g>
						</g>
					</g>
				</g>
			</g>
		</g>
	</g>
</g>
<g id="Character_2">
</g>
<g id="Character_1">
	<g>
		<g>
			<g>
				<g>
					<path class="st11" d="M405.77,393.36l-19.67-39.77c10.93-23.7,15.65-50.63,12.3-78.44c-9.65-80-82.33-137.02-162.33-127.36
						c-80,9.65-137.02,82.33-127.36,162.33c9.65,80,82.33,137.02,162.33,127.36c33.4-4.03,62.77-19.08,84.98-41.03l-0.04,0.07
						L405.77,393.36z"/>
				</g>
			</g>
			<g>
				<g>
					<g>
						<path class="st12" d="M405.77,393.36c-1.02,0.07-17.44,1.15-49.79,3.3l-0.27,0.02l0.14-0.23c0.01-0.02,0.03-0.05,0.04-0.07
							l0.22,0.17c-3.44,3.3-7.17,6.82-11.45,10.19c-2.08,1.75-4.39,3.36-6.69,5.09c-2.38,1.62-4.8,3.34-7.41,4.91
							c-10.29,6.48-22.55,12.22-36.51,16.28c-13.95,4.1-29.67,6.2-46.33,5.64c-16.65-0.6-34.24-4.25-51.33-11.52
							c-17.07-7.25-33.6-18.2-47.71-32.68c-14.15-14.42-25.67-32.54-32.9-52.92c-7.28-20.35-10.06-43.02-7.47-65.66
							c0.24-2.84,0.79-5.65,1.21-8.48c0.47-2.82,1.13-5.62,1.71-8.44c1.41-5.58,2.96-11.17,5.04-16.61
							c1.93-5.49,4.4-10.81,6.99-16.08c2.74-5.19,5.64-10.35,9.01-15.23c3.33-5.07,7.11-9.79,10.98-14.37l3.02-3.33l1.51-1.66
							l1.58-1.59l3.16-3.17l3.3-3.01c8.8-8.01,18.57-14.74,28.82-20.23c2.53-1.44,5.18-2.62,7.79-3.88c2.61-1.24,5.31-2.27,7.95-3.4
							c2.71-0.95,5.38-2.02,8.11-2.85c2.74-0.81,5.43-1.74,8.2-2.37c10.99-2.83,22.14-4.37,33.16-4.68
							c22.06-0.64,43.46,3.98,62.29,12.21c18.87,8.23,35.12,20.18,47.99,33.91c12.9,13.73,22.48,29.22,28.75,44.84
							c3.16,7.81,5.54,15.63,7.29,23.31c0.38,1.93,0.76,3.85,1.14,5.74c0.4,1.89,0.59,3.8,0.89,5.68c0.14,0.94,0.27,1.87,0.41,2.8
							c0.1,0.93,0.19,1.86,0.29,2.79c0.21,1.85,0.35,3.69,0.46,5.51c0.94,14.58-0.39,28.05-2.94,39.87
							c-1.28,5.91-2.83,11.43-4.57,16.51c-1.76,5.08-3.68,9.74-5.61,13.99l0-0.12C398.89,379.34,405.35,392.49,405.77,393.36
							c-0.43-0.87-6.97-13.98-19.79-39.71l-0.03-0.06l0.03-0.06c1.92-4.25,3.82-8.9,5.56-13.98c1.73-5.08,3.26-10.59,4.52-16.49
							c2.51-11.79,3.82-25.23,2.86-39.76c-0.11-1.82-0.25-3.65-0.46-5.49c-0.1-0.92-0.2-1.85-0.29-2.78
							c-0.14-0.93-0.27-1.86-0.41-2.79c-0.3-1.87-0.49-3.77-0.89-5.66c-0.38-1.89-0.76-3.8-1.14-5.72
							c-1.75-7.65-4.13-15.45-7.29-23.23c-6.27-15.56-15.83-30.98-28.7-44.66c-12.83-13.67-29.03-25.56-47.83-33.74
							c-18.75-8.19-40.06-12.78-62.03-12.13c-10.97,0.32-22.08,1.85-33.02,4.68c-2.76,0.63-5.44,1.55-8.16,2.36
							c-2.72,0.83-5.37,1.9-8.07,2.84c-2.63,1.13-5.31,2.15-7.92,3.39c-2.59,1.26-5.23,2.43-7.75,3.87
							c-10.21,5.47-19.93,12.18-28.69,20.15l-3.28,3l-3.15,3.15l-1.58,1.58l-1.51,1.65l-3.01,3.32c-3.85,4.57-7.62,9.26-10.93,14.31
							c-3.35,4.86-6.24,9.99-8.97,15.16c-2.57,5.25-5.03,10.54-6.96,16.01c-2.06,5.42-3.61,10.98-5.01,16.54
							c-0.58,2.81-1.24,5.59-1.71,8.4c-0.42,2.82-0.97,5.61-1.2,8.44c-2.58,22.54,0.18,45.11,7.42,65.38
							c7.19,20.29,18.65,38.34,32.74,52.71c14.05,14.44,30.5,25.35,47.5,32.59c17.02,7.25,34.54,10.9,51.14,11.53
							c16.6,0.57,32.28-1.49,46.19-5.57c13.93-4.03,26.17-9.73,36.44-16.17c2.6-1.56,5.02-3.27,7.4-4.88
							c2.3-1.72,4.6-3.32,6.69-5.06c4.28-3.34,8.01-6.85,11.46-10.13l0.75-0.72l-0.53,0.89c-0.01,0.02-0.03,0.05-0.04,0.07
							l-0.13-0.22C388.33,394.42,404.75,393.42,405.77,393.36z"/>
					</g>
				</g>
			</g>
		</g>
	</g>
	<g>
		<g>
			<path class="st5" d="M178.52,418.15l150.37-0.24c0,0-35.95,23.82-79.13,21.01C212.24,436.47,178.52,418.15,178.52,418.15z"/>
		</g>
	</g>
	<g>
		<g>
			<g>
				<g>
					<g>
						<g>
							<g>
								<path class="st13" d="M355.68,222.62c-1.07-4.38,3.64-19.67,0.39-19.94c-4.14-0.34-4.49,16.94-4.61,18.49
									c-0.11,1.51-2.29,1.37-2.11-0.02c0.25-2,2.61-21.6-1.56-21.56c-2.31,0.02-2.32,4.37-2.32,4.37s-1.17,19.29-3.14,19.24
									c-2-0.05-0.78-11.04-0.66-15.12c0.11-3.91-1.83-6.12-3.19-4.4c-2,2.52-1.79,12.44-1.97,16.36
									c-0.17,3.92-0.97,15.17-4.99,9.63c-4.02-5.53-9.08-8.27-10.92-8.03c-1.84,0.24-2.13,2.99-0.32,4.03
									c1.47,0.84,3.51,3.01,4.98,4.71c1.21,1.4,2.03,3.08,2.91,4.72c0.63,1.17,1.66,3.5,2.18,6.76c0.61,3.78,2.79,7.09,5.94,9.12
									l0.4,30.86l-0.62,15.28l23.42,7.83l-4.15-54.37c0.93-10.49,5.12-23.81,6.63-29.98c2.4-9.83,1.18-10.23,0.02-10.26
									C359.43,210.29,356.73,226.89,355.68,222.62z"/>
							</g>
						</g>
					</g>
				</g>
			</g>
			<g>
				<g>
					<g>
						<g>
							<path class="st14" d="M352.97,235.95c0,0.1-1.13,0.01-2.84,0.56c-1.69,0.52-3.97,1.82-5.61,4.13
								c-0.44,0.62-0.79,1.28-1.09,1.92l-0.15,0.32l-0.23-0.24c-1.57-1.6-3.24-2.63-4.48-3.23c-1.24-0.61-2.04-0.85-2.02-0.91
								c0.01-0.05,0.85,0.08,2.14,0.62c1.29,0.53,3.05,1.53,4.68,3.17l-0.38,0.08c0.3-0.68,0.67-1.38,1.13-2.03
								c0.85-1.2,1.9-2.15,2.93-2.84c1.04-0.68,2.08-1.1,2.97-1.34c0.89-0.25,1.64-0.28,2.14-0.3
								C352.69,235.88,352.97,235.92,352.97,235.95z"/>
						</g>
					</g>
				</g>
			</g>
			<g>
				<g>
					<g>
						<g>
							<path class="st14" d="M352.11,250.43c0.04,0.12-2.16,0.91-5.01,1.05c-2.85,0.16-5.12-0.38-5.09-0.5
								c0.02-0.15,2.28,0.17,5.06,0.01C349.86,250.84,352.08,250.28,352.11,250.43z"/>
						</g>
					</g>
				</g>
			</g>
		</g>
		<g>
			<g>
				<g>
					<path class="st9" d="M209.91,172.97c0.31-7.9,6.44-15.15,13.98-16.53c1.98-0.36,4.06-0.37,5.87-1.26
						c1.49-0.73,2.66-1.98,4.03-2.92c4.39-3.02,10.85-2.26,14.48,1.7c3.41,3.73,4.15-1.99,11.74,1.74c6.29,3.09,3.63,8.48,3.63,8.48
						c6.13-0.86,12.54,3.49,14.21,9.63c1.06,3.9,0.71,8.81,3.94,11.11c1.56,1.12,3.62,1.27,5.23,2.32c2.99,1.96,3.47,6.23,3.16,9.87
						c-0.31,3.64-1.05,7.52,0.54,10.78c2.61,5.35,10.45,6.82,11.92,12.61c0.7,2.73-0.14,6.17,1.92,8.04
						c0.83,0.75,1.94,1.03,2.97,1.43c4.16,1.64,7.29,5.8,7.8,10.37c0.5,4.57-1.64,9.35-5.34,11.91c-1.03,0.72-2.27,1.4-2.58,2.65
						c-0.34,1.39,0.64,2.7,1.38,3.92c2.68,4.45,2.12,10.71-1.3,14.58c-3.42,3.87-9.4,5.02-13.94,2.68
						c-1.91,4.45-5.57,8.07-9.96,9.85c-2.02,0.82-4.25,1.26-6.37,0.78c-1.7-0.38-3.23-1.33-4.64-2.38
						c-6.73-5-16.22-12.74-17.56-21.19"/>
				</g>
			</g>
			<g>
				<g>
					<path class="st13" d="M210.03,186.17l-0.42-6.06l34.93-8.82c10.82-1.77,23.15,8.86,24.4,20.1c1.39,12.49,2.62,27.79,1.65,37.21
						c-1.95,18.95-15.77,22.09-15.77,22.09l0.86,18.66l-40.22,2.68L210.03,186.17z"/>
				</g>
			</g>
			<g>
				<g>
					<g>
						<g>
							<g>
								<g>
									<g>
										<g>
											<g>
												<g>
													<path class="st9" d="M262.61,205.2c0.11,1.27-0.85,2.41-2.13,2.55c-1.28,0.14-2.41-0.77-2.51-2.04
														c-0.11-1.27,0.85-2.41,2.13-2.55C261.38,203.01,262.51,203.93,262.61,205.2z"/>
												</g>
											</g>
										</g>
									</g>
								</g>
							</g>
						</g>
					</g>
				</g>
			</g>
			<g>
				<g>
					<g>
						<g>
							<g>
								<g>
									<g>
										<g>
											<g>
												<g>
													<g>
														<path class="st9" d="M265.5,199.58c-0.27,0.33-2.11-0.93-4.62-0.79c-2.51,0.1-4.29,1.54-4.57,1.23
															c-0.14-0.13,0.13-0.72,0.9-1.36c0.76-0.64,2.08-1.3,3.64-1.38c1.56-0.07,2.91,0.45,3.7,1.02
															C265.34,198.88,265.63,199.43,265.5,199.58z"/>
													</g>
												</g>
											</g>
										</g>
									</g>
								</g>
							</g>
						</g>
					</g>
				</g>
			</g>
			<g>
				<g>
					<g>
						<g>
							<g>
								<g>
									<g>
										<g>
											<g>
												<g>
													<path class="st9" d="M239.18,206.92c0.11,1.27-0.85,2.41-2.13,2.55c-1.28,0.14-2.41-0.77-2.51-2.04
														c-0.11-1.27,0.85-2.41,2.13-2.55C237.94,204.73,239.07,205.65,239.18,206.92z"/>
												</g>
											</g>
										</g>
									</g>
								</g>
							</g>
						</g>
					</g>
				</g>
			</g>
			<g>
				<g>
					<g>
						<g>
							<g>
								<g>
									<g>
										<g>
											<g>
												<g>
													<g>
														<path class="st9" d="M240.84,201.38c-0.27,0.33-2.11-0.93-4.62-0.79c-2.51,0.1-4.29,1.54-4.58,1.23
															c-0.14-0.13,0.12-0.72,0.9-1.36c0.76-0.64,2.08-1.3,3.64-1.38c1.56-0.08,2.91,0.45,3.7,1.02
															C240.68,200.68,240.97,201.24,240.84,201.38z"/>
													</g>
												</g>
											</g>
										</g>
									</g>
								</g>
							</g>
						</g>
					</g>
				</g>
			</g>
			<g>
				<g>
					<g>
						<g>
							<g>
								<g>
									<g>
										<g>
											<g>
												<g>
													<path class="st9" d="M250.92,220.13c-0.02-0.15,1.53-0.51,4.04-0.98c0.64-0.1,1.24-0.27,1.32-0.72
														c0.13-0.49-0.18-1.19-0.53-1.94c-0.68-1.57-1.4-3.22-2.15-4.94c-2.99-7.04-5.2-12.84-4.92-12.96
														c0.28-0.12,2.93,5.48,5.92,12.53c0.72,1.74,1.41,3.39,2.07,4.98c0.28,0.74,0.74,1.57,0.46,2.58
														c-0.15,0.5-0.6,0.89-1.01,1.02c-0.4,0.15-0.76,0.18-1.08,0.21C252.51,220.18,250.93,220.28,250.92,220.13z"/>
												</g>
											</g>
										</g>
									</g>
								</g>
							</g>
						</g>
					</g>
				</g>
			</g>
			<g>
				<g>
					<g>
						<g>
							<g>
								<g>
									<g>
										<g>
											<g>
												<path class="st14" d="M254.82,250.74c0,0-12.83,1.47-25.33-5.41c0,0,6.81,12.83,25.56,10.1L254.82,250.74z"/>
											</g>
										</g>
									</g>
								</g>
							</g>
						</g>
					</g>
				</g>
			</g>
			<g>
				<g>
					<g>
						<g>
							<g>
								<g>
									<g>
										<g>
											<g>
												<path class="st14" d="M250.17,226.44c-0.97-1.18-2.58-1.78-4.14-1.52c-1.08,0.18-2.16,0.78-2.77,1.73
													c-0.62,0.95-0.69,2.26-0.04,3.1c0.73,0.95,2.15,1.1,3.34,0.68c1.18-0.42,2.17-1.29,3.11-2.15
													c0.26-0.24,0.52-0.49,0.68-0.81c0.15-0.32,0.17-0.72-0.05-0.97"/>
											</g>
										</g>
									</g>
								</g>
							</g>
						</g>
					</g>
				</g>
			</g>
			<g>
				<g>
					<g>
						<g>
							<g>
								<g>
									<g>
										<g>
											<g>
												<g>
													<path class="st9" d="M243.62,222.32c0.41-0.05,0.55,2.77,2.99,4.64c2.43,1.88,5.32,1.41,5.36,1.8
														c0.05,0.17-0.62,0.58-1.84,0.68c-1.2,0.11-2.98-0.2-4.47-1.34c-1.49-1.15-2.18-2.75-2.33-3.9
														C243.16,223.03,243.43,222.32,243.62,222.32z"/>
												</g>
											</g>
										</g>
									</g>
								</g>
							</g>
						</g>
					</g>
				</g>
			</g>
			<g>
				<g>
					<g>
						<g>
							<g>
								<g>
									<path class="st9" d="M240.97,191.18c-0.21,0.72-2.74,0.52-5.66,1.04c-2.94,0.46-5.27,1.48-5.69,0.87
										c-0.19-0.29,0.19-0.98,1.12-1.71c0.92-0.73,2.41-1.46,4.16-1.76c1.76-0.29,3.39-0.09,4.49,0.3
										C240.49,190.32,241.06,190.84,240.97,191.18z"/>
								</g>
							</g>
						</g>
					</g>
				</g>
			</g>
			<g>
				<g>
					<g>
						<g>
							<g>
								<g>
									<path class="st9" d="M264.2,192.12c-0.41,0.61-2.17,0.09-4.25,0.18c-2.08,0.01-3.82,0.6-4.26,0.01
										c-0.19-0.29,0.06-0.9,0.8-1.49c0.73-0.6,1.98-1.12,3.41-1.15c1.43-0.03,2.7,0.44,3.45,1
										C264.11,191.23,264.38,191.82,264.2,192.12z"/>
								</g>
							</g>
						</g>
					</g>
				</g>
			</g>
			<g>
				<g>
					<path class="st9" d="M271.57,168.25c-2.33,6.83-8,17.21-14.88,18.58s-14.39-1.29-19.01-6.74c-0.69,5.42-6.25,8.68-11.4,9.94
						c-3.64,0.89-7.53,1.21-11.1,0.02c-3.57-1.18-6.75-4.09-7.56-7.87c-0.82-3.77,3.81-13.52,7.43-14.5"/>
				</g>
			</g>
			<g>
				<g>
					<path class="st9" d="M223.58,269.37c0.21,6.08-3.74,12.07-9.29,14.1c0.62,4.9-2.59,10.02-7.17,11.43
						c-4.58,1.42-9.98-1.04-12.07-5.49c-0.55-1.17-0.9-2.47-1.77-3.41c-1.98-2.15-5.41-1.36-8.21-2.01
						c-5.06-1.17-7.74-7.18-7.66-12.54c0.02-1.06,0.11-2.13-0.14-3.15c-0.5-2.1-2.25-3.57-3.61-5.21
						c-5.59-6.76-4.47-17.45,0.4-24.78c1.62-2.44,3.71-5.03,3.28-7.96c-0.24-1.64-1.25-3.02-1.97-4.5
						c-2.33-4.79-1.41-11.06,2.18-14.92c0.55-0.59,1.19-1.19,1.33-2c0.09-0.51-0.04-1.04-0.15-1.55c-1.59-7.75,3.8-16.29,11.3-17.92
						c0.45-0.1,0.92-0.18,1.31-0.44c1.11-0.74,1-2.4,1.03-3.76c0.08-3.6,2.15-10.51,4.59-13.09c6.74-7.16,14.3-2.58,17.05-0.37
						c0,0,7.31,25.17,6.77,30.04c-0.54,4.87-2.87,17.11-1.04,22.39c1.83,5.28,5.03,16.15,3.35,21.23
						C221.42,250.54,223.58,269.37,223.58,269.37z"/>
				</g>
			</g>
		</g>
		<g>
			<g>
				<g>
					<g>
						<g>
							<path class="st10" d="M224.17,266.66l-27.26,8.53l10.69,87.91c0,0-4.49,31.56-4.33,39.83c0.22,10.74,8.39,14.6,8.39,14.6
								l87.64,0.85l4.4-4.1c2.25-2.84,3.23-6.52,2.72-10.15l-18.98-134.08l-30.63-6.18L224.17,266.66z"/>
						</g>
					</g>
				</g>
				<g>
					<g>
						<g>
							<g>
								<path class="st9" d="M207.7,362.99c-0.02,0-0.08-0.23-0.18-0.66c-0.1-0.49-0.24-1.13-0.41-1.92
									c-0.34-1.73-0.82-4.14-1.41-7.08c-1.15-6.04-2.72-14.29-4.45-23.4c-1.68-9.13-3.19-17.38-4.3-23.44
									c-0.52-2.96-0.94-5.37-1.25-7.11c-0.13-0.8-0.23-1.44-0.31-1.94c-0.07-0.44-0.09-0.68-0.08-0.68c0.02,0,0.08,0.22,0.18,0.66
									c0.1,0.49,0.24,1.13,0.41,1.92c0.34,1.73,0.82,4.14,1.41,7.08c1.15,6.04,2.72,14.29,4.45,23.41
									c1.68,9.12,3.19,17.38,4.3,23.43c0.52,2.96,0.94,5.37,1.25,7.11c0.13,0.8,0.23,1.44,0.31,1.94
									C207.69,362.75,207.72,362.99,207.7,362.99z"/>
							</g>
						</g>
					</g>
				</g>
				<g>
					<g>
						<g>
							<g>
								<path class="st9" d="M260.69,265.39c0.02,0.03-0.42,0.4-1.24,1.06c-0.42,0.32-0.96,0.66-1.58,1.08
									c-0.65,0.36-1.37,0.82-2.22,1.2c-1.68,0.82-3.78,1.59-6.18,2.14c-2.4,0.55-5.09,0.89-7.91,1.02
									c-2.83,0.13-5.52,0.06-7.97-0.08c-2.44-0.13-4.65-0.35-6.47-0.73c-1.83-0.37-3.25-0.9-4.2-1.35
									c-0.47-0.23-0.83-0.42-1.06-0.57c-0.23-0.14-0.35-0.23-0.34-0.24c0.02-0.04,0.53,0.23,1.48,0.62
									c0.96,0.38,2.38,0.85,4.19,1.17c1.81,0.33,3.99,0.51,6.43,0.62c2.43,0.11,5.11,0.17,7.92,0.04c2.8-0.13,5.46-0.45,7.84-0.97
									c2.38-0.51,4.46-1.24,6.13-2C258.89,266.89,260.62,265.28,260.69,265.39z"/>
							</g>
						</g>
					</g>
				</g>
				<g>
					<g>
						<g>
							<g>
								<path class="st9" d="M291.75,400.65c0,0.02-0.2,0.06-0.59,0.14c-0.45,0.08-1.02,0.17-1.72,0.29
									c-0.75,0.13-1.66,0.27-2.73,0.39c-1.07,0.12-2.28,0.3-3.63,0.39c-2.69,0.26-5.92,0.41-9.5,0.44
									c-3.58-0.01-7.52-0.17-11.63-0.57c-4.11-0.43-8-1.07-11.52-1.78c-3.51-0.75-6.64-1.55-9.23-2.35
									c-1.31-0.37-2.46-0.78-3.49-1.12c-1.03-0.33-1.9-0.65-2.6-0.93c-0.67-0.26-1.21-0.47-1.63-0.63
									c-0.37-0.15-0.56-0.24-0.56-0.25c0.01-0.02,0.21,0.04,0.59,0.15c0.43,0.14,0.98,0.32,1.66,0.54
									c0.72,0.25,1.6,0.54,2.63,0.84c1.03,0.31,2.19,0.7,3.5,1.04c2.6,0.75,5.73,1.51,9.22,2.23c3.5,0.68,7.38,1.31,11.48,1.73
									c4.1,0.4,8.01,0.58,11.58,0.61c3.57,0,6.78-0.12,9.47-0.32c1.35-0.07,2.56-0.22,3.63-0.31c1.07-0.09,1.99-0.2,2.74-0.3
									c0.71-0.08,1.28-0.14,1.73-0.2C291.54,400.65,291.75,400.64,291.75,400.65z"/>
							</g>
						</g>
					</g>
				</g>
				<g>
					<g>
						<g>
							<g>
								<path class="st9" d="M300.39,324.9c-0.03,0.01-0.19-0.42-0.44-1.22c-0.25-0.79-0.6-1.95-1.01-3.38
									c-0.82-2.86-1.87-6.83-2.92-11.25c-1.05-4.42-1.88-8.45-2.44-11.38c-0.28-1.46-0.49-2.65-0.62-3.47
									c-0.13-0.82-0.19-1.28-0.15-1.29c0.03-0.01,0.16,0.44,0.35,1.25c0.21,0.91,0.46,2.07,0.77,3.44
									c0.64,2.9,1.54,6.91,2.58,11.33c1.05,4.41,2.04,8.4,2.77,11.28c0.34,1.36,0.62,2.51,0.85,3.42
									C300.33,324.44,300.42,324.89,300.39,324.9z"/>
							</g>
						</g>
					</g>
				</g>
			</g>
			<g>
				<g>
					<g class="st15">
						<g>
							<g>
								<g>
									<path d="M233.82,270.46c1.17,3.91,0.27,9.67,0.88,13.19c2.44,14.06,3.76,28.38,3.06,42.65c-0.04,0.78-0.08,1.58,0.19,2.31
										c0.24,0.67,0.72,1.21,1.15,1.76c2.85,3.73,3.67,8.78,3.2,13.5c-0.46,4.73-2.09,9.24-3.69,13.69
										c-0.17-3.8-0.09-9.49,0.12-13.3c0.04-0.76,0.43-0.28,0.43-1.04c0.03-4.57-0.79-8.78-3.96-11.97
										c-0.63-0.64-1.36-1.21-1.8-2.01c-0.4-0.73-0.53-1.59-0.65-2.42c-2.22-15.89-3.85-31.86-4.86-47.88
										c-0.06-0.91-0.09-1.91,0.45-2.63c0.42-0.57,1.11-0.84,1.68-1.25c1.17-0.83,1.88-2.28,3.16-2.94"/>
								</g>
							</g>
						</g>
					</g>
					<g>
						<g>
							<g>
								<path class="st10" d="M196.91,275.19c0,0-24.91,6.63-18.06,45.25c2.41,13.58,6.92,33.73,16.05,54.7
									c4.3,9.88,13.73,16.55,24.11,14.92c4.53-0.71,9.05-0.06,12.05-2.02c4.56-2.98,6.37-12.71,7.04-23.19
									c0.45-7.14,0.05-14.56,0.84-20.66c1.29-9.96-3.21-14.54-8.88-15.59l-22.22-4.08l-1.03,12.12L196.91,275.19z"/>
							</g>
						</g>
					</g>
					<g>
						<g>
							<g>
								<g>
									<path class="st9" d="M216.1,351.94c0.06-0.05,0.43,0.46,1.3,1.1c0.86,0.64,2.28,1.39,4.17,1.61
										c1.88,0.24,4.17-0.15,6.53-1.1c2.35-0.98,4.93-2.27,6.99-4.36c2.05-2.1,3.2-4.83,3.53-7.39c0.34-2.57-0.16-4.93-0.92-6.73
										c-1.58-3.64-3.77-5.05-3.63-5.18c0.03-0.04,0.57,0.26,1.4,1.02c0.83,0.76,1.92,2.03,2.79,3.89
										c0.87,1.84,1.48,4.35,1.16,7.1c-0.3,2.73-1.51,5.67-3.71,7.93c-2.22,2.24-4.89,3.54-7.32,4.5c-2.46,0.95-4.9,1.3-6.9,0.96
										c-2-0.32-3.46-1.2-4.3-1.97C216.33,352.55,216.06,351.96,216.1,351.94z"/>
								</g>
							</g>
						</g>
					</g>
					<g>
						<g>
							<g>
								<g>
									<path class="st9" d="M193.49,371.78c0.08-0.03,0.49,1.21,1.56,3.28c1.06,2.06,2.89,4.95,5.86,7.79
										c2.95,2.83,7.18,5.53,12.39,6.73c5.16,1.21,11.34,0.97,16.93-1.59c2.81-1.25,3.77-4.52,4.8-7.26
										c0.94-2.84,1.55-5.69,1.94-8.43c0.79-5.49,0.9-10.52,1.12-14.74c0.21-4.12,0.38-7.5,0.51-9.99
										c0.07-1.09,0.13-1.99,0.18-2.71c0.05-0.62,0.09-0.94,0.12-0.94c0.03,0,0.05,0.33,0.05,0.95c0,0.72-0.01,1.62-0.02,2.72
										c-0.06,2.49-0.13,5.88-0.23,10c-0.14,4.22-0.18,9.26-0.93,14.84c-0.38,2.78-0.97,5.69-1.93,8.6
										c-0.5,1.45-1.03,2.9-1.78,4.33c-0.72,1.43-1.95,2.76-3.45,3.45c-5.86,2.68-12.18,2.88-17.5,1.59
										c-5.36-1.29-9.68-4.13-12.64-7.08c-2.98-2.97-4.76-5.96-5.74-8.1c-0.51-1.07-0.82-1.93-1.01-2.52
										C193.54,372.1,193.46,371.79,193.49,371.78z"/>
								</g>
							</g>
						</g>
					</g>
					<g>
						<g>
							<g>
								<g>
									<path class="st9" d="M201.49,354.79c-0.12-0.01-0.13-1.79-0.04-4.66c0.09-2.87,0.27-6.83,0.53-11.2
										c0.14-2.19,0.24-4.26,0.42-6.18c0.19-1.91,0.69-3.69,1.61-4.9c0.89-1.21,2.01-1.8,2.8-1.97c0.8-0.18,1.25-0.02,1.24,0.02
										c0,0.08-0.44,0.05-1.14,0.33c-0.69,0.26-1.64,0.88-2.39,2.01c-1.6,2.28-1.32,6.41-1.65,10.75
										c-0.26,4.37-0.54,8.33-0.79,11.19C201.82,353.04,201.61,354.8,201.49,354.79z"/>
								</g>
							</g>
						</g>
					</g>
					<g>
						<g>
							<path class="st9" d="M208.47,313.46c-0.25-1.22-0.63-2.99-1.13-5.16c-0.99-4.35-2.42-10.34-4.05-16.95
								c-0.83-3.29-1.55-6.47-2.57-9.27c-1-2.8-2.33-5.19-3.81-6.89l-0.48,0.42c1.36,1.69,2.58,4.01,3.52,6.76
								c0.95,2.75,1.65,5.91,2.47,9.21c1.63,6.61,3.16,12.57,4.31,16.88c0.57,2.15,1.05,3.89,1.4,5.09c0.35,1.2,0.57,1.85,0.63,1.84
								C208.83,315.37,208.72,314.68,208.47,313.46z"/>
						</g>
					</g>
					<g class="st15">
						<g>
							<g>
								<g>
									<path d="M208.87,321.79c-2.01-0.02-3.94,0.89-5.59,2.09c-3.6,2.61-6.16,6.65-7.23,11.06c-1.08,4.41-0.7,9.14,0.85,13.39
										c0.48,1.32,1.4,2.82,2.77,2.73c1.61-0.1,2.22-2.19,2.41-3.84c0.53-4.58,1.05-9.16,1.58-13.74
										c0.18-1.56,0.37-3.16,1.08-4.54c0.71-1.38,2.08-2.52,3.6-2.47c0.1-1.63,0.21-3.26,0.31-4.89"/>
								</g>
							</g>
						</g>
					</g>
				</g>
			</g>
			<g>
				<g>
					<g>
						<path class="st10" d="M358.28,339.43c0,0,4.53-7.35,4.81-18.05c0.28-10.69-2.85-19.66-2.85-19.66l-26.77-7.94l0.02,9.17
							L358.28,339.43z"/>
					</g>
				</g>
				<g>
					<g>
						<path class="st10" d="M333.49,302.95l-46.05-32.91l0.05,2.35l5.96,52.65c0,0,37.85,16.55,47.84,18.89
							c9.99,2.34,16.99-4.49,16.99-4.49L333.49,302.95z"/>
					</g>
				</g>
				<g>
					<g>
						<g>
							<path class="st9" d="M347.45,328.29c-0.02,0.04-0.4-0.14-1.04-0.54c-0.64-0.4-1.53-1.04-2.54-1.96
								c-2.03-1.81-4.4-4.84-6.24-8.61c-1.84-3.77-2.93-7.42-3.66-10.06c-0.36-1.32-0.63-2.4-0.8-3.14s-0.24-1.17-0.2-1.18
								c0.09-0.03,0.61,1.58,1.44,4.18c0.84,2.59,1.99,6.19,3.8,9.89c1.81,3.71,4.06,6.7,5.97,8.56
								C346.09,327.33,347.52,328.18,347.45,328.29z"/>
						</g>
					</g>
				</g>
				<g>
					<g>
						<g>
							<path class="st9" d="M360.24,308.37c0,0.05-0.42,0.06-1.17,0.04c-0.76-0.01-1.85-0.1-3.19-0.29
								c-2.68-0.37-6.35-1.27-10.15-2.99c-3.79-1.73-6.92-3.91-8.99-5.7c-1.04-0.89-1.85-1.66-2.36-2.23
								c-0.52-0.56-0.8-0.89-0.76-0.92c0.08-0.08,1.28,1.11,3.41,2.78c2.13,1.67,5.24,3.76,8.97,5.46c3.73,1.69,7.33,2.65,9.96,3.14
								C358.58,308.14,360.24,308.25,360.24,308.37z"/>
						</g>
					</g>
				</g>
				<g>
					<g>
						<g>
							<path class="st9" d="M335.91,324.13c-0.06,0.04-0.75-1-1.47-2.87c-0.73-1.87-1.4-4.6-1.66-7.65c-0.27-3.06-0.2-5.83-0.1-7.83
								c0.1-2,0.24-3.23,0.33-3.22c0.09,0,0.12,1.24,0.14,3.23c0.02,1.99,0.02,4.74,0.29,7.75c0.27,3.01,0.84,5.68,1.45,7.56
								C335.48,322.97,336.01,324.07,335.91,324.13z"/>
						</g>
					</g>
				</g>
			</g>
			<g>
				<g>
					<g>
						<path class="st9" d="M287.17,290.32c0.04-0.01,0.22,0.5,0.5,1.42c0.28,0.93,0.66,2.28,1.11,3.96
							c0.9,3.35,2.07,8.01,3.22,13.18c1.16,5.17,2.09,9.88,2.7,13.3c0.31,1.71,0.54,3.1,0.68,4.06c0.14,0.96,0.2,1.5,0.16,1.51
							c-0.04,0.01-0.19-0.51-0.4-1.46c-0.24-1.09-0.53-2.43-0.88-4.01c-0.77-3.54-1.78-8.15-2.89-13.25
							c-1.17-5.08-2.22-9.68-3.03-13.21c-0.36-1.58-0.67-2.92-0.91-4.01C287.22,290.86,287.13,290.33,287.17,290.32z"/>
					</g>
				</g>
			</g>
		</g>
		<g>
			<g>
				<g>
					<g>
						<path class="st13" d="M207.7,331.4l4.46-54.75l18.55,6.07l3.49,55.52c0,0-5.74,8.05-15.76,5.01
							C208.42,340.2,207.7,331.4,207.7,331.4z"/>
					</g>
				</g>
			</g>
			<g>
				<g>
					<g>
						<path class="st13" d="M231.52,284.44c0,0,3.47-3.37,3.31-7.59c-0.16-4.12-1.64-14-1.64-14s5.76-11.32,5.58-12.8
							c-0.18-1.48-0.45-1.46-2.59-0.81c-2.14,0.65-8.6,10.99-8.6,10.99l-2.33-7.52c0,0,5.39-8.06,5.81-9.18
							c0.42-1.12,1.14-2.05-0.26-2.12c-1.39-0.07-11.63,9.12-11.63,9.12l1.01,8.27c0,0-0.19,0.66-1.72-0.47
							c-1.52-1.13-1.34-11.02-1.34-11.02s3.43-5.93,3.33-6.78c-0.1-0.85,0.61-1.78-0.11-3.21c-0.73-1.43-2.74,0.28-2.74,0.28
							l-6.75,8.2l-2.63-7.91c0,0,0.07-1.7-2.42-1.66l1.48,25.82l6.7,19.75L231.52,284.44z"/>
					</g>
				</g>
			</g>
			<g>
				<g>
					<g>
						<g>
							<path class="st14" d="M234.2,338.23c0,0-0.06-0.33-0.12-0.97c-0.05-0.68-0.13-1.63-0.23-2.84
								c-0.18-2.54-0.43-6.19-0.76-10.84c-0.61-9.4-1.48-22.82-2.54-39.06l-0.01-0.16l0.15-0.12c1.39-1.1,2.56-2.6,3.25-4.25
								c0.72-1.67,0.76-3.5,0.59-5.39c-0.29-3.78-0.9-7.7-1.58-11.71l-0.02-0.11l0.05-0.1c1.08-2.15,2.17-4.37,3.22-6.64
								c0.52-1.14,1.04-2.29,1.52-3.46c0.23-0.58,0.46-1.18,0.64-1.76l0.11-0.43c0.02-0.13,0.03-0.22,0.03-0.36
								c-0.04-0.3-0.09-0.62-0.19-0.78c0.06-0.18-0.88,0.02-1.49,0.22c-0.39,0.11-0.55,0.19-0.81,0.39
								c-0.25,0.19-0.49,0.4-0.72,0.65c-0.93,0.94-1.75,2.02-2.56,3.1c-1.61,2.18-3.13,4.46-4.61,6.79l-0.53,0.83l-0.28-0.91
								c-0.74-2.38-1.53-4.94-2.33-7.52l-0.05-0.16l0.1-0.15c0.86-1.31,1.8-2.73,2.73-4.15c1.04-1.63,2.18-3.31,3.02-4.91
								c0.17-0.45,0.41-0.91,0.52-1.29c0.06-0.21,0.02-0.29,0.02-0.28c0-0.02-0.28-0.1-0.42-0.06c-0.05,0.01-0.3,0.12-0.5,0.23
								c-0.2,0.1-0.41,0.26-0.61,0.38c-0.41,0.27-0.81,0.56-1.2,0.86c-3.15,2.4-6.08,4.98-8.95,7.51l0.12-0.31
								c0.34,2.8,0.67,5.55,1,8.27l0.01,0.08l-0.02,0.06c-0.14,0.4-0.57,0.49-0.82,0.48c-0.26-0.02-0.43-0.09-0.61-0.16
								c-0.33-0.15-0.6-0.32-0.86-0.51c-0.64-0.48-0.76-1.14-0.93-1.67c-0.28-1.11-0.39-2.21-0.48-3.3
								c-0.17-2.18-0.21-4.32-0.19-6.44l0-0.08l0.04-0.08c1.17-2.08,2.41-4.18,3.21-6.23c0.04-0.12,0.08-0.26,0.08-0.31
								c0.01-0.09-0.02-0.32,0.01-0.46c0.03-0.32,0.1-0.6,0.15-0.86c0.1-0.53,0.1-1.02-0.09-1.49c-0.2-0.54-0.39-0.76-0.86-0.67
								c-0.46,0.09-0.99,0.41-1.39,0.73l0.05-0.05c-2.35,2.84-4.6,5.57-6.77,8.19l-0.44,0.53l-0.21-0.63
								c-0.9-2.74-1.77-5.38-2.6-7.92l-0.01-0.04l0-0.06c-0.01-0.42-0.26-0.85-0.65-1.06c-0.39-0.23-0.91-0.3-1.42-0.3l0.33-0.31
								c0.55,10.5,1.01,19.22,1.36,25.82l-0.01-0.04c1.48,4.72,2.62,8.37,3.4,10.89c0.37,1.21,0.65,2.14,0.85,2.81
								c0.19,0.63,0.25,0.96,0.25,0.96s-0.14-0.31-0.36-0.94c-0.23-0.66-0.55-1.59-0.96-2.79c-0.83-2.5-2.04-6.14-3.6-10.83
								l-0.01-0.02l0-0.02c-0.41-6.61-0.95-15.31-1.6-25.81l-0.02-0.31l0.35-0.01c0.59-0.01,1.22,0.06,1.8,0.38
								c0.57,0.33,0.96,0.91,0.96,1.58l-0.01-0.1c0.85,2.54,1.73,5.17,2.65,7.91l-0.64-0.1c2.16-2.63,4.39-5.36,6.73-8.21l0.02-0.03
								l0.02-0.02c0.51-0.4,1.02-0.75,1.77-0.91c0.36-0.08,0.88-0.02,1.21,0.26c0.33,0.28,0.44,0.59,0.55,0.87
								c0.23,0.58,0.24,1.24,0.12,1.82c-0.05,0.29-0.12,0.56-0.14,0.81c-0.02,0.14,0,0.19,0,0.38c0,0.23-0.06,0.37-0.1,0.52
								c-0.87,2.23-2.07,4.25-3.25,6.37l0.05-0.16c-0.02,2.09,0.02,4.23,0.2,6.37c0.1,1.07,0.21,2.15,0.47,3.18
								c0.15,0.51,0.3,1.01,0.64,1.25c0.23,0.16,0.47,0.31,0.69,0.41c0.11,0.04,0.23,0.08,0.28,0.08l0.02,0
								c0,0.01,0.02,0.07,0.03,0.08l0.01,0.02l0.01,0.01l0.03,0.01l0.05,0.02l0.01,0c0.21,0.06-0.27-0.08-0.22-0.07l-0.01,0.02
								l-0.01,0.14c-0.33-2.71-0.67-5.47-1.01-8.27l-0.02-0.18l0.15-0.13c2.87-2.55,5.8-5.13,9-7.57c0.4-0.3,0.82-0.6,1.24-0.89
								c0.23-0.14,0.43-0.29,0.67-0.42c0.26-0.12,0.45-0.28,0.92-0.35c0.36-0.02,0.65,0,1.06,0.27c0.41,0.34,0.31,0.81,0.24,1.04
								c-0.16,0.53-0.38,0.92-0.54,1.36c-0.94,1.81-2.02,3.37-3.08,5.05c-0.94,1.42-1.87,2.84-2.74,4.15l0.05-0.3
								c0.8,2.58,1.59,5.14,2.33,7.52l-0.81-0.08c1.49-2.35,3.01-4.63,4.65-6.83c0.83-1.1,1.66-2.18,2.65-3.19
								c0.24-0.25,0.51-0.5,0.82-0.73c0.27-0.23,0.79-0.45,1.09-0.52c0.35-0.1,0.69-0.2,1.09-0.28c0.19-0.04,0.41-0.07,0.68-0.04
								c0.28,0.01,0.62,0.23,0.74,0.44c0.23,0.41,0.24,0.74,0.29,1.07c0.01,0.17-0.01,0.41-0.04,0.58l-0.13,0.49
								c-0.19,0.63-0.43,1.23-0.67,1.83c-0.49,1.19-1.01,2.34-1.54,3.48c-1.06,2.28-2.15,4.5-3.24,6.66l0.03-0.21
								c0.67,4.03,1.26,7.95,1.55,11.78c0.17,1.89,0.12,3.89-0.66,5.67c-0.75,1.78-1.96,3.31-3.5,4.53l0.14-0.27
								c0.92,16.24,1.69,29.67,2.22,39.07c0.24,4.65,0.43,8.31,0.56,10.85c0.05,1.22,0.09,2.16,0.12,2.85
								C234.21,337.89,234.2,338.23,234.2,338.23z"/>
						</g>
					</g>
				</g>
			</g>
			<g>
				<g>
					<g>
						<g>
							<path class="st14" d="M212.56,259.79c-0.24,0.03-0.78-3.12-1.21-7.04c-0.43-3.92-0.58-7.11-0.33-7.12
								c0.24-0.02,0.79,3.14,1.21,7.04C212.65,256.58,212.8,259.76,212.56,259.79z"/>
						</g>
					</g>
				</g>
			</g>
		</g>
	</g>
	<g>
		<g>
			<g>
				<g>
					<path class="st5" d="M212.1,216.09c1.12-0.08,10.18,1.09,9.47,17.93c-0.67,15.73-11.7,12.26-15.22,6.34
						C203.01,234.76,201.08,216.87,212.1,216.09z"/>
				</g>
			</g>
			<g>
				<g>
					<g>
						<path class="st5" d="M206.5,218.08c0.01,0,0.03-0.15,0.04-0.44c0.01-0.33,0.03-0.75,0.05-1.28c0.03-1.16,0.08-2.78,0.13-4.8
							c0.08-4.14,0.2-9.88,0.33-16.51l-0.2,0.2c1.49,0,3.06,0,4.67,0.01l-0.21-0.22c-0.03,1.25-0.07,2.58-0.11,3.92
							c-0.16,6.32-0.3,12.2-0.42,17.13l0,0.14l0.14,0.03c2.1,0.49,3.76,1.71,4.81,3.1c1.07,1.38,1.6,2.85,1.92,4.06
							c0.32,1.22,0.43,2.21,0.49,2.88c0.03,0.34,0.05,0.59,0.05,0.77c0.01,0.17,0.02,0.26,0.03,0.26c0.01,0,0.02-0.09,0.03-0.26
							c0.01-0.18,0.01-0.44,0-0.77c-0.03-0.68-0.11-1.68-0.4-2.92c-0.3-1.23-0.81-2.74-1.89-4.19c-1.06-1.44-2.78-2.74-4.96-3.27
							l0.14,0.18c0.14-4.92,0.31-10.81,0.49-17.13c0.04-1.34,0.07-2.66,0.1-3.92l0.01-0.22l-0.22,0c-1.61,0-3.18,0-4.67,0.01l-0.2,0
							l0,0.2c-0.07,6.63-0.14,12.38-0.18,16.52c-0.01,2.01-0.01,3.63-0.02,4.8c0.01,0.53,0.01,0.95,0.01,1.28
							C206.48,217.93,206.49,218.08,206.5,218.08z"/>
					</g>
				</g>
			</g>
			<g>
				<g>
					<path class="st5" d="M212.1,195.05c0,0,4.74-11.09,16.02-16.56c5.47-2.65,9.56-4.02,13.52-5.01c0,0-6.59-1.56-17.24,3.18
						c-4.84,2.15-9.72,4.96-12.95,9.16c-2.05,2.67-4.61,7.89-4.6,9.23H212.1z"/>
				</g>
			</g>
			<g>
				<g>
					<g>
						<path class="st5" d="M248.23,247.28l9.52,1.87c0.92,0.18,1.82-0.42,2-1.34l0.3-1.51c0.18-0.92-0.42-1.82-1.34-2l-9.52-1.87
							c-0.92-0.18-1.82,0.42-2,1.34l-0.3,1.51C246.71,246.21,247.31,247.1,248.23,247.28z"/>
					</g>
				</g>
				<g>
					<g>
						<path class="st5" d="M248.2,243.8l-38.49-12.07c-0.95-0.3-1.97,0.23-2.27,1.18l0,0c-0.32,0.99,0.26,2.04,1.25,2.31
							l39.36,10.63L248.2,243.8z"/>
					</g>
				</g>
				<g>
					<g>
						<g>
							<path class="st9" d="M219.75,238.49c0.01-0.03-0.45-0.19-1.27-0.45c-0.9-0.27-2.09-0.64-3.52-1.07
								c-1.48-0.46-3.29-0.94-5.21-1.57c-0.46-0.18-0.91-0.42-1.26-0.78c-0.33-0.35-0.55-0.85-0.54-1.34c0-0.49,0.32-0.94,0.79-1.1
								c0.48-0.16,1.06-0.09,1.61,0.05c4.47,1.44,8.52,2.74,11.54,3.71c1.43,0.44,2.62,0.81,3.51,1.09c0.83,0.25,1.3,0.37,1.31,0.34
								c0.01-0.03-0.44-0.2-1.26-0.5c-0.89-0.31-2.06-0.72-3.47-1.21c-2.95-1-6.99-2.38-11.53-3.84c-0.59-0.14-1.22-0.24-1.85-0.04
								c-0.63,0.2-1.08,0.85-1.07,1.49c0,0.63,0.26,1.21,0.67,1.63c0.41,0.41,0.92,0.67,1.41,0.86c1.99,0.63,3.76,1.07,5.27,1.49
								c1.45,0.38,2.65,0.7,3.56,0.94C219.27,238.42,219.74,238.52,219.75,238.49z"/>
						</g>
					</g>
				</g>
			</g>
		</g>
	</g>
</g>
</svg>
